<mxfile host="app.diagrams.net" agent="Mozilla/5.0 (X11; Linux x86_64; rv:134.0) Gecko/20100101 Firefox/134.0" version="26.0.16">
  <diagram name="Page-1" id="Zg2J0i8kcsBhqcDElQuv">
    <mxGraphModel dx="4435" dy="1985" grid="1" gridSize="10" guides="1" tooltips="1" connect="1" arrows="1" fold="1" page="1" pageScale="1" pageWidth="850" pageHeight="1100" math="1" shadow="0">
      <root>
        <mxCell id="0" />
        <mxCell id="1" parent="0" />
        <mxCell id="kov3exJGOiLsOatTBzYe-4" value="&lt;font style=&quot;font-size: 14px;&quot;&gt;$$512 \times 512$$&lt;/font&gt;" style="text;html=1;align=center;verticalAlign=middle;resizable=0;points=[];autosize=1;strokeColor=none;fillColor=none;rotation=-90;" parent="1" vertex="1">
          <mxGeometry x="-25" y="230" width="150" height="30" as="geometry" />
        </mxCell>
        <mxCell id="kov3exJGOiLsOatTBzYe-5" value="3" style="text;html=1;align=center;verticalAlign=middle;resizable=0;points=[];autosize=1;strokeColor=none;fillColor=none;rotation=0;" parent="1" vertex="1">
          <mxGeometry x="46.5" y="50" width="30" height="30" as="geometry" />
        </mxCell>
        <mxCell id="kov3exJGOiLsOatTBzYe-10" value="" style="shape=flexArrow;endArrow=classic;html=1;rounded=0;fillColor=#000066;strokeColor=#000066;endWidth=7;endSize=6.38;" parent="1" edge="1">
          <mxGeometry width="50" height="50" relative="1" as="geometry">
            <mxPoint x="65" y="179.5" as="sourcePoint" />
            <mxPoint x="95" y="180" as="targetPoint" />
          </mxGeometry>
        </mxCell>
        <mxCell id="kov3exJGOiLsOatTBzYe-54" value="" style="shape=flexArrow;endArrow=classic;html=1;rounded=0;fillColor=#000066;strokeColor=#000066;endWidth=7;endSize=6.38;entryX=0;entryY=0.5;entryDx=0;entryDy=0;" parent="1" edge="1">
          <mxGeometry width="50" height="50" relative="1" as="geometry">
            <mxPoint x="145" y="379.5" as="sourcePoint" />
            <mxPoint x="175" y="380" as="targetPoint" />
          </mxGeometry>
        </mxCell>
        <mxCell id="kov3exJGOiLsOatTBzYe-59" value="" style="shape=flexArrow;endArrow=classic;html=1;rounded=0;fillColor=#000066;strokeColor=#000066;endWidth=7;endSize=6.38;entryX=0;entryY=0.5;entryDx=0;entryDy=0;" parent="1" edge="1">
          <mxGeometry width="50" height="50" relative="1" as="geometry">
            <mxPoint x="225" y="504.5" as="sourcePoint" />
            <mxPoint x="255" y="505" as="targetPoint" />
          </mxGeometry>
        </mxCell>
        <mxCell id="kov3exJGOiLsOatTBzYe-63" value="" style="shape=flexArrow;endArrow=classic;html=1;rounded=0;fillColor=#660000;strokeColor=#660000;endWidth=7;endSize=6.38;" parent="1" edge="1">
          <mxGeometry width="50" height="50" relative="1" as="geometry">
            <mxPoint x="142" y="290" as="sourcePoint" />
            <mxPoint x="142" y="320" as="targetPoint" />
          </mxGeometry>
        </mxCell>
        <mxCell id="kov3exJGOiLsOatTBzYe-64" value="" style="shape=flexArrow;endArrow=classic;html=1;rounded=0;fillColor=#660000;strokeColor=#660000;endWidth=7;endSize=6.38;" parent="1" edge="1">
          <mxGeometry width="50" height="50" relative="1" as="geometry">
            <mxPoint x="219.5" y="440" as="sourcePoint" />
            <mxPoint x="219.5" y="470" as="targetPoint" />
          </mxGeometry>
        </mxCell>
        <mxCell id="kov3exJGOiLsOatTBzYe-65" value="" style="shape=flexArrow;endArrow=classic;html=1;rounded=0;fillColor=#660000;strokeColor=#660000;endWidth=7;endSize=6.38;" parent="1" edge="1">
          <mxGeometry width="50" height="50" relative="1" as="geometry">
            <mxPoint x="317" y="540" as="sourcePoint" />
            <mxPoint x="317" y="570" as="targetPoint" />
          </mxGeometry>
        </mxCell>
        <mxCell id="kov3exJGOiLsOatTBzYe-66" value="" style="shape=flexArrow;endArrow=classic;html=1;rounded=0;fillColor=#660000;strokeColor=#660000;endWidth=7;endSize=6.38;" parent="1" edge="1">
          <mxGeometry width="50" height="50" relative="1" as="geometry">
            <mxPoint x="469.5" y="618.75" as="sourcePoint" />
            <mxPoint x="469.5" y="648.75" as="targetPoint" />
          </mxGeometry>
        </mxCell>
        <mxCell id="kov3exJGOiLsOatTBzYe-67" value="" style="shape=flexArrow;endArrow=classic;html=1;rounded=0;fillColor=#000066;strokeColor=#000066;endWidth=7;endSize=6.38;entryX=0;entryY=0.5;entryDx=0;entryDy=0;" parent="1" edge="1">
          <mxGeometry width="50" height="50" relative="1" as="geometry">
            <mxPoint x="535" y="663.75" as="sourcePoint" />
            <mxPoint x="535" y="663.75" as="targetPoint" />
          </mxGeometry>
        </mxCell>
        <mxCell id="kov3exJGOiLsOatTBzYe-76" value="" style="shape=flexArrow;endArrow=classic;html=1;rounded=0;fillColor=#999999;strokeColor=#999999;endWidth=7;endSize=6.38;entryX=0.933;entryY=0.167;entryDx=0;entryDy=0;entryPerimeter=0;" parent="1" target="kov3exJGOiLsOatTBzYe-335" edge="1">
          <mxGeometry width="50" height="50" relative="1" as="geometry">
            <mxPoint x="160" y="180" as="sourcePoint" />
            <mxPoint x="705" y="180" as="targetPoint" />
          </mxGeometry>
        </mxCell>
        <mxCell id="kov3exJGOiLsOatTBzYe-77" value="$$16$$" style="text;html=1;align=center;verticalAlign=middle;resizable=0;points=[];autosize=1;strokeColor=none;fillColor=none;rotation=0;" parent="1" vertex="1">
          <mxGeometry x="107.5" y="50" width="70" height="30" as="geometry" />
        </mxCell>
        <mxCell id="kov3exJGOiLsOatTBzYe-89" value="$$32$$" style="text;html=1;align=center;verticalAlign=middle;resizable=0;points=[];autosize=1;strokeColor=none;fillColor=none;rotation=0;" parent="1" vertex="1">
          <mxGeometry x="145" y="300" width="70" height="30" as="geometry" />
        </mxCell>
        <mxCell id="kov3exJGOiLsOatTBzYe-91" value="&lt;div style=&quot;font-size: 14px;&quot;&gt;$$256^2$$&lt;/div&gt;" style="text;html=1;align=center;verticalAlign=middle;resizable=0;points=[];autosize=1;strokeColor=none;fillColor=none;rotation=-90;" parent="1" vertex="1">
          <mxGeometry x="85" y="400" width="90" height="30" as="geometry" />
        </mxCell>
        <mxCell id="kov3exJGOiLsOatTBzYe-92" value="&lt;div style=&quot;font-size: 13px;&quot;&gt;$$128^2$$&lt;/div&gt;" style="text;html=1;align=center;verticalAlign=middle;resizable=0;points=[];autosize=1;strokeColor=none;fillColor=none;rotation=-90;" parent="1" vertex="1">
          <mxGeometry x="160" y="510" width="90" height="30" as="geometry" />
        </mxCell>
        <mxCell id="kov3exJGOiLsOatTBzYe-93" value="$$64$$" style="text;html=1;align=center;verticalAlign=middle;resizable=0;points=[];autosize=1;strokeColor=none;fillColor=none;rotation=0;" parent="1" vertex="1">
          <mxGeometry x="235" y="450" width="70" height="30" as="geometry" />
        </mxCell>
        <mxCell id="kov3exJGOiLsOatTBzYe-94" value="&lt;div style=&quot;font-size: 13px;&quot;&gt;$$64^2$$&lt;/div&gt;" style="text;html=1;align=center;verticalAlign=middle;resizable=0;points=[];autosize=1;strokeColor=none;fillColor=none;rotation=-90;" parent="1" vertex="1">
          <mxGeometry x="262.5" y="590" width="80" height="30" as="geometry" />
        </mxCell>
        <mxCell id="kov3exJGOiLsOatTBzYe-95" value="$$128$$" style="text;html=1;align=center;verticalAlign=middle;resizable=0;points=[];autosize=1;strokeColor=none;fillColor=none;rotation=0;" parent="1" vertex="1">
          <mxGeometry x="435" y="550" width="70" height="30" as="geometry" />
        </mxCell>
        <mxCell id="kov3exJGOiLsOatTBzYe-96" value="&lt;div style=&quot;font-size: 14px;&quot;&gt;$$32^2$$&lt;/div&gt;" style="text;html=1;align=center;verticalAlign=middle;resizable=0;points=[];autosize=1;strokeColor=none;fillColor=none;rotation=-90;" parent="1" vertex="1">
          <mxGeometry x="400" y="650" width="80" height="30" as="geometry" />
        </mxCell>
        <mxCell id="kov3exJGOiLsOatTBzYe-101" value="" style="shape=flexArrow;endArrow=classic;html=1;rounded=0;fillColor=#009900;strokeColor=#009900;endWidth=7;endSize=6.38;" parent="1" edge="1">
          <mxGeometry width="50" height="50" relative="1" as="geometry">
            <mxPoint x="644.5" y="649" as="sourcePoint" />
            <mxPoint x="644.5" y="620" as="targetPoint" />
          </mxGeometry>
        </mxCell>
        <mxCell id="kov3exJGOiLsOatTBzYe-102" value="" style="shape=flexArrow;endArrow=classic;html=1;rounded=0;fillColor=#999999;strokeColor=#999999;endWidth=7;endSize=6.38;entryX=0.889;entryY=0.133;entryDx=0;entryDy=0;entryPerimeter=0;" parent="1" target="kov3exJGOiLsOatTBzYe-297" edge="1">
          <mxGeometry width="50" height="50" relative="1" as="geometry">
            <mxPoint x="240" y="380" as="sourcePoint" />
            <mxPoint x="665" y="380" as="targetPoint" />
          </mxGeometry>
        </mxCell>
        <mxCell id="kov3exJGOiLsOatTBzYe-103" value="" style="shape=flexArrow;endArrow=classic;html=1;rounded=0;fillColor=#999999;strokeColor=#999999;endWidth=7;endSize=6.38;entryX=0.75;entryY=0.067;entryDx=0;entryDy=0;entryPerimeter=0;" parent="1" target="kov3exJGOiLsOatTBzYe-256" edge="1">
          <mxGeometry width="50" height="50" relative="1" as="geometry">
            <mxPoint x="340" y="505" as="sourcePoint" />
            <mxPoint x="550" y="505" as="targetPoint" />
          </mxGeometry>
        </mxCell>
        <mxCell id="kov3exJGOiLsOatTBzYe-104" value="" style="shape=flexArrow;endArrow=classic;html=1;rounded=0;fillColor=#999999;strokeColor=#999999;endWidth=7;endSize=6.38;entryX=0.625;entryY=-0.033;entryDx=0;entryDy=0;entryPerimeter=0;" parent="1" target="kov3exJGOiLsOatTBzYe-231" edge="1">
          <mxGeometry width="50" height="50" relative="1" as="geometry">
            <mxPoint x="500" y="595" as="sourcePoint" />
            <mxPoint x="540" y="595" as="targetPoint" />
          </mxGeometry>
        </mxCell>
        <mxCell id="kov3exJGOiLsOatTBzYe-112" value="$$32$$" style="text;html=1;align=center;verticalAlign=middle;resizable=0;points=[];autosize=1;strokeColor=none;fillColor=none;rotation=0;" parent="1" vertex="1">
          <mxGeometry x="185" y="300" width="70" height="30" as="geometry" />
        </mxCell>
        <mxCell id="kov3exJGOiLsOatTBzYe-114" value="" style="rounded=0;whiteSpace=wrap;html=1;fillColor=#dae8fc;strokeColor=#6c8ebf;" parent="1" vertex="1">
          <mxGeometry x="60" y="80" width="3" height="200" as="geometry" />
        </mxCell>
        <mxCell id="kov3exJGOiLsOatTBzYe-116" value="&lt;font style=&quot;font-size: 14px;&quot;&gt;$$512 \times 512$$&lt;/font&gt;" style="text;html=1;align=center;verticalAlign=middle;resizable=0;points=[];autosize=1;strokeColor=none;fillColor=none;rotation=-90;" parent="1" vertex="1">
          <mxGeometry x="15" y="230" width="150" height="30" as="geometry" />
        </mxCell>
        <mxCell id="kov3exJGOiLsOatTBzYe-117" value="" style="shape=flexArrow;endArrow=classic;html=1;rounded=0;fillColor=#000066;strokeColor=#000066;endWidth=7;endSize=6.38;" parent="1" edge="1">
          <mxGeometry width="50" height="50" relative="1" as="geometry">
            <mxPoint x="105" y="179.5" as="sourcePoint" />
            <mxPoint x="135" y="180" as="targetPoint" />
          </mxGeometry>
        </mxCell>
        <mxCell id="kov3exJGOiLsOatTBzYe-118" value="" style="rounded=0;whiteSpace=wrap;html=1;fillColor=#dae8fc;strokeColor=#6c8ebf;" parent="1" vertex="1">
          <mxGeometry x="100" y="80" width="5" height="200" as="geometry" />
        </mxCell>
        <mxCell id="kov3exJGOiLsOatTBzYe-146" value="" style="rounded=0;whiteSpace=wrap;html=1;fillColor=#FFFFFF;strokeColor=#6c8ebf;" parent="1" vertex="1">
          <mxGeometry x="950" y="80" width="5" height="200" as="geometry" />
        </mxCell>
        <mxCell id="kov3exJGOiLsOatTBzYe-147" value="&lt;font style=&quot;font-size: 14px;&quot;&gt;$$512 \times 512$$&lt;/font&gt;" style="text;html=1;align=center;verticalAlign=middle;resizable=0;points=[];autosize=1;strokeColor=none;fillColor=none;rotation=-90;" parent="1" vertex="1">
          <mxGeometry x="55" y="230" width="150" height="30" as="geometry" />
        </mxCell>
        <mxCell id="kov3exJGOiLsOatTBzYe-148" value="" style="shape=flexArrow;endArrow=classic;html=1;rounded=0;fillColor=#000066;strokeColor=#000066;endWidth=7;endSize=6.38;entryX=0;entryY=0.5;entryDx=0;entryDy=0;" parent="1" edge="1">
          <mxGeometry width="50" height="50" relative="1" as="geometry">
            <mxPoint x="185" y="379.5" as="sourcePoint" />
            <mxPoint x="215" y="380" as="targetPoint" />
          </mxGeometry>
        </mxCell>
        <mxCell id="kov3exJGOiLsOatTBzYe-149" value="" style="rounded=0;whiteSpace=wrap;html=1;fillColor=#dae8fc;strokeColor=#6c8ebf;" parent="1" vertex="1">
          <mxGeometry x="175" y="330" width="10" height="100" as="geometry" />
        </mxCell>
        <mxCell id="kov3exJGOiLsOatTBzYe-150" value="&lt;div style=&quot;font-size: 14px;&quot;&gt;$$256^2$$&lt;/div&gt;" style="text;html=1;align=center;verticalAlign=middle;resizable=0;points=[];autosize=1;strokeColor=none;fillColor=none;rotation=-90;" parent="1" vertex="1">
          <mxGeometry x="120" y="400" width="90" height="30" as="geometry" />
        </mxCell>
        <mxCell id="kov3exJGOiLsOatTBzYe-152" value="" style="rounded=0;whiteSpace=wrap;html=1;fillColor=#dae8fc;strokeColor=#6c8ebf;" parent="1" vertex="1">
          <mxGeometry x="830" y="480" width="10" height="50" as="geometry" />
        </mxCell>
        <mxCell id="kov3exJGOiLsOatTBzYe-153" value="&lt;div style=&quot;font-size: 14px;&quot;&gt;$$256^2$$&lt;/div&gt;" style="text;html=1;align=center;verticalAlign=middle;resizable=0;points=[];autosize=1;strokeColor=none;fillColor=none;rotation=-90;" parent="1" vertex="1">
          <mxGeometry x="160" y="400" width="90" height="30" as="geometry" />
        </mxCell>
        <mxCell id="kov3exJGOiLsOatTBzYe-168" value="" style="shape=flexArrow;endArrow=classic;html=1;rounded=0;fillColor=#000066;strokeColor=#000066;endWidth=7;endSize=6.38;entryX=0;entryY=0.5;entryDx=0;entryDy=0;" parent="1" edge="1">
          <mxGeometry width="50" height="50" relative="1" as="geometry">
            <mxPoint x="277.5" y="504.5" as="sourcePoint" />
            <mxPoint x="307.5" y="505" as="targetPoint" />
          </mxGeometry>
        </mxCell>
        <mxCell id="kov3exJGOiLsOatTBzYe-169" value="" style="rounded=0;whiteSpace=wrap;html=1;fillColor=#dae8fc;strokeColor=#6c8ebf;" parent="1" vertex="1">
          <mxGeometry x="262.5" y="480" width="15" height="50" as="geometry" />
        </mxCell>
        <mxCell id="kov3exJGOiLsOatTBzYe-172" value="$$64$$" style="text;html=1;align=center;verticalAlign=middle;resizable=0;points=[];autosize=1;strokeColor=none;fillColor=none;rotation=0;" parent="1" vertex="1">
          <mxGeometry x="282.5" y="450" width="70" height="30" as="geometry" />
        </mxCell>
        <mxCell id="kov3exJGOiLsOatTBzYe-173" value="&lt;div style=&quot;font-size: 13px;&quot;&gt;$$128^2$$&lt;/div&gt;" style="text;html=1;align=center;verticalAlign=middle;resizable=0;points=[];autosize=1;strokeColor=none;fillColor=none;rotation=-90;" parent="1" vertex="1">
          <mxGeometry x="210" y="510" width="90" height="30" as="geometry" />
        </mxCell>
        <mxCell id="kov3exJGOiLsOatTBzYe-176" value="" style="rounded=0;whiteSpace=wrap;html=1;fillColor=#dae8fc;strokeColor=#6c8ebf;" parent="1" vertex="1">
          <mxGeometry x="140" y="330" width="5" height="100" as="geometry" />
        </mxCell>
        <mxCell id="kov3exJGOiLsOatTBzYe-177" value="" style="rounded=0;whiteSpace=wrap;html=1;fillColor=#dae8fc;strokeColor=#6c8ebf;" parent="1" vertex="1">
          <mxGeometry x="215" y="480" width="10" height="50" as="geometry" />
        </mxCell>
        <mxCell id="kov3exJGOiLsOatTBzYe-189" value="&lt;div style=&quot;font-size: 13px;&quot;&gt;$$128^2$$&lt;/div&gt;" style="text;html=1;align=center;verticalAlign=middle;resizable=0;points=[];autosize=1;strokeColor=none;fillColor=none;rotation=-90;" parent="1" vertex="1">
          <mxGeometry x="257.5" y="510" width="90" height="30" as="geometry" />
        </mxCell>
        <mxCell id="kov3exJGOiLsOatTBzYe-190" value="" style="rounded=0;whiteSpace=wrap;html=1;fillColor=#dae8fc;strokeColor=#6c8ebf;" parent="1" vertex="1">
          <mxGeometry x="310" y="480" width="15" height="50" as="geometry" />
        </mxCell>
        <mxCell id="kov3exJGOiLsOatTBzYe-191" value="$$16$$" style="text;html=1;align=center;verticalAlign=middle;resizable=0;points=[];autosize=1;strokeColor=none;fillColor=none;rotation=0;" parent="1" vertex="1">
          <mxGeometry x="67.5" y="50" width="70" height="30" as="geometry" />
        </mxCell>
        <mxCell id="kov3exJGOiLsOatTBzYe-192" value="" style="rounded=0;whiteSpace=wrap;html=1;fillColor=#dae8fc;strokeColor=#6c8ebf;" parent="1" vertex="1">
          <mxGeometry x="310" y="580" width="15" height="30" as="geometry" />
        </mxCell>
        <mxCell id="kov3exJGOiLsOatTBzYe-45" value="" style="rounded=0;whiteSpace=wrap;html=1;fillColor=#dae8fc;strokeColor=#6c8ebf;" parent="1" vertex="1">
          <mxGeometry x="375" y="580" width="30" height="30" as="geometry" />
        </mxCell>
        <mxCell id="kov3exJGOiLsOatTBzYe-195" value="" style="shape=flexArrow;endArrow=classic;html=1;rounded=0;fillColor=#000066;strokeColor=#000066;endWidth=7;endSize=6.38;entryX=0;entryY=0.5;entryDx=0;entryDy=0;" parent="1" edge="1">
          <mxGeometry width="50" height="50" relative="1" as="geometry">
            <mxPoint x="325" y="594.5" as="sourcePoint" />
            <mxPoint x="355" y="595" as="targetPoint" />
          </mxGeometry>
        </mxCell>
        <mxCell id="kov3exJGOiLsOatTBzYe-197" value="" style="shape=flexArrow;endArrow=classic;html=1;rounded=0;fillColor=#000066;strokeColor=#000066;endWidth=7;endSize=6.38;entryX=0;entryY=0.5;entryDx=0;entryDy=0;" parent="1" edge="1">
          <mxGeometry width="50" height="50" relative="1" as="geometry">
            <mxPoint x="405" y="594.5" as="sourcePoint" />
            <mxPoint x="435" y="595" as="targetPoint" />
          </mxGeometry>
        </mxCell>
        <mxCell id="kov3exJGOiLsOatTBzYe-198" value="$$128$$" style="text;html=1;align=center;verticalAlign=middle;resizable=0;points=[];autosize=1;strokeColor=none;fillColor=none;rotation=0;" parent="1" vertex="1">
          <mxGeometry x="355" y="550" width="70" height="30" as="geometry" />
        </mxCell>
        <mxCell id="kov3exJGOiLsOatTBzYe-200" value="" style="rounded=0;whiteSpace=wrap;html=1;fillColor=#dae8fc;strokeColor=#6c8ebf;" parent="1" vertex="1">
          <mxGeometry x="455" y="657.5" width="30" height="12.5" as="geometry" />
        </mxCell>
        <mxCell id="kov3exJGOiLsOatTBzYe-215" value="" style="shape=flexArrow;endArrow=classic;html=1;rounded=0;fillColor=#000066;strokeColor=#000066;endWidth=7;endSize=6.38;entryX=0;entryY=0.5;entryDx=0;entryDy=0;" parent="1" edge="1">
          <mxGeometry width="50" height="50" relative="1" as="geometry">
            <mxPoint x="490" y="663.25" as="sourcePoint" />
            <mxPoint x="520" y="663.75" as="targetPoint" />
          </mxGeometry>
        </mxCell>
        <mxCell id="kov3exJGOiLsOatTBzYe-219" value="" style="shape=flexArrow;endArrow=classic;html=1;rounded=0;fillColor=#000066;strokeColor=#000066;endWidth=7;endSize=6.38;entryX=0;entryY=0.5;entryDx=0;entryDy=0;" parent="1" edge="1">
          <mxGeometry width="50" height="50" relative="1" as="geometry">
            <mxPoint x="625" y="661.88" as="sourcePoint" />
            <mxPoint x="625" y="661.88" as="targetPoint" />
          </mxGeometry>
        </mxCell>
        <mxCell id="kov3exJGOiLsOatTBzYe-220" value="" style="rounded=0;whiteSpace=wrap;html=1;fillColor=#dae8fc;strokeColor=#6c8ebf;" parent="1" vertex="1">
          <mxGeometry x="545" y="657.5" width="30" height="12.5" as="geometry" />
        </mxCell>
        <mxCell id="kov3exJGOiLsOatTBzYe-221" value="" style="shape=flexArrow;endArrow=classic;html=1;rounded=0;fillColor=#000066;strokeColor=#000066;endWidth=7;endSize=6.38;entryX=0;entryY=0.5;entryDx=0;entryDy=0;" parent="1" edge="1">
          <mxGeometry width="50" height="50" relative="1" as="geometry">
            <mxPoint x="580" y="664.5" as="sourcePoint" />
            <mxPoint x="610" y="665" as="targetPoint" />
          </mxGeometry>
        </mxCell>
        <mxCell id="kov3exJGOiLsOatTBzYe-226" value="" style="rounded=0;whiteSpace=wrap;html=1;fillColor=#dae8fc;strokeColor=#6c8ebf;" parent="1" vertex="1">
          <mxGeometry x="630" y="658.75" width="30" height="12.5" as="geometry" />
        </mxCell>
        <mxCell id="kov3exJGOiLsOatTBzYe-228" value="$$128$$" style="text;html=1;align=center;verticalAlign=middle;resizable=0;points=[];autosize=1;strokeColor=none;fillColor=none;rotation=0;" parent="1" vertex="1">
          <mxGeometry x="525" y="630" width="70" height="30" as="geometry" />
        </mxCell>
        <mxCell id="kov3exJGOiLsOatTBzYe-231" value="&lt;div style=&quot;font-size: 13px;&quot;&gt;$$64^2$$&lt;/div&gt;" style="text;html=1;align=center;verticalAlign=middle;resizable=0;points=[];autosize=1;strokeColor=none;fillColor=none;rotation=-90;" parent="1" vertex="1">
          <mxGeometry x="550" y="590" width="80" height="30" as="geometry" />
        </mxCell>
        <mxCell id="kov3exJGOiLsOatTBzYe-233" value="" style="rounded=0;whiteSpace=wrap;html=1;fillColor=#FFFFFF;strokeColor=#6c8ebf;" parent="1" vertex="1">
          <mxGeometry x="600" y="580" width="30" height="30" as="geometry" />
        </mxCell>
        <mxCell id="kov3exJGOiLsOatTBzYe-243" value="$$256$$" style="text;html=1;align=center;verticalAlign=middle;resizable=0;points=[];autosize=1;strokeColor=none;fillColor=none;rotation=0;" parent="1" vertex="1">
          <mxGeometry x="595" y="550" width="70" height="30" as="geometry" />
        </mxCell>
        <mxCell id="kov3exJGOiLsOatTBzYe-240" value="" style="rounded=0;whiteSpace=wrap;html=1;fillColor=#dae8fc;strokeColor=#6c8ebf;" parent="1" vertex="1">
          <mxGeometry x="710" y="580" width="15" height="30" as="geometry" />
        </mxCell>
        <mxCell id="kov3exJGOiLsOatTBzYe-249" value="" style="rounded=0;whiteSpace=wrap;html=1;fillColor=#dae8fc;strokeColor=#6c8ebf;" parent="1" vertex="1">
          <mxGeometry x="775" y="580" width="15" height="30" as="geometry" />
        </mxCell>
        <mxCell id="kov3exJGOiLsOatTBzYe-250" value="" style="shape=flexArrow;endArrow=classic;html=1;rounded=0;fillColor=#009900;strokeColor=#009900;endWidth=7;endSize=6.38;" parent="1" edge="1">
          <mxGeometry width="50" height="50" relative="1" as="geometry">
            <mxPoint x="782" y="569" as="sourcePoint" />
            <mxPoint x="782" y="540" as="targetPoint" />
          </mxGeometry>
        </mxCell>
        <mxCell id="kov3exJGOiLsOatTBzYe-252" value="" style="rounded=0;whiteSpace=wrap;html=1;fillColor=#FFFFFF;strokeColor=#6c8ebf;" parent="1" vertex="1">
          <mxGeometry x="765" y="480" width="15" height="50" as="geometry" />
        </mxCell>
        <mxCell id="kov3exJGOiLsOatTBzYe-253" value="" style="rounded=0;whiteSpace=wrap;html=1;fillColor=#dae8fc;strokeColor=#6c8ebf;" parent="1" vertex="1">
          <mxGeometry x="780" y="480" width="15" height="50" as="geometry" />
        </mxCell>
        <mxCell id="kov3exJGOiLsOatTBzYe-254" value="$$128$$" style="text;html=1;align=center;verticalAlign=middle;resizable=0;points=[];autosize=1;strokeColor=none;fillColor=none;rotation=0;" parent="1" vertex="1">
          <mxGeometry x="742.5" y="450" width="70" height="30" as="geometry" />
        </mxCell>
        <mxCell id="kov3exJGOiLsOatTBzYe-256" value="&lt;div style=&quot;font-size: 13px;&quot;&gt;$$128^2$$&lt;/div&gt;" style="text;html=1;align=center;verticalAlign=middle;resizable=0;points=[];autosize=1;strokeColor=none;fillColor=none;rotation=-90;" parent="1" vertex="1">
          <mxGeometry x="710" y="510" width="90" height="30" as="geometry" />
        </mxCell>
        <mxCell id="kov3exJGOiLsOatTBzYe-257" value="&lt;div style=&quot;font-size: 14px;&quot;&gt;$$32^2$$&lt;/div&gt;" style="text;html=1;align=center;verticalAlign=middle;resizable=0;points=[];autosize=1;strokeColor=none;fillColor=none;rotation=-90;" parent="1" vertex="1">
          <mxGeometry x="495" y="650" width="80" height="30" as="geometry" />
        </mxCell>
        <mxCell id="kov3exJGOiLsOatTBzYe-258" value="&lt;div style=&quot;font-size: 14px;&quot;&gt;$$32^2$$&lt;/div&gt;" style="text;html=1;align=center;verticalAlign=middle;resizable=0;points=[];autosize=1;strokeColor=none;fillColor=none;rotation=-90;" parent="1" vertex="1">
          <mxGeometry x="580" y="648.75" width="80" height="30" as="geometry" />
        </mxCell>
        <mxCell id="kov3exJGOiLsOatTBzYe-260" value="&lt;div style=&quot;font-size: 13px;&quot;&gt;$$64^2$$&lt;/div&gt;" style="text;html=1;align=center;verticalAlign=middle;resizable=0;points=[];autosize=1;strokeColor=none;fillColor=none;rotation=-90;" parent="1" vertex="1">
          <mxGeometry x="325" y="590" width="80" height="30" as="geometry" />
        </mxCell>
        <mxCell id="kov3exJGOiLsOatTBzYe-265" value="&lt;div style=&quot;font-size: 13px;&quot;&gt;$$64^2$$&lt;/div&gt;" style="text;html=1;align=center;verticalAlign=middle;resizable=0;points=[];autosize=1;strokeColor=none;fillColor=none;rotation=-90;" parent="1" vertex="1">
          <mxGeometry x="405" y="590" width="80" height="30" as="geometry" />
        </mxCell>
        <mxCell id="kov3exJGOiLsOatTBzYe-196" value="" style="rounded=0;whiteSpace=wrap;html=1;fillColor=#dae8fc;strokeColor=#6c8ebf;" parent="1" vertex="1">
          <mxGeometry x="455" y="580" width="30" height="30" as="geometry" />
        </mxCell>
        <mxCell id="kov3exJGOiLsOatTBzYe-275" value="&lt;div style=&quot;font-size: 13px;&quot;&gt;$$64^2$$&lt;/div&gt;" style="text;html=1;align=center;verticalAlign=middle;resizable=0;points=[];autosize=1;strokeColor=none;fillColor=none;rotation=-90;" parent="1" vertex="1">
          <mxGeometry x="660" y="590" width="80" height="30" as="geometry" />
        </mxCell>
        <mxCell id="kov3exJGOiLsOatTBzYe-276" value="" style="rounded=0;whiteSpace=wrap;html=1;fillColor=#dae8fc;strokeColor=#6c8ebf;" parent="1" vertex="1">
          <mxGeometry x="215" y="330" width="10" height="100" as="geometry" />
        </mxCell>
        <mxCell id="kov3exJGOiLsOatTBzYe-277" value="&lt;div style=&quot;font-size: 13px;&quot;&gt;$$128^2$$&lt;/div&gt;" style="text;html=1;align=center;verticalAlign=middle;resizable=0;points=[];autosize=1;strokeColor=none;fillColor=none;rotation=-90;" parent="1" vertex="1">
          <mxGeometry x="775" y="510" width="90" height="30" as="geometry" />
        </mxCell>
        <mxCell id="kov3exJGOiLsOatTBzYe-278" value="$$32$$" style="text;html=1;align=center;verticalAlign=middle;resizable=0;points=[];autosize=1;strokeColor=none;fillColor=none;rotation=0;" parent="1" vertex="1">
          <mxGeometry x="800" y="450" width="70" height="30" as="geometry" />
        </mxCell>
        <mxCell id="kov3exJGOiLsOatTBzYe-279" value="" style="shape=flexArrow;endArrow=classic;html=1;rounded=0;fillColor=#000066;strokeColor=#000066;endWidth=7;endSize=6.38;entryX=0;entryY=0.5;entryDx=0;entryDy=0;" parent="1" edge="1">
          <mxGeometry width="50" height="50" relative="1" as="geometry">
            <mxPoint x="795" y="504.5" as="sourcePoint" />
            <mxPoint x="825.5" y="505" as="targetPoint" />
          </mxGeometry>
        </mxCell>
        <mxCell id="kov3exJGOiLsOatTBzYe-280" value="" style="rounded=0;whiteSpace=wrap;html=1;fillColor=#dae8fc;strokeColor=#6c8ebf;" parent="1" vertex="1">
          <mxGeometry x="870" y="480" width="10" height="50" as="geometry" />
        </mxCell>
        <mxCell id="kov3exJGOiLsOatTBzYe-281" value="&lt;div style=&quot;font-size: 13px;&quot;&gt;$$128^2$$&lt;/div&gt;" style="text;html=1;align=center;verticalAlign=middle;resizable=0;points=[];autosize=1;strokeColor=none;fillColor=none;rotation=-90;" parent="1" vertex="1">
          <mxGeometry x="815" y="510" width="90" height="30" as="geometry" />
        </mxCell>
        <mxCell id="kov3exJGOiLsOatTBzYe-282" value="" style="shape=flexArrow;endArrow=classic;html=1;rounded=0;fillColor=#000066;strokeColor=#000066;endWidth=7;endSize=6.38;entryX=0;entryY=0.5;entryDx=0;entryDy=0;" parent="1" edge="1">
          <mxGeometry width="50" height="50" relative="1" as="geometry">
            <mxPoint x="840" y="504.5" as="sourcePoint" />
            <mxPoint x="870.5" y="505" as="targetPoint" />
          </mxGeometry>
        </mxCell>
        <mxCell id="kov3exJGOiLsOatTBzYe-284" value="" style="shape=flexArrow;endArrow=classic;html=1;rounded=0;fillColor=#000066;strokeColor=#000066;endWidth=7;endSize=6.38;entryX=0;entryY=0.5;entryDx=0;entryDy=0;" parent="1" target="kov3exJGOiLsOatTBzYe-230" edge="1">
          <mxGeometry width="50" height="50" relative="1" as="geometry">
            <mxPoint x="655" y="594.5" as="sourcePoint" />
            <mxPoint x="685.5" y="595" as="targetPoint" />
          </mxGeometry>
        </mxCell>
        <mxCell id="kov3exJGOiLsOatTBzYe-230" value="" style="rounded=0;whiteSpace=wrap;html=1;fillColor=#dae8fc;strokeColor=#6c8ebf;" parent="1" vertex="1">
          <mxGeometry x="630" y="580" width="30" height="30" as="geometry" />
        </mxCell>
        <mxCell id="kov3exJGOiLsOatTBzYe-287" value="" style="shape=flexArrow;endArrow=classic;html=1;rounded=0;fillColor=#000066;strokeColor=#000066;endWidth=7;endSize=6.38;entryX=0;entryY=0.5;entryDx=0;entryDy=0;" parent="1" edge="1">
          <mxGeometry width="50" height="50" relative="1" as="geometry">
            <mxPoint x="660" y="594.5" as="sourcePoint" />
            <mxPoint x="690.5" y="595" as="targetPoint" />
          </mxGeometry>
        </mxCell>
        <mxCell id="kov3exJGOiLsOatTBzYe-289" value="&lt;div style=&quot;font-size: 13px;&quot;&gt;$$64^2$$&lt;/div&gt;" style="text;html=1;align=center;verticalAlign=middle;resizable=0;points=[];autosize=1;strokeColor=none;fillColor=none;rotation=-90;" parent="1" vertex="1">
          <mxGeometry x="725" y="590" width="80" height="30" as="geometry" />
        </mxCell>
        <mxCell id="kov3exJGOiLsOatTBzYe-290" value="" style="shape=flexArrow;endArrow=classic;html=1;rounded=0;fillColor=#000066;strokeColor=#000066;endWidth=7;endSize=6.38;entryX=0;entryY=0.5;entryDx=0;entryDy=0;" parent="1" edge="1">
          <mxGeometry width="50" height="50" relative="1" as="geometry">
            <mxPoint x="725" y="594.5" as="sourcePoint" />
            <mxPoint x="755.5" y="595" as="targetPoint" />
          </mxGeometry>
        </mxCell>
        <mxCell id="kov3exJGOiLsOatTBzYe-291" value="$$64$$" style="text;html=1;align=center;verticalAlign=middle;resizable=0;points=[];autosize=1;strokeColor=none;fillColor=none;rotation=0;" parent="1" vertex="1">
          <mxGeometry x="682.5" y="550" width="70" height="30" as="geometry" />
        </mxCell>
        <mxCell id="kov3exJGOiLsOatTBzYe-293" value="" style="shape=flexArrow;endArrow=classic;html=1;rounded=0;fillColor=#009900;strokeColor=#009900;endWidth=7;endSize=6.38;" parent="1" edge="1">
          <mxGeometry width="50" height="50" relative="1" as="geometry">
            <mxPoint x="874.5" y="469" as="sourcePoint" />
            <mxPoint x="874.5" y="440" as="targetPoint" />
          </mxGeometry>
        </mxCell>
        <mxCell id="kov3exJGOiLsOatTBzYe-294" value="" style="rounded=0;whiteSpace=wrap;html=1;fillColor=#FFFFFF;strokeColor=#6c8ebf;" parent="1" vertex="1">
          <mxGeometry x="865" y="330" width="10" height="100" as="geometry" />
        </mxCell>
        <mxCell id="kov3exJGOiLsOatTBzYe-295" value="" style="rounded=0;whiteSpace=wrap;html=1;fillColor=#dae8fc;strokeColor=#6c8ebf;" parent="1" vertex="1">
          <mxGeometry x="875" y="330" width="10" height="100" as="geometry" />
        </mxCell>
        <mxCell id="kov3exJGOiLsOatTBzYe-296" value="$$64$$" style="text;html=1;align=center;verticalAlign=middle;resizable=0;points=[];autosize=1;strokeColor=none;fillColor=none;rotation=0;" parent="1" vertex="1">
          <mxGeometry x="840" y="300" width="70" height="30" as="geometry" />
        </mxCell>
        <mxCell id="kov3exJGOiLsOatTBzYe-297" value="&lt;div style=&quot;font-size: 14px;&quot;&gt;$$256^2$$&lt;/div&gt;" style="text;html=1;align=center;verticalAlign=middle;resizable=0;points=[];autosize=1;strokeColor=none;fillColor=none;rotation=-90;" parent="1" vertex="1">
          <mxGeometry x="810" y="400" width="90" height="30" as="geometry" />
        </mxCell>
        <mxCell id="kov3exJGOiLsOatTBzYe-298" value="" style="shape=flexArrow;endArrow=classic;html=1;rounded=0;fillColor=#000066;strokeColor=#000066;endWidth=7;endSize=6.38;entryX=0;entryY=0.5;entryDx=0;entryDy=0;" parent="1" edge="1">
          <mxGeometry width="50" height="50" relative="1" as="geometry">
            <mxPoint x="885" y="379.5" as="sourcePoint" />
            <mxPoint x="915.5" y="380" as="targetPoint" />
          </mxGeometry>
        </mxCell>
        <mxCell id="kov3exJGOiLsOatTBzYe-302" value="&lt;div style=&quot;font-size: 14px;&quot;&gt;$$256^2$$&lt;/div&gt;" style="text;html=1;align=center;verticalAlign=middle;resizable=0;points=[];autosize=1;strokeColor=none;fillColor=none;rotation=-90;" parent="1" vertex="1">
          <mxGeometry x="865" y="400" width="90" height="30" as="geometry" />
        </mxCell>
        <mxCell id="kov3exJGOiLsOatTBzYe-309" value="" style="rounded=0;whiteSpace=wrap;html=1;fillColor=#dae8fc;strokeColor=#6c8ebf;" parent="1" vertex="1">
          <mxGeometry x="920" y="330" width="5" height="100" as="geometry" />
        </mxCell>
        <mxCell id="kov3exJGOiLsOatTBzYe-311" value="$$16$$" style="text;html=1;align=center;verticalAlign=middle;resizable=0;points=[];autosize=1;strokeColor=none;fillColor=none;rotation=0;" parent="1" vertex="1">
          <mxGeometry x="887.5" y="300" width="70" height="30" as="geometry" />
        </mxCell>
        <mxCell id="kov3exJGOiLsOatTBzYe-312" value="" style="shape=flexArrow;endArrow=classic;html=1;rounded=0;fillColor=#000066;strokeColor=#000066;endWidth=7;endSize=6.38;entryX=0;entryY=0.5;entryDx=0;entryDy=0;" parent="1" edge="1">
          <mxGeometry width="50" height="50" relative="1" as="geometry">
            <mxPoint x="925" y="379.5" as="sourcePoint" />
            <mxPoint x="955.5" y="380" as="targetPoint" />
          </mxGeometry>
        </mxCell>
        <mxCell id="kov3exJGOiLsOatTBzYe-321" value="&lt;div style=&quot;font-size: 14px;&quot;&gt;$$256^2$$&lt;/div&gt;" style="text;html=1;align=center;verticalAlign=middle;resizable=0;points=[];autosize=1;strokeColor=none;fillColor=none;rotation=-90;" parent="1" vertex="1">
          <mxGeometry x="900" y="400" width="90" height="30" as="geometry" />
        </mxCell>
        <mxCell id="kov3exJGOiLsOatTBzYe-322" value="" style="rounded=0;whiteSpace=wrap;html=1;fillColor=#dae8fc;strokeColor=#6c8ebf;" parent="1" vertex="1">
          <mxGeometry x="955" y="330" width="5" height="100" as="geometry" />
        </mxCell>
        <mxCell id="kov3exJGOiLsOatTBzYe-326" value="" style="rounded=0;whiteSpace=wrap;html=1;fillColor=#dae8fc;strokeColor=#6c8ebf;" parent="1" vertex="1">
          <mxGeometry x="955" y="80" width="5" height="200" as="geometry" />
        </mxCell>
        <mxCell id="kov3exJGOiLsOatTBzYe-327" value="" style="shape=flexArrow;endArrow=classic;html=1;rounded=0;fillColor=#009900;strokeColor=#009900;endWidth=7;endSize=6.38;" parent="1" edge="1">
          <mxGeometry width="50" height="50" relative="1" as="geometry">
            <mxPoint x="957" y="319" as="sourcePoint" />
            <mxPoint x="957" y="290" as="targetPoint" />
          </mxGeometry>
        </mxCell>
        <mxCell id="kov3exJGOiLsOatTBzYe-329" value="$$32$$" style="text;html=1;align=center;verticalAlign=middle;resizable=0;points=[];autosize=1;strokeColor=none;fillColor=none;rotation=0;" parent="1" vertex="1">
          <mxGeometry x="920" y="50" width="70" height="30" as="geometry" />
        </mxCell>
        <mxCell id="kov3exJGOiLsOatTBzYe-330" value="" style="rounded=0;whiteSpace=wrap;html=1;fillColor=#dae8fc;strokeColor=#6c8ebf;" parent="1" vertex="1">
          <mxGeometry x="140" y="80" width="5" height="200" as="geometry" />
        </mxCell>
        <mxCell id="kov3exJGOiLsOatTBzYe-331" value="" style="shape=flexArrow;endArrow=classic;html=1;rounded=0;fillColor=#000066;strokeColor=#000066;endWidth=7;endSize=6.38;entryX=0;entryY=0.5;entryDx=0;entryDy=0;" parent="1" edge="1">
          <mxGeometry width="50" height="50" relative="1" as="geometry">
            <mxPoint x="960" y="179.5" as="sourcePoint" />
            <mxPoint x="990.5" y="180" as="targetPoint" />
          </mxGeometry>
        </mxCell>
        <mxCell id="kov3exJGOiLsOatTBzYe-334" value="" style="shape=flexArrow;endArrow=classic;html=1;rounded=0;fillColor=#000066;strokeColor=#000066;endWidth=7;endSize=6.38;entryX=0;entryY=0.5;entryDx=0;entryDy=0;" parent="1" edge="1">
          <mxGeometry width="50" height="50" relative="1" as="geometry">
            <mxPoint x="1000" y="179.5" as="sourcePoint" />
            <mxPoint x="1030.5" y="180" as="targetPoint" />
          </mxGeometry>
        </mxCell>
        <mxCell id="kov3exJGOiLsOatTBzYe-335" value="&lt;font style=&quot;font-size: 14px;&quot;&gt;$$512 \times 256$$&lt;/font&gt;" style="text;html=1;align=center;verticalAlign=middle;resizable=0;points=[];autosize=1;strokeColor=none;fillColor=none;rotation=-90;" parent="1" vertex="1">
          <mxGeometry x="865" y="230" width="150" height="30" as="geometry" />
        </mxCell>
        <mxCell id="kov3exJGOiLsOatTBzYe-339" value="" style="rounded=0;whiteSpace=wrap;html=1;fillColor=#dae8fc;strokeColor=#6c8ebf;" parent="1" vertex="1">
          <mxGeometry x="995" y="80" width="5" height="200" as="geometry" />
        </mxCell>
        <mxCell id="kov3exJGOiLsOatTBzYe-340" value="&lt;font style=&quot;font-size: 14px;&quot;&gt;$$512 \times 512$$&lt;/font&gt;" style="text;html=1;align=center;verticalAlign=middle;resizable=0;points=[];autosize=1;strokeColor=none;fillColor=none;rotation=-90;" parent="1" vertex="1">
          <mxGeometry x="910" y="230" width="150" height="30" as="geometry" />
        </mxCell>
        <mxCell id="kov3exJGOiLsOatTBzYe-344" value="&lt;font style=&quot;font-size: 14px;&quot;&gt;$$512 \times 256$$&lt;/font&gt;" style="text;html=1;align=center;verticalAlign=middle;resizable=0;points=[];autosize=1;strokeColor=none;fillColor=none;rotation=-90;" parent="1" vertex="1">
          <mxGeometry x="950" y="230" width="150" height="30" as="geometry" />
        </mxCell>
        <mxCell id="kov3exJGOiLsOatTBzYe-345" value="" style="rounded=0;whiteSpace=wrap;html=1;fillColor=#dae8fc;strokeColor=#6c8ebf;" parent="1" vertex="1">
          <mxGeometry x="1035" y="80" width="5" height="200" as="geometry" />
        </mxCell>
        <mxCell id="kov3exJGOiLsOatTBzYe-348" value="" style="shape=flexArrow;endArrow=classic;html=1;rounded=0;fillColor=#000066;strokeColor=#000066;endWidth=7;endSize=6.38;entryX=0;entryY=0.5;entryDx=0;entryDy=0;" parent="1" edge="1">
          <mxGeometry width="50" height="50" relative="1" as="geometry">
            <mxPoint x="795" y="504.5" as="sourcePoint" />
            <mxPoint x="825.5" y="505" as="targetPoint" />
          </mxGeometry>
        </mxCell>
        <mxCell id="kov3exJGOiLsOatTBzYe-349" value="" style="shape=flexArrow;endArrow=classic;html=1;rounded=0;fillColor=#009999;strokeColor=#009999;endWidth=7;endSize=6.38;entryX=0;entryY=0.5;entryDx=0;entryDy=0;" parent="1" edge="1">
          <mxGeometry width="50" height="50" relative="1" as="geometry">
            <mxPoint x="1040" y="179.5" as="sourcePoint" />
            <mxPoint x="1070.5" y="180" as="targetPoint" />
          </mxGeometry>
        </mxCell>
        <mxCell id="kov3exJGOiLsOatTBzYe-350" value="" style="rounded=0;whiteSpace=wrap;html=1;fillColor=#dae8fc;strokeColor=#6c8ebf;" parent="1" vertex="1">
          <mxGeometry x="1072.5" y="80" width="2" height="200" as="geometry" />
        </mxCell>
        <mxCell id="kov3exJGOiLsOatTBzYe-351" value="$$16$$" style="text;html=1;align=center;verticalAlign=middle;resizable=0;points=[];autosize=1;strokeColor=none;fillColor=none;rotation=0;" parent="1" vertex="1">
          <mxGeometry x="962.5" y="50" width="70" height="30" as="geometry" />
        </mxCell>
        <mxCell id="kov3exJGOiLsOatTBzYe-352" value="$$16$$" style="text;html=1;align=center;verticalAlign=middle;resizable=0;points=[];autosize=1;strokeColor=none;fillColor=none;rotation=0;" parent="1" vertex="1">
          <mxGeometry x="1002.5" y="50" width="70" height="30" as="geometry" />
        </mxCell>
        <mxCell id="kov3exJGOiLsOatTBzYe-353" value="$$4$$" style="text;html=1;align=center;verticalAlign=middle;resizable=0;points=[];autosize=1;strokeColor=none;fillColor=none;rotation=0;" parent="1" vertex="1">
          <mxGeometry x="1043.5" y="50" width="60" height="30" as="geometry" />
        </mxCell>
        <mxCell id="kov3exJGOiLsOatTBzYe-354" value="" style="shape=flexArrow;endArrow=classic;html=1;rounded=0;fillColor=#000066;strokeColor=#000066;endWidth=7;endSize=6.38;entryX=0;entryY=0.5;entryDx=0;entryDy=0;" parent="1" edge="1">
          <mxGeometry width="50" height="50" relative="1" as="geometry">
            <mxPoint x="915" y="514.5" as="sourcePoint" />
            <mxPoint x="945.5" y="515" as="targetPoint" />
          </mxGeometry>
        </mxCell>
        <mxCell id="kov3exJGOiLsOatTBzYe-355" value="" style="shape=flexArrow;endArrow=classic;html=1;rounded=0;fillColor=#999999;strokeColor=#999999;endWidth=7;endSize=6.38;entryX=0;entryY=0.5;entryDx=0;entryDy=0;" parent="1" edge="1">
          <mxGeometry width="50" height="50" relative="1" as="geometry">
            <mxPoint x="915" y="544.5" as="sourcePoint" />
            <mxPoint x="945.5" y="545" as="targetPoint" />
          </mxGeometry>
        </mxCell>
        <mxCell id="kov3exJGOiLsOatTBzYe-357" value="" style="shape=flexArrow;endArrow=classic;html=1;rounded=0;fillColor=#660000;strokeColor=#660000;endWidth=7;endSize=6.38;" parent="1" edge="1">
          <mxGeometry width="50" height="50" relative="1" as="geometry">
            <mxPoint x="932.5" y="570" as="sourcePoint" />
            <mxPoint x="932.5" y="600" as="targetPoint" />
          </mxGeometry>
        </mxCell>
        <mxCell id="kov3exJGOiLsOatTBzYe-358" value="" style="shape=flexArrow;endArrow=classic;html=1;rounded=0;fillColor=#009900;strokeColor=#009900;endWidth=7;endSize=6.38;" parent="1" edge="1">
          <mxGeometry width="50" height="50" relative="1" as="geometry">
            <mxPoint x="932.5" y="637.5" as="sourcePoint" />
            <mxPoint x="932.5" y="608.5" as="targetPoint" />
          </mxGeometry>
        </mxCell>
        <mxCell id="kov3exJGOiLsOatTBzYe-359" value="" style="shape=flexArrow;endArrow=classic;html=1;rounded=0;fillColor=#009999;strokeColor=#009999;endWidth=7;endSize=6.38;entryX=0;entryY=0.5;entryDx=0;entryDy=0;" parent="1" edge="1">
          <mxGeometry width="50" height="50" relative="1" as="geometry">
            <mxPoint x="917" y="654.5" as="sourcePoint" />
            <mxPoint x="947.5" y="655" as="targetPoint" />
          </mxGeometry>
        </mxCell>
        <mxCell id="kov3exJGOiLsOatTBzYe-362" value="&lt;font style=&quot;font-size: 14px;&quot;&gt;$$512 \times 512$$&lt;/font&gt;" style="text;html=1;align=center;verticalAlign=middle;resizable=0;points=[];autosize=1;strokeColor=none;fillColor=none;rotation=-90;" parent="1" vertex="1">
          <mxGeometry x="990" y="230" width="150" height="30" as="geometry" />
        </mxCell>
        <mxCell id="kov3exJGOiLsOatTBzYe-363" value="&lt;font color=&quot;#0000cc&quot; style=&quot;font-size: 14px;&quot;&gt;conv 3x3, ReLU&lt;/font&gt;" style="text;html=1;align=center;verticalAlign=middle;resizable=0;points=[];autosize=1;strokeColor=none;fillColor=none;" parent="1" vertex="1">
          <mxGeometry x="947.5" y="500" width="120" height="30" as="geometry" />
        </mxCell>
        <mxCell id="kov3exJGOiLsOatTBzYe-364" value="&lt;font style=&quot;font-size: 14px;&quot; color=&quot;#666666&quot;&gt;copy and concat&lt;br&gt;&lt;/font&gt;" style="text;html=1;align=center;verticalAlign=middle;resizable=0;points=[];autosize=1;strokeColor=none;fillColor=none;" parent="1" vertex="1">
          <mxGeometry x="942.5" y="530" width="130" height="30" as="geometry" />
        </mxCell>
        <mxCell id="kov3exJGOiLsOatTBzYe-365" value="&lt;font color=&quot;#990000&quot; style=&quot;font-size: 14px;&quot;&gt;max pool 2x2&lt;/font&gt;&lt;font color=&quot;#990000&quot; style=&quot;font-size: 14px;&quot;&gt;&lt;br&gt;&lt;/font&gt;" style="text;html=1;align=center;verticalAlign=middle;resizable=0;points=[];autosize=1;strokeColor=none;fillColor=none;" parent="1" vertex="1">
          <mxGeometry x="942.5" y="570" width="110" height="30" as="geometry" />
        </mxCell>
        <mxCell id="kov3exJGOiLsOatTBzYe-366" value="&lt;font color=&quot;#009900&quot; style=&quot;font-size: 14px;&quot;&gt;bilinear upsampling&lt;/font&gt;&lt;font color=&quot;#009900&quot; style=&quot;font-size: 14px;&quot;&gt;&lt;br&gt;&lt;/font&gt;" style="text;html=1;align=center;verticalAlign=middle;resizable=0;points=[];autosize=1;strokeColor=none;fillColor=none;" parent="1" vertex="1">
          <mxGeometry x="942.5" y="610" width="150" height="30" as="geometry" />
        </mxCell>
        <mxCell id="kov3exJGOiLsOatTBzYe-367" value="&lt;font color=&quot;#009999&quot; style=&quot;font-size: 14px;&quot;&gt;conv 1x1&lt;br&gt;&lt;/font&gt;" style="text;html=1;align=center;verticalAlign=middle;resizable=0;points=[];autosize=1;strokeColor=none;fillColor=none;" parent="1" vertex="1">
          <mxGeometry x="945" y="640" width="80" height="30" as="geometry" />
        </mxCell>
        <mxCell id="kov3exJGOiLsOatTBzYe-371" value="" style="rounded=1;whiteSpace=wrap;html=1;fillColor=none;" parent="1" vertex="1">
          <mxGeometry x="902.5" y="490" width="190" height="190" as="geometry" />
        </mxCell>
        <mxCell id="0jLQMamWFt96zplDpg2h-1" value="" style="endArrow=none;dashed=1;html=1;dashPattern=1 3;strokeWidth=2;rounded=0;" edge="1" parent="1">
          <mxGeometry width="50" height="50" relative="1" as="geometry">
            <mxPoint x="660" y="660" as="sourcePoint" />
            <mxPoint x="1060" y="860" as="targetPoint" />
          </mxGeometry>
        </mxCell>
        <mxCell id="0jLQMamWFt96zplDpg2h-2" value="" style="endArrow=none;dashed=1;html=1;dashPattern=1 3;strokeWidth=2;rounded=0;" edge="1" parent="1">
          <mxGeometry width="50" height="50" relative="1" as="geometry">
            <mxPoint x="500" y="870" as="sourcePoint" />
            <mxPoint x="630" y="660" as="targetPoint" />
          </mxGeometry>
        </mxCell>
        <mxCell id="0jLQMamWFt96zplDpg2h-327" value="" style="group;movable=0;resizable=0;rotatable=0;deletable=0;editable=0;locked=1;connectable=0;" vertex="1" connectable="0" parent="1">
          <mxGeometry x="500" y="870" width="570" height="100" as="geometry" />
        </mxCell>
        <mxCell id="0jLQMamWFt96zplDpg2h-4" value="" style="shape=cube;whiteSpace=wrap;html=1;boundedLbl=1;backgroundOutline=1;darkOpacity=0.05;darkOpacity2=0.1;fillColor=#dae8fc;strokeColor=#6c8ebf;size=20;movable=1;resizable=1;rotatable=1;deletable=1;editable=1;locked=0;connectable=1;container=0;" vertex="1" parent="0jLQMamWFt96zplDpg2h-327">
          <mxGeometry x="560.8691782853753" width="9.13082171462474" height="100" as="geometry" />
        </mxCell>
        <mxCell id="0jLQMamWFt96zplDpg2h-28" value="" style="shape=cube;whiteSpace=wrap;html=1;boundedLbl=1;backgroundOutline=1;darkOpacity=0.05;darkOpacity2=0.1;fillColor=#dae8fc;strokeColor=#6c8ebf;size=20;movable=1;resizable=1;rotatable=1;deletable=1;editable=1;locked=0;connectable=1;container=0;" vertex="1" parent="0jLQMamWFt96zplDpg2h-327">
          <mxGeometry x="557.3183031741323" width="9.13082171462474" height="100" as="geometry" />
        </mxCell>
        <mxCell id="0jLQMamWFt96zplDpg2h-29" value="" style="shape=cube;whiteSpace=wrap;html=1;boundedLbl=1;backgroundOutline=1;darkOpacity=0.05;darkOpacity2=0.1;fillColor=#dae8fc;strokeColor=#6c8ebf;size=20;movable=1;resizable=1;rotatable=1;deletable=1;editable=1;locked=0;connectable=1;container=0;" vertex="1" parent="0jLQMamWFt96zplDpg2h-327">
          <mxGeometry x="553.0910708988431" width="9.13082171462474" height="100" as="geometry" />
        </mxCell>
        <mxCell id="0jLQMamWFt96zplDpg2h-30" value="" style="shape=cube;whiteSpace=wrap;html=1;boundedLbl=1;backgroundOutline=1;darkOpacity=0.05;darkOpacity2=0.1;fillColor=#dae8fc;strokeColor=#6c8ebf;size=20;movable=1;resizable=1;rotatable=1;deletable=1;editable=1;locked=0;connectable=1;container=0;" vertex="1" parent="0jLQMamWFt96zplDpg2h-327">
          <mxGeometry x="548.1874814595076" width="9.13082171462474" height="100" as="geometry" />
        </mxCell>
        <mxCell id="0jLQMamWFt96zplDpg2h-31" value="" style="shape=cube;whiteSpace=wrap;html=1;boundedLbl=1;backgroundOutline=1;darkOpacity=0.05;darkOpacity2=0.1;fillColor=#dae8fc;strokeColor=#6c8ebf;size=20;movable=1;resizable=1;rotatable=1;deletable=1;editable=1;locked=0;connectable=1;container=0;" vertex="1" parent="0jLQMamWFt96zplDpg2h-327">
          <mxGeometry x="543.9602491842184" width="9.13082171462474" height="100" as="geometry" />
        </mxCell>
        <mxCell id="0jLQMamWFt96zplDpg2h-32" value="" style="shape=cube;whiteSpace=wrap;html=1;boundedLbl=1;backgroundOutline=1;darkOpacity=0.05;darkOpacity2=0.1;fillColor=#dae8fc;strokeColor=#6c8ebf;size=20;movable=1;resizable=1;rotatable=1;deletable=1;editable=1;locked=0;connectable=1;container=0;" vertex="1" parent="0jLQMamWFt96zplDpg2h-327">
          <mxGeometry x="539.0566597448828" width="9.13082171462474" height="100" as="geometry" />
        </mxCell>
        <mxCell id="0jLQMamWFt96zplDpg2h-33" value="" style="shape=cube;whiteSpace=wrap;html=1;boundedLbl=1;backgroundOutline=1;darkOpacity=0.05;darkOpacity2=0.1;fillColor=#dae8fc;strokeColor=#6c8ebf;size=20;movable=1;resizable=1;rotatable=1;deletable=1;editable=1;locked=0;connectable=1;container=0;" vertex="1" parent="0jLQMamWFt96zplDpg2h-327">
          <mxGeometry x="534.8294274695936" width="9.13082171462474" height="100" as="geometry" />
        </mxCell>
        <mxCell id="0jLQMamWFt96zplDpg2h-34" value="" style="shape=cube;whiteSpace=wrap;html=1;boundedLbl=1;backgroundOutline=1;darkOpacity=0.05;darkOpacity2=0.1;fillColor=#dae8fc;strokeColor=#6c8ebf;size=20;movable=1;resizable=1;rotatable=1;deletable=1;editable=1;locked=0;connectable=1;container=0;" vertex="1" parent="0jLQMamWFt96zplDpg2h-327">
          <mxGeometry x="529.9258380302581" width="9.13082171462474" height="100" as="geometry" />
        </mxCell>
        <mxCell id="0jLQMamWFt96zplDpg2h-43" value="" style="shape=cube;whiteSpace=wrap;html=1;boundedLbl=1;backgroundOutline=1;darkOpacity=0.05;darkOpacity2=0.1;fillColor=#dae8fc;strokeColor=#6c8ebf;size=20;movable=1;resizable=1;rotatable=1;deletable=1;editable=1;locked=0;connectable=1;container=0;" vertex="1" parent="0jLQMamWFt96zplDpg2h-327">
          <mxGeometry x="525.6986057549689" width="9.13082171462474" height="100" as="geometry" />
        </mxCell>
        <mxCell id="0jLQMamWFt96zplDpg2h-44" value="" style="shape=cube;whiteSpace=wrap;html=1;boundedLbl=1;backgroundOutline=1;darkOpacity=0.05;darkOpacity2=0.1;fillColor=#dae8fc;strokeColor=#6c8ebf;size=20;movable=1;resizable=1;rotatable=1;deletable=1;editable=1;locked=0;connectable=1;container=0;" vertex="1" parent="0jLQMamWFt96zplDpg2h-327">
          <mxGeometry x="522.1477306437259" width="9.13082171462474" height="100" as="geometry" />
        </mxCell>
        <mxCell id="0jLQMamWFt96zplDpg2h-45" value="" style="shape=cube;whiteSpace=wrap;html=1;boundedLbl=1;backgroundOutline=1;darkOpacity=0.05;darkOpacity2=0.1;fillColor=#dae8fc;strokeColor=#6c8ebf;size=20;movable=1;resizable=1;rotatable=1;deletable=1;editable=1;locked=0;connectable=1;container=0;" vertex="1" parent="0jLQMamWFt96zplDpg2h-327">
          <mxGeometry x="517.9204983684367" width="9.13082171462474" height="100" as="geometry" />
        </mxCell>
        <mxCell id="0jLQMamWFt96zplDpg2h-46" value="" style="shape=cube;whiteSpace=wrap;html=1;boundedLbl=1;backgroundOutline=1;darkOpacity=0.05;darkOpacity2=0.1;fillColor=#dae8fc;strokeColor=#6c8ebf;size=20;movable=1;resizable=1;rotatable=1;deletable=1;editable=1;locked=0;connectable=1;container=0;" vertex="1" parent="0jLQMamWFt96zplDpg2h-327">
          <mxGeometry x="513.0169089291012" width="9.13082171462474" height="100" as="geometry" />
        </mxCell>
        <mxCell id="0jLQMamWFt96zplDpg2h-47" value="" style="shape=cube;whiteSpace=wrap;html=1;boundedLbl=1;backgroundOutline=1;darkOpacity=0.05;darkOpacity2=0.1;fillColor=#dae8fc;strokeColor=#6c8ebf;size=20;movable=1;resizable=1;rotatable=1;deletable=1;editable=1;locked=0;connectable=1;container=0;" vertex="1" parent="0jLQMamWFt96zplDpg2h-327">
          <mxGeometry x="508.78967665381197" width="9.13082171462474" height="100" as="geometry" />
        </mxCell>
        <mxCell id="0jLQMamWFt96zplDpg2h-48" value="" style="shape=cube;whiteSpace=wrap;html=1;boundedLbl=1;backgroundOutline=1;darkOpacity=0.05;darkOpacity2=0.1;fillColor=#dae8fc;strokeColor=#6c8ebf;size=20;movable=1;resizable=1;rotatable=1;deletable=1;editable=1;locked=0;connectable=1;container=0;" vertex="1" parent="0jLQMamWFt96zplDpg2h-327">
          <mxGeometry x="503.88608721447645" width="9.13082171462474" height="100" as="geometry" />
        </mxCell>
        <mxCell id="0jLQMamWFt96zplDpg2h-49" value="" style="shape=cube;whiteSpace=wrap;html=1;boundedLbl=1;backgroundOutline=1;darkOpacity=0.05;darkOpacity2=0.1;fillColor=#dae8fc;strokeColor=#6c8ebf;size=20;movable=1;resizable=1;rotatable=1;deletable=1;editable=1;locked=0;connectable=1;container=0;" vertex="1" parent="0jLQMamWFt96zplDpg2h-327">
          <mxGeometry x="499.6588549391872" width="9.13082171462474" height="100" as="geometry" />
        </mxCell>
        <mxCell id="0jLQMamWFt96zplDpg2h-50" value="" style="shape=cube;whiteSpace=wrap;html=1;boundedLbl=1;backgroundOutline=1;darkOpacity=0.05;darkOpacity2=0.1;fillColor=#dae8fc;strokeColor=#6c8ebf;size=20;movable=1;resizable=1;rotatable=1;deletable=1;editable=1;locked=0;connectable=1;container=0;" vertex="1" parent="0jLQMamWFt96zplDpg2h-327">
          <mxGeometry x="494.7552654998517" width="9.13082171462474" height="100" as="geometry" />
        </mxCell>
        <mxCell id="0jLQMamWFt96zplDpg2h-51" value="" style="shape=cube;whiteSpace=wrap;html=1;boundedLbl=1;backgroundOutline=1;darkOpacity=0.05;darkOpacity2=0.1;fillColor=#dae8fc;strokeColor=#6c8ebf;size=20;movable=1;resizable=1;rotatable=1;deletable=1;editable=1;locked=0;connectable=1;container=0;" vertex="1" parent="0jLQMamWFt96zplDpg2h-327">
          <mxGeometry x="490.5280332245625" width="9.13082171462474" height="100" as="geometry" />
        </mxCell>
        <mxCell id="0jLQMamWFt96zplDpg2h-52" value="" style="shape=cube;whiteSpace=wrap;html=1;boundedLbl=1;backgroundOutline=1;darkOpacity=0.05;darkOpacity2=0.1;fillColor=#dae8fc;strokeColor=#6c8ebf;size=20;movable=1;resizable=1;rotatable=1;deletable=1;editable=1;locked=0;connectable=1;container=0;" vertex="1" parent="0jLQMamWFt96zplDpg2h-327">
          <mxGeometry x="486.9771581133193" width="9.13082171462474" height="100" as="geometry" />
        </mxCell>
        <mxCell id="0jLQMamWFt96zplDpg2h-53" value="" style="shape=cube;whiteSpace=wrap;html=1;boundedLbl=1;backgroundOutline=1;darkOpacity=0.05;darkOpacity2=0.1;fillColor=#dae8fc;strokeColor=#6c8ebf;size=20;movable=1;resizable=1;rotatable=1;deletable=1;editable=1;locked=0;connectable=1;container=0;" vertex="1" parent="0jLQMamWFt96zplDpg2h-327">
          <mxGeometry x="482.7499258380303" width="9.13082171462474" height="100" as="geometry" />
        </mxCell>
        <mxCell id="0jLQMamWFt96zplDpg2h-54" value="" style="shape=cube;whiteSpace=wrap;html=1;boundedLbl=1;backgroundOutline=1;darkOpacity=0.05;darkOpacity2=0.1;fillColor=#dae8fc;strokeColor=#6c8ebf;size=20;movable=1;resizable=1;rotatable=1;deletable=1;editable=1;locked=0;connectable=1;container=0;" vertex="1" parent="0jLQMamWFt96zplDpg2h-327">
          <mxGeometry x="477.8463363986948" width="9.13082171462474" height="100" as="geometry" />
        </mxCell>
        <mxCell id="0jLQMamWFt96zplDpg2h-55" value="" style="shape=cube;whiteSpace=wrap;html=1;boundedLbl=1;backgroundOutline=1;darkOpacity=0.05;darkOpacity2=0.1;fillColor=#dae8fc;strokeColor=#6c8ebf;size=20;movable=1;resizable=1;rotatable=1;deletable=1;editable=1;locked=0;connectable=1;container=0;" vertex="1" parent="0jLQMamWFt96zplDpg2h-327">
          <mxGeometry x="473.6191041234056" width="9.13082171462474" height="100" as="geometry" />
        </mxCell>
        <mxCell id="0jLQMamWFt96zplDpg2h-56" value="" style="shape=cube;whiteSpace=wrap;html=1;boundedLbl=1;backgroundOutline=1;darkOpacity=0.05;darkOpacity2=0.1;fillColor=#dae8fc;strokeColor=#6c8ebf;size=20;movable=1;resizable=1;rotatable=1;deletable=1;editable=1;locked=0;connectable=1;container=0;" vertex="1" parent="0jLQMamWFt96zplDpg2h-327">
          <mxGeometry x="468.71551468407006" width="9.13082171462474" height="100" as="geometry" />
        </mxCell>
        <mxCell id="0jLQMamWFt96zplDpg2h-57" value="" style="shape=cube;whiteSpace=wrap;html=1;boundedLbl=1;backgroundOutline=1;darkOpacity=0.05;darkOpacity2=0.1;fillColor=#dae8fc;strokeColor=#6c8ebf;size=20;movable=1;resizable=1;rotatable=1;deletable=1;editable=1;locked=0;connectable=1;container=0;" vertex="1" parent="0jLQMamWFt96zplDpg2h-327">
          <mxGeometry x="464.48828240878083" width="9.13082171462474" height="100" as="geometry" />
        </mxCell>
        <mxCell id="0jLQMamWFt96zplDpg2h-58" value="" style="shape=cube;whiteSpace=wrap;html=1;boundedLbl=1;backgroundOutline=1;darkOpacity=0.05;darkOpacity2=0.1;fillColor=#dae8fc;strokeColor=#6c8ebf;size=20;movable=1;resizable=1;rotatable=1;deletable=1;editable=1;locked=0;connectable=1;container=0;" vertex="1" parent="0jLQMamWFt96zplDpg2h-327">
          <mxGeometry x="459.5846929694453" width="9.13082171462474" height="100" as="geometry" />
        </mxCell>
        <mxCell id="0jLQMamWFt96zplDpg2h-59" value="" style="shape=cube;whiteSpace=wrap;html=1;boundedLbl=1;backgroundOutline=1;darkOpacity=0.05;darkOpacity2=0.1;fillColor=#dae8fc;strokeColor=#6c8ebf;size=20;movable=1;resizable=1;rotatable=1;deletable=1;editable=1;locked=0;connectable=1;container=0;" vertex="1" parent="0jLQMamWFt96zplDpg2h-327">
          <mxGeometry x="455.3574606941561" width="9.13082171462474" height="100" as="geometry" />
        </mxCell>
        <mxCell id="0jLQMamWFt96zplDpg2h-60" value="" style="shape=cube;whiteSpace=wrap;html=1;boundedLbl=1;backgroundOutline=1;darkOpacity=0.05;darkOpacity2=0.1;fillColor=#dae8fc;strokeColor=#6c8ebf;size=20;movable=1;resizable=1;rotatable=1;deletable=1;editable=1;locked=0;connectable=1;container=0;" vertex="1" parent="0jLQMamWFt96zplDpg2h-327">
          <mxGeometry x="451.80658558291316" width="9.13082171462474" height="100" as="geometry" />
        </mxCell>
        <mxCell id="0jLQMamWFt96zplDpg2h-61" value="" style="shape=cube;whiteSpace=wrap;html=1;boundedLbl=1;backgroundOutline=1;darkOpacity=0.05;darkOpacity2=0.1;fillColor=#dae8fc;strokeColor=#6c8ebf;size=20;movable=1;resizable=1;rotatable=1;deletable=1;editable=1;locked=0;connectable=1;container=0;" vertex="1" parent="0jLQMamWFt96zplDpg2h-327">
          <mxGeometry x="447.57935330762393" width="9.13082171462474" height="100" as="geometry" />
        </mxCell>
        <mxCell id="0jLQMamWFt96zplDpg2h-62" value="" style="shape=cube;whiteSpace=wrap;html=1;boundedLbl=1;backgroundOutline=1;darkOpacity=0.05;darkOpacity2=0.1;fillColor=#dae8fc;strokeColor=#6c8ebf;size=20;movable=1;resizable=1;rotatable=1;deletable=1;editable=1;locked=0;connectable=1;container=0;" vertex="1" parent="0jLQMamWFt96zplDpg2h-327">
          <mxGeometry x="442.6757638682883" width="9.13082171462474" height="100" as="geometry" />
        </mxCell>
        <mxCell id="0jLQMamWFt96zplDpg2h-63" value="" style="shape=cube;whiteSpace=wrap;html=1;boundedLbl=1;backgroundOutline=1;darkOpacity=0.05;darkOpacity2=0.1;fillColor=#dae8fc;strokeColor=#6c8ebf;size=20;movable=1;resizable=1;rotatable=1;deletable=1;editable=1;locked=0;connectable=1;container=0;" vertex="1" parent="0jLQMamWFt96zplDpg2h-327">
          <mxGeometry x="438.4485315929991" width="9.13082171462474" height="100" as="geometry" />
        </mxCell>
        <mxCell id="0jLQMamWFt96zplDpg2h-64" value="" style="shape=cube;whiteSpace=wrap;html=1;boundedLbl=1;backgroundOutline=1;darkOpacity=0.05;darkOpacity2=0.1;fillColor=#dae8fc;strokeColor=#6c8ebf;size=20;movable=1;resizable=1;rotatable=1;deletable=1;editable=1;locked=0;connectable=1;container=0;" vertex="1" parent="0jLQMamWFt96zplDpg2h-327">
          <mxGeometry x="433.5449421536638" width="9.13082171462474" height="100" as="geometry" />
        </mxCell>
        <mxCell id="0jLQMamWFt96zplDpg2h-65" value="" style="shape=cube;whiteSpace=wrap;html=1;boundedLbl=1;backgroundOutline=1;darkOpacity=0.05;darkOpacity2=0.1;fillColor=#dae8fc;strokeColor=#6c8ebf;size=20;movable=1;resizable=1;rotatable=1;deletable=1;editable=1;locked=0;connectable=1;container=0;" vertex="1" parent="0jLQMamWFt96zplDpg2h-327">
          <mxGeometry x="429.31770987837444" width="9.13082171462474" height="100" as="geometry" />
        </mxCell>
        <mxCell id="0jLQMamWFt96zplDpg2h-66" value="" style="shape=cube;whiteSpace=wrap;html=1;boundedLbl=1;backgroundOutline=1;darkOpacity=0.05;darkOpacity2=0.1;fillColor=#dae8fc;strokeColor=#6c8ebf;size=20;movable=1;resizable=1;rotatable=1;deletable=1;editable=1;locked=0;connectable=1;container=0;" vertex="1" parent="0jLQMamWFt96zplDpg2h-327">
          <mxGeometry x="424.4141204390389" width="9.13082171462474" height="100" as="geometry" />
        </mxCell>
        <mxCell id="0jLQMamWFt96zplDpg2h-99" value="" style="shape=cube;whiteSpace=wrap;html=1;boundedLbl=1;backgroundOutline=1;darkOpacity=0.05;darkOpacity2=0.1;fillColor=#dae8fc;strokeColor=#6c8ebf;size=20;movable=1;resizable=1;rotatable=1;deletable=1;editable=1;locked=0;connectable=1;container=0;" vertex="1" parent="0jLQMamWFt96zplDpg2h-327">
          <mxGeometry x="419.00326312666857" width="9.13082171462474" height="100" as="geometry" />
        </mxCell>
        <mxCell id="0jLQMamWFt96zplDpg2h-100" value="" style="shape=cube;whiteSpace=wrap;html=1;boundedLbl=1;backgroundOutline=1;darkOpacity=0.05;darkOpacity2=0.1;fillColor=#dae8fc;strokeColor=#6c8ebf;size=20;movable=1;resizable=1;rotatable=1;deletable=1;editable=1;locked=0;connectable=1;container=0;" vertex="1" parent="0jLQMamWFt96zplDpg2h-327">
          <mxGeometry x="415.45238801542575" width="9.13082171462474" height="100" as="geometry" />
        </mxCell>
        <mxCell id="0jLQMamWFt96zplDpg2h-101" value="" style="shape=cube;whiteSpace=wrap;html=1;boundedLbl=1;backgroundOutline=1;darkOpacity=0.05;darkOpacity2=0.1;fillColor=#dae8fc;strokeColor=#6c8ebf;size=20;movable=1;resizable=1;rotatable=1;deletable=1;editable=1;locked=0;connectable=1;container=0;" vertex="1" parent="0jLQMamWFt96zplDpg2h-327">
          <mxGeometry x="411.2251557401364" width="9.13082171462474" height="100" as="geometry" />
        </mxCell>
        <mxCell id="0jLQMamWFt96zplDpg2h-102" value="" style="shape=cube;whiteSpace=wrap;html=1;boundedLbl=1;backgroundOutline=1;darkOpacity=0.05;darkOpacity2=0.1;fillColor=#dae8fc;strokeColor=#6c8ebf;size=20;movable=1;resizable=1;rotatable=1;deletable=1;editable=1;locked=0;connectable=1;container=0;" vertex="1" parent="0jLQMamWFt96zplDpg2h-327">
          <mxGeometry x="406.3215663008009" width="9.13082171462474" height="100" as="geometry" />
        </mxCell>
        <mxCell id="0jLQMamWFt96zplDpg2h-103" value="" style="shape=cube;whiteSpace=wrap;html=1;boundedLbl=1;backgroundOutline=1;darkOpacity=0.05;darkOpacity2=0.1;fillColor=#dae8fc;strokeColor=#6c8ebf;size=20;movable=1;resizable=1;rotatable=1;deletable=1;editable=1;locked=0;connectable=1;container=0;" vertex="1" parent="0jLQMamWFt96zplDpg2h-327">
          <mxGeometry x="402.09433402551167" width="9.13082171462474" height="100" as="geometry" />
        </mxCell>
        <mxCell id="0jLQMamWFt96zplDpg2h-104" value="" style="shape=cube;whiteSpace=wrap;html=1;boundedLbl=1;backgroundOutline=1;darkOpacity=0.05;darkOpacity2=0.1;fillColor=#dae8fc;strokeColor=#6c8ebf;size=20;movable=1;resizable=1;rotatable=1;deletable=1;editable=1;locked=0;connectable=1;container=0;" vertex="1" parent="0jLQMamWFt96zplDpg2h-327">
          <mxGeometry x="397.19074458617627" width="9.13082171462474" height="100" as="geometry" />
        </mxCell>
        <mxCell id="0jLQMamWFt96zplDpg2h-105" value="" style="shape=cube;whiteSpace=wrap;html=1;boundedLbl=1;backgroundOutline=1;darkOpacity=0.05;darkOpacity2=0.1;fillColor=#dae8fc;strokeColor=#6c8ebf;size=20;movable=1;resizable=1;rotatable=1;deletable=1;editable=1;locked=0;connectable=1;container=0;" vertex="1" parent="0jLQMamWFt96zplDpg2h-327">
          <mxGeometry x="392.96351231088704" width="9.13082171462474" height="100" as="geometry" />
        </mxCell>
        <mxCell id="0jLQMamWFt96zplDpg2h-106" value="" style="shape=cube;whiteSpace=wrap;html=1;boundedLbl=1;backgroundOutline=1;darkOpacity=0.05;darkOpacity2=0.1;fillColor=#dae8fc;strokeColor=#6c8ebf;size=20;movable=1;resizable=1;rotatable=1;deletable=1;editable=1;locked=0;connectable=1;container=0;" vertex="1" parent="0jLQMamWFt96zplDpg2h-327">
          <mxGeometry x="388.05992287155163" width="9.13082171462474" height="100" as="geometry" />
        </mxCell>
        <mxCell id="0jLQMamWFt96zplDpg2h-107" value="" style="shape=cube;whiteSpace=wrap;html=1;boundedLbl=1;backgroundOutline=1;darkOpacity=0.05;darkOpacity2=0.1;fillColor=#dae8fc;strokeColor=#6c8ebf;size=20;movable=1;resizable=1;rotatable=1;deletable=1;editable=1;locked=0;connectable=1;container=0;" vertex="1" parent="0jLQMamWFt96zplDpg2h-327">
          <mxGeometry x="383.8326905962622" width="9.13082171462474" height="100" as="geometry" />
        </mxCell>
        <mxCell id="0jLQMamWFt96zplDpg2h-108" value="" style="shape=cube;whiteSpace=wrap;html=1;boundedLbl=1;backgroundOutline=1;darkOpacity=0.05;darkOpacity2=0.1;fillColor=#dae8fc;strokeColor=#6c8ebf;size=20;movable=1;resizable=1;rotatable=1;deletable=1;editable=1;locked=0;connectable=1;container=0;" vertex="1" parent="0jLQMamWFt96zplDpg2h-327">
          <mxGeometry x="380.28181548501925" width="9.13082171462474" height="100" as="geometry" />
        </mxCell>
        <mxCell id="0jLQMamWFt96zplDpg2h-109" value="" style="shape=cube;whiteSpace=wrap;html=1;boundedLbl=1;backgroundOutline=1;darkOpacity=0.05;darkOpacity2=0.1;fillColor=#dae8fc;strokeColor=#6c8ebf;size=20;movable=1;resizable=1;rotatable=1;deletable=1;editable=1;locked=0;connectable=1;container=0;" vertex="1" parent="0jLQMamWFt96zplDpg2h-327">
          <mxGeometry x="376.05458320973014" width="9.13082171462474" height="100" as="geometry" />
        </mxCell>
        <mxCell id="0jLQMamWFt96zplDpg2h-110" value="" style="shape=cube;whiteSpace=wrap;html=1;boundedLbl=1;backgroundOutline=1;darkOpacity=0.05;darkOpacity2=0.1;fillColor=#dae8fc;strokeColor=#6c8ebf;size=20;movable=1;resizable=1;rotatable=1;deletable=1;editable=1;locked=0;connectable=1;container=0;" vertex="1" parent="0jLQMamWFt96zplDpg2h-327">
          <mxGeometry x="371.1509937703945" width="9.13082171462474" height="100" as="geometry" />
        </mxCell>
        <mxCell id="0jLQMamWFt96zplDpg2h-111" value="" style="shape=cube;whiteSpace=wrap;html=1;boundedLbl=1;backgroundOutline=1;darkOpacity=0.05;darkOpacity2=0.1;fillColor=#dae8fc;strokeColor=#6c8ebf;size=20;movable=1;resizable=1;rotatable=1;deletable=1;editable=1;locked=0;connectable=1;container=0;" vertex="1" parent="0jLQMamWFt96zplDpg2h-327">
          <mxGeometry x="366.9237614951053" width="9.13082171462474" height="100" as="geometry" />
        </mxCell>
        <mxCell id="0jLQMamWFt96zplDpg2h-112" value="" style="shape=cube;whiteSpace=wrap;html=1;boundedLbl=1;backgroundOutline=1;darkOpacity=0.05;darkOpacity2=0.1;fillColor=#dae8fc;strokeColor=#6c8ebf;size=20;movable=1;resizable=1;rotatable=1;deletable=1;editable=1;locked=0;connectable=1;container=0;" vertex="1" parent="0jLQMamWFt96zplDpg2h-327">
          <mxGeometry x="362.0201720557699" width="9.13082171462474" height="100" as="geometry" />
        </mxCell>
        <mxCell id="0jLQMamWFt96zplDpg2h-113" value="" style="shape=cube;whiteSpace=wrap;html=1;boundedLbl=1;backgroundOutline=1;darkOpacity=0.05;darkOpacity2=0.1;fillColor=#dae8fc;strokeColor=#6c8ebf;size=20;movable=1;resizable=1;rotatable=1;deletable=1;editable=1;locked=0;connectable=1;container=0;" vertex="1" parent="0jLQMamWFt96zplDpg2h-327">
          <mxGeometry x="357.79293978048065" width="9.13082171462474" height="100" as="geometry" />
        </mxCell>
        <mxCell id="0jLQMamWFt96zplDpg2h-114" value="" style="shape=cube;whiteSpace=wrap;html=1;boundedLbl=1;backgroundOutline=1;darkOpacity=0.05;darkOpacity2=0.1;fillColor=#dae8fc;strokeColor=#6c8ebf;size=20;movable=1;resizable=1;rotatable=1;deletable=1;editable=1;locked=0;connectable=1;container=0;" vertex="1" parent="0jLQMamWFt96zplDpg2h-327">
          <mxGeometry x="352.889350341145" width="9.13082171462474" height="100" as="geometry" />
        </mxCell>
        <mxCell id="0jLQMamWFt96zplDpg2h-115" value="" style="shape=cube;whiteSpace=wrap;html=1;boundedLbl=1;backgroundOutline=1;darkOpacity=0.05;darkOpacity2=0.1;fillColor=#dae8fc;strokeColor=#6c8ebf;size=20;movable=1;resizable=1;rotatable=1;deletable=1;editable=1;locked=0;connectable=1;container=0;" vertex="1" parent="0jLQMamWFt96zplDpg2h-327">
          <mxGeometry x="348.6621180658558" width="9.13082171462474" height="100" as="geometry" />
        </mxCell>
        <mxCell id="0jLQMamWFt96zplDpg2h-116" value="" style="shape=cube;whiteSpace=wrap;html=1;boundedLbl=1;backgroundOutline=1;darkOpacity=0.05;darkOpacity2=0.1;fillColor=#dae8fc;strokeColor=#6c8ebf;size=20;movable=1;resizable=1;rotatable=1;deletable=1;editable=1;locked=0;connectable=1;container=0;" vertex="1" parent="0jLQMamWFt96zplDpg2h-327">
          <mxGeometry x="345.111242954613" width="9.13082171462474" height="100" as="geometry" />
        </mxCell>
        <mxCell id="0jLQMamWFt96zplDpg2h-117" value="" style="shape=cube;whiteSpace=wrap;html=1;boundedLbl=1;backgroundOutline=1;darkOpacity=0.05;darkOpacity2=0.1;fillColor=#dae8fc;strokeColor=#6c8ebf;size=20;movable=1;resizable=1;rotatable=1;deletable=1;editable=1;locked=0;connectable=1;container=0;" vertex="1" parent="0jLQMamWFt96zplDpg2h-327">
          <mxGeometry x="340.88401067932364" width="9.13082171462474" height="100" as="geometry" />
        </mxCell>
        <mxCell id="0jLQMamWFt96zplDpg2h-118" value="" style="shape=cube;whiteSpace=wrap;html=1;boundedLbl=1;backgroundOutline=1;darkOpacity=0.05;darkOpacity2=0.1;fillColor=#dae8fc;strokeColor=#6c8ebf;size=20;movable=1;resizable=1;rotatable=1;deletable=1;editable=1;locked=0;connectable=1;container=0;" vertex="1" parent="0jLQMamWFt96zplDpg2h-327">
          <mxGeometry x="335.9804212399881" width="9.13082171462474" height="100" as="geometry" />
        </mxCell>
        <mxCell id="0jLQMamWFt96zplDpg2h-119" value="" style="shape=cube;whiteSpace=wrap;html=1;boundedLbl=1;backgroundOutline=1;darkOpacity=0.05;darkOpacity2=0.1;fillColor=#dae8fc;strokeColor=#6c8ebf;size=20;movable=1;resizable=1;rotatable=1;deletable=1;editable=1;locked=0;connectable=1;container=0;" vertex="1" parent="0jLQMamWFt96zplDpg2h-327">
          <mxGeometry x="331.7531889646989" width="9.13082171462474" height="100" as="geometry" />
        </mxCell>
        <mxCell id="0jLQMamWFt96zplDpg2h-120" value="" style="shape=cube;whiteSpace=wrap;html=1;boundedLbl=1;backgroundOutline=1;darkOpacity=0.05;darkOpacity2=0.1;fillColor=#dae8fc;strokeColor=#6c8ebf;size=20;movable=1;resizable=1;rotatable=1;deletable=1;editable=1;locked=0;connectable=1;container=0;" vertex="1" parent="0jLQMamWFt96zplDpg2h-327">
          <mxGeometry x="326.8495995253634" width="9.13082171462474" height="100" as="geometry" />
        </mxCell>
        <mxCell id="0jLQMamWFt96zplDpg2h-121" value="" style="shape=cube;whiteSpace=wrap;html=1;boundedLbl=1;backgroundOutline=1;darkOpacity=0.05;darkOpacity2=0.1;fillColor=#dae8fc;strokeColor=#6c8ebf;size=20;movable=1;resizable=1;rotatable=1;deletable=1;editable=1;locked=0;connectable=1;container=0;" vertex="1" parent="0jLQMamWFt96zplDpg2h-327">
          <mxGeometry x="322.62236725007415" width="9.13082171462474" height="100" as="geometry" />
        </mxCell>
        <mxCell id="0jLQMamWFt96zplDpg2h-122" value="" style="shape=cube;whiteSpace=wrap;html=1;boundedLbl=1;backgroundOutline=1;darkOpacity=0.05;darkOpacity2=0.1;fillColor=#dae8fc;strokeColor=#6c8ebf;size=20;movable=1;resizable=1;rotatable=1;deletable=1;editable=1;locked=0;connectable=1;container=0;" vertex="1" parent="0jLQMamWFt96zplDpg2h-327">
          <mxGeometry x="317.71877781073863" width="9.13082171462474" height="100" as="geometry" />
        </mxCell>
        <mxCell id="0jLQMamWFt96zplDpg2h-123" value="" style="shape=cube;whiteSpace=wrap;html=1;boundedLbl=1;backgroundOutline=1;darkOpacity=0.05;darkOpacity2=0.1;fillColor=#dae8fc;strokeColor=#6c8ebf;size=20;movable=1;resizable=1;rotatable=1;deletable=1;editable=1;locked=0;connectable=1;container=0;" vertex="1" parent="0jLQMamWFt96zplDpg2h-327">
          <mxGeometry x="313.4915455354494" width="9.13082171462474" height="100" as="geometry" />
        </mxCell>
        <mxCell id="0jLQMamWFt96zplDpg2h-124" value="" style="shape=cube;whiteSpace=wrap;html=1;boundedLbl=1;backgroundOutline=1;darkOpacity=0.05;darkOpacity2=0.1;fillColor=#dae8fc;strokeColor=#6c8ebf;size=20;movable=1;resizable=1;rotatable=1;deletable=1;editable=1;locked=0;connectable=1;container=0;" vertex="1" parent="0jLQMamWFt96zplDpg2h-327">
          <mxGeometry x="309.9406704242065" width="9.13082171462474" height="100" as="geometry" />
        </mxCell>
        <mxCell id="0jLQMamWFt96zplDpg2h-125" value="" style="shape=cube;whiteSpace=wrap;html=1;boundedLbl=1;backgroundOutline=1;darkOpacity=0.05;darkOpacity2=0.1;fillColor=#dae8fc;strokeColor=#6c8ebf;size=20;movable=1;resizable=1;rotatable=1;deletable=1;editable=1;locked=0;connectable=1;container=0;" vertex="1" parent="0jLQMamWFt96zplDpg2h-327">
          <mxGeometry x="305.71343814891725" width="9.13082171462474" height="100" as="geometry" />
        </mxCell>
        <mxCell id="0jLQMamWFt96zplDpg2h-126" value="" style="shape=cube;whiteSpace=wrap;html=1;boundedLbl=1;backgroundOutline=1;darkOpacity=0.05;darkOpacity2=0.1;fillColor=#dae8fc;strokeColor=#6c8ebf;size=20;movable=1;resizable=1;rotatable=1;deletable=1;editable=1;locked=0;connectable=1;container=0;" vertex="1" parent="0jLQMamWFt96zplDpg2h-327">
          <mxGeometry x="300.80984870958173" width="9.13082171462474" height="100" as="geometry" />
        </mxCell>
        <mxCell id="0jLQMamWFt96zplDpg2h-127" value="" style="shape=cube;whiteSpace=wrap;html=1;boundedLbl=1;backgroundOutline=1;darkOpacity=0.05;darkOpacity2=0.1;fillColor=#dae8fc;strokeColor=#6c8ebf;size=20;movable=1;resizable=1;rotatable=1;deletable=1;editable=1;locked=0;connectable=1;container=0;" vertex="1" parent="0jLQMamWFt96zplDpg2h-327">
          <mxGeometry x="296.5826164342925" width="9.13082171462474" height="100" as="geometry" />
        </mxCell>
        <mxCell id="0jLQMamWFt96zplDpg2h-128" value="" style="shape=cube;whiteSpace=wrap;html=1;boundedLbl=1;backgroundOutline=1;darkOpacity=0.05;darkOpacity2=0.1;fillColor=#dae8fc;strokeColor=#6c8ebf;size=20;movable=1;resizable=1;rotatable=1;deletable=1;editable=1;locked=0;connectable=1;container=0;" vertex="1" parent="0jLQMamWFt96zplDpg2h-327">
          <mxGeometry x="291.6790269949571" width="9.13082171462474" height="100" as="geometry" />
        </mxCell>
        <mxCell id="0jLQMamWFt96zplDpg2h-129" value="" style="shape=cube;whiteSpace=wrap;html=1;boundedLbl=1;backgroundOutline=1;darkOpacity=0.05;darkOpacity2=0.1;fillColor=#dae8fc;strokeColor=#6c8ebf;size=20;movable=1;resizable=1;rotatable=1;deletable=1;editable=1;locked=0;connectable=1;container=0;" vertex="1" parent="0jLQMamWFt96zplDpg2h-327">
          <mxGeometry x="287.45179471966776" width="9.13082171462474" height="100" as="geometry" />
        </mxCell>
        <mxCell id="0jLQMamWFt96zplDpg2h-130" value="" style="shape=cube;whiteSpace=wrap;html=1;boundedLbl=1;backgroundOutline=1;darkOpacity=0.05;darkOpacity2=0.1;fillColor=#dae8fc;strokeColor=#6c8ebf;size=20;movable=1;resizable=1;rotatable=1;deletable=1;editable=1;locked=0;connectable=1;container=0;" vertex="1" parent="0jLQMamWFt96zplDpg2h-327">
          <mxGeometry x="282.54820528033224" width="9.13082171462474" height="100" as="geometry" />
        </mxCell>
        <mxCell id="0jLQMamWFt96zplDpg2h-131" value="" style="shape=cube;whiteSpace=wrap;html=1;boundedLbl=1;backgroundOutline=1;darkOpacity=0.05;darkOpacity2=0.1;fillColor=#dae8fc;strokeColor=#6c8ebf;size=20;movable=1;resizable=1;rotatable=1;deletable=1;editable=1;locked=0;connectable=1;container=0;" vertex="1" parent="0jLQMamWFt96zplDpg2h-327">
          <mxGeometry x="278.320973005043" width="9.13082171462474" height="100" as="geometry" />
        </mxCell>
        <mxCell id="0jLQMamWFt96zplDpg2h-132" value="" style="shape=cube;whiteSpace=wrap;html=1;boundedLbl=1;backgroundOutline=1;darkOpacity=0.05;darkOpacity2=0.1;fillColor=#dae8fc;strokeColor=#6c8ebf;size=20;movable=1;resizable=1;rotatable=1;deletable=1;editable=1;locked=0;connectable=1;container=0;" vertex="1" parent="0jLQMamWFt96zplDpg2h-327">
          <mxGeometry x="274.7700978938001" width="9.13082171462474" height="100" as="geometry" />
        </mxCell>
        <mxCell id="0jLQMamWFt96zplDpg2h-133" value="" style="shape=cube;whiteSpace=wrap;html=1;boundedLbl=1;backgroundOutline=1;darkOpacity=0.05;darkOpacity2=0.1;fillColor=#dae8fc;strokeColor=#6c8ebf;size=20;movable=1;resizable=1;rotatable=1;deletable=1;editable=1;locked=0;connectable=1;container=0;" vertex="1" parent="0jLQMamWFt96zplDpg2h-327">
          <mxGeometry x="270.54286561851086" width="9.13082171462474" height="100" as="geometry" />
        </mxCell>
        <mxCell id="0jLQMamWFt96zplDpg2h-134" value="" style="shape=cube;whiteSpace=wrap;html=1;boundedLbl=1;backgroundOutline=1;darkOpacity=0.05;darkOpacity2=0.1;fillColor=#dae8fc;strokeColor=#6c8ebf;size=20;movable=1;resizable=1;rotatable=1;deletable=1;editable=1;locked=0;connectable=1;container=0;" vertex="1" parent="0jLQMamWFt96zplDpg2h-327">
          <mxGeometry x="265.63927617917534" width="9.13082171462474" height="100" as="geometry" />
        </mxCell>
        <mxCell id="0jLQMamWFt96zplDpg2h-135" value="" style="shape=cube;whiteSpace=wrap;html=1;boundedLbl=1;backgroundOutline=1;darkOpacity=0.05;darkOpacity2=0.1;fillColor=#dae8fc;strokeColor=#6c8ebf;size=20;movable=1;resizable=1;rotatable=1;deletable=1;editable=1;locked=0;connectable=1;container=0;" vertex="1" parent="0jLQMamWFt96zplDpg2h-327">
          <mxGeometry x="261.4120439038861" width="9.13082171462474" height="100" as="geometry" />
        </mxCell>
        <mxCell id="0jLQMamWFt96zplDpg2h-136" value="" style="shape=cube;whiteSpace=wrap;html=1;boundedLbl=1;backgroundOutline=1;darkOpacity=0.05;darkOpacity2=0.1;fillColor=#dae8fc;strokeColor=#6c8ebf;size=20;movable=1;resizable=1;rotatable=1;deletable=1;editable=1;locked=0;connectable=1;container=0;" vertex="1" parent="0jLQMamWFt96zplDpg2h-327">
          <mxGeometry x="256.5084544645506" width="9.13082171462474" height="100" as="geometry" />
        </mxCell>
        <mxCell id="0jLQMamWFt96zplDpg2h-137" value="" style="shape=cube;whiteSpace=wrap;html=1;boundedLbl=1;backgroundOutline=1;darkOpacity=0.05;darkOpacity2=0.1;fillColor=#dae8fc;strokeColor=#6c8ebf;size=20;movable=1;resizable=1;rotatable=1;deletable=1;editable=1;locked=0;connectable=1;container=0;" vertex="1" parent="0jLQMamWFt96zplDpg2h-327">
          <mxGeometry x="252.28122218926137" width="9.13082171462474" height="100" as="geometry" />
        </mxCell>
        <mxCell id="0jLQMamWFt96zplDpg2h-138" value="" style="shape=cube;whiteSpace=wrap;html=1;boundedLbl=1;backgroundOutline=1;darkOpacity=0.05;darkOpacity2=0.1;fillColor=#dae8fc;strokeColor=#6c8ebf;size=20;movable=1;resizable=1;rotatable=1;deletable=1;editable=1;locked=0;connectable=1;container=0;" vertex="1" parent="0jLQMamWFt96zplDpg2h-327">
          <mxGeometry x="247.37763274992585" width="9.13082171462474" height="100" as="geometry" />
        </mxCell>
        <mxCell id="0jLQMamWFt96zplDpg2h-139" value="" style="shape=cube;whiteSpace=wrap;html=1;boundedLbl=1;backgroundOutline=1;darkOpacity=0.05;darkOpacity2=0.1;fillColor=#dae8fc;strokeColor=#6c8ebf;size=20;movable=1;resizable=1;rotatable=1;deletable=1;editable=1;locked=0;connectable=1;container=0;" vertex="1" parent="0jLQMamWFt96zplDpg2h-327">
          <mxGeometry x="243.15040047463663" width="9.13082171462474" height="100" as="geometry" />
        </mxCell>
        <mxCell id="0jLQMamWFt96zplDpg2h-140" value="" style="shape=cube;whiteSpace=wrap;html=1;boundedLbl=1;backgroundOutline=1;darkOpacity=0.05;darkOpacity2=0.1;fillColor=#dae8fc;strokeColor=#6c8ebf;size=20;movable=1;resizable=1;rotatable=1;deletable=1;editable=1;locked=0;connectable=1;container=0;" vertex="1" parent="0jLQMamWFt96zplDpg2h-327">
          <mxGeometry x="239.5995253633937" width="9.13082171462474" height="100" as="geometry" />
        </mxCell>
        <mxCell id="0jLQMamWFt96zplDpg2h-141" value="" style="shape=cube;whiteSpace=wrap;html=1;boundedLbl=1;backgroundOutline=1;darkOpacity=0.05;darkOpacity2=0.1;fillColor=#dae8fc;strokeColor=#6c8ebf;size=20;movable=1;resizable=1;rotatable=1;deletable=1;editable=1;locked=0;connectable=1;container=0;" vertex="1" parent="0jLQMamWFt96zplDpg2h-327">
          <mxGeometry x="235.37229308810447" width="9.13082171462474" height="100" as="geometry" />
        </mxCell>
        <mxCell id="0jLQMamWFt96zplDpg2h-142" value="" style="shape=cube;whiteSpace=wrap;html=1;boundedLbl=1;backgroundOutline=1;darkOpacity=0.05;darkOpacity2=0.1;fillColor=#dae8fc;strokeColor=#6c8ebf;size=20;movable=1;resizable=1;rotatable=1;deletable=1;editable=1;locked=0;connectable=1;container=0;" vertex="1" parent="0jLQMamWFt96zplDpg2h-327">
          <mxGeometry x="230.46870364876895" width="9.13082171462474" height="100" as="geometry" />
        </mxCell>
        <mxCell id="0jLQMamWFt96zplDpg2h-143" value="" style="shape=cube;whiteSpace=wrap;html=1;boundedLbl=1;backgroundOutline=1;darkOpacity=0.05;darkOpacity2=0.1;fillColor=#dae8fc;strokeColor=#6c8ebf;size=20;movable=1;resizable=1;rotatable=1;deletable=1;editable=1;locked=0;connectable=1;container=0;" vertex="1" parent="0jLQMamWFt96zplDpg2h-327">
          <mxGeometry x="226.24147137347973" width="9.13082171462474" height="100" as="geometry" />
        </mxCell>
        <mxCell id="0jLQMamWFt96zplDpg2h-144" value="" style="shape=cube;whiteSpace=wrap;html=1;boundedLbl=1;backgroundOutline=1;darkOpacity=0.05;darkOpacity2=0.1;fillColor=#dae8fc;strokeColor=#6c8ebf;size=20;movable=1;resizable=1;rotatable=1;deletable=1;editable=1;locked=0;connectable=1;container=0;" vertex="1" parent="0jLQMamWFt96zplDpg2h-327">
          <mxGeometry x="221.3378819341442" width="9.13082171462474" height="100" as="geometry" />
        </mxCell>
        <mxCell id="0jLQMamWFt96zplDpg2h-145" value="" style="shape=cube;whiteSpace=wrap;html=1;boundedLbl=1;backgroundOutline=1;darkOpacity=0.05;darkOpacity2=0.1;fillColor=#dae8fc;strokeColor=#6c8ebf;size=20;movable=1;resizable=1;rotatable=1;deletable=1;editable=1;locked=0;connectable=1;container=0;" vertex="1" parent="0jLQMamWFt96zplDpg2h-327">
          <mxGeometry x="217.11064965885498" width="9.13082171462474" height="100" as="geometry" />
        </mxCell>
        <mxCell id="0jLQMamWFt96zplDpg2h-146" value="" style="shape=cube;whiteSpace=wrap;html=1;boundedLbl=1;backgroundOutline=1;darkOpacity=0.05;darkOpacity2=0.1;fillColor=#dae8fc;strokeColor=#6c8ebf;size=20;movable=1;resizable=1;rotatable=1;deletable=1;editable=1;locked=0;connectable=1;container=0;" vertex="1" parent="0jLQMamWFt96zplDpg2h-327">
          <mxGeometry x="212.20706021951946" width="9.13082171462474" height="100" as="geometry" />
        </mxCell>
        <mxCell id="0jLQMamWFt96zplDpg2h-147" value="" style="shape=cube;whiteSpace=wrap;html=1;boundedLbl=1;backgroundOutline=1;darkOpacity=0.05;darkOpacity2=0.1;fillColor=#dae8fc;strokeColor=#6c8ebf;size=20;movable=1;resizable=1;rotatable=1;deletable=1;editable=1;locked=0;connectable=1;container=0;" vertex="1" parent="0jLQMamWFt96zplDpg2h-327">
          <mxGeometry x="207.97982794423024" width="9.13082171462474" height="100" as="geometry" />
        </mxCell>
        <mxCell id="0jLQMamWFt96zplDpg2h-148" value="" style="shape=cube;whiteSpace=wrap;html=1;boundedLbl=1;backgroundOutline=1;darkOpacity=0.05;darkOpacity2=0.1;fillColor=#dae8fc;strokeColor=#6c8ebf;size=20;movable=1;resizable=1;rotatable=1;deletable=1;editable=1;locked=0;connectable=1;container=0;" vertex="1" parent="0jLQMamWFt96zplDpg2h-327">
          <mxGeometry x="204.4289528329873" width="9.13082171462474" height="100" as="geometry" />
        </mxCell>
        <mxCell id="0jLQMamWFt96zplDpg2h-149" value="" style="shape=cube;whiteSpace=wrap;html=1;boundedLbl=1;backgroundOutline=1;darkOpacity=0.05;darkOpacity2=0.1;fillColor=#dae8fc;strokeColor=#6c8ebf;size=20;movable=1;resizable=1;rotatable=1;deletable=1;editable=1;locked=0;connectable=1;container=0;" vertex="1" parent="0jLQMamWFt96zplDpg2h-327">
          <mxGeometry x="200.20172055769808" width="9.13082171462474" height="100" as="geometry" />
        </mxCell>
        <mxCell id="0jLQMamWFt96zplDpg2h-150" value="" style="shape=cube;whiteSpace=wrap;html=1;boundedLbl=1;backgroundOutline=1;darkOpacity=0.05;darkOpacity2=0.1;fillColor=#dae8fc;strokeColor=#6c8ebf;size=20;movable=1;resizable=1;rotatable=1;deletable=1;editable=1;locked=0;connectable=1;container=0;" vertex="1" parent="0jLQMamWFt96zplDpg2h-327">
          <mxGeometry x="195.29813111836256" width="9.13082171462474" height="100" as="geometry" />
        </mxCell>
        <mxCell id="0jLQMamWFt96zplDpg2h-151" value="" style="shape=cube;whiteSpace=wrap;html=1;boundedLbl=1;backgroundOutline=1;darkOpacity=0.05;darkOpacity2=0.1;fillColor=#dae8fc;strokeColor=#6c8ebf;size=20;movable=1;resizable=1;rotatable=1;deletable=1;editable=1;locked=0;connectable=1;container=0;" vertex="1" parent="0jLQMamWFt96zplDpg2h-327">
          <mxGeometry x="191.07089884307322" width="9.13082171462474" height="100" as="geometry" />
        </mxCell>
        <mxCell id="0jLQMamWFt96zplDpg2h-152" value="" style="shape=cube;whiteSpace=wrap;html=1;boundedLbl=1;backgroundOutline=1;darkOpacity=0.05;darkOpacity2=0.1;fillColor=#dae8fc;strokeColor=#6c8ebf;size=20;movable=1;resizable=1;rotatable=1;deletable=1;editable=1;locked=0;connectable=1;container=0;" vertex="1" parent="0jLQMamWFt96zplDpg2h-327">
          <mxGeometry x="186.16730940373782" width="9.13082171462474" height="100" as="geometry" />
        </mxCell>
        <mxCell id="0jLQMamWFt96zplDpg2h-153" value="" style="shape=cube;whiteSpace=wrap;html=1;boundedLbl=1;backgroundOutline=1;darkOpacity=0.05;darkOpacity2=0.1;fillColor=#dae8fc;strokeColor=#6c8ebf;size=20;movable=1;resizable=1;rotatable=1;deletable=1;editable=1;locked=0;connectable=1;container=0;" vertex="1" parent="0jLQMamWFt96zplDpg2h-327">
          <mxGeometry x="181.9400771284486" width="9.13082171462474" height="100" as="geometry" />
        </mxCell>
        <mxCell id="0jLQMamWFt96zplDpg2h-154" value="" style="shape=cube;whiteSpace=wrap;html=1;boundedLbl=1;backgroundOutline=1;darkOpacity=0.05;darkOpacity2=0.1;fillColor=#dae8fc;strokeColor=#6c8ebf;size=20;movable=1;resizable=1;rotatable=1;deletable=1;editable=1;locked=0;connectable=1;container=0;" vertex="1" parent="0jLQMamWFt96zplDpg2h-327">
          <mxGeometry x="177.03648768911307" width="9.13082171462474" height="100" as="geometry" />
        </mxCell>
        <mxCell id="0jLQMamWFt96zplDpg2h-155" value="" style="shape=cube;whiteSpace=wrap;html=1;boundedLbl=1;backgroundOutline=1;darkOpacity=0.05;darkOpacity2=0.1;fillColor=#dae8fc;strokeColor=#6c8ebf;size=20;movable=1;resizable=1;rotatable=1;deletable=1;editable=1;locked=0;connectable=1;container=0;" vertex="1" parent="0jLQMamWFt96zplDpg2h-327">
          <mxGeometry x="172.80925541382385" width="9.13082171462474" height="100" as="geometry" />
        </mxCell>
        <mxCell id="0jLQMamWFt96zplDpg2h-156" value="" style="shape=cube;whiteSpace=wrap;html=1;boundedLbl=1;backgroundOutline=1;darkOpacity=0.05;darkOpacity2=0.1;fillColor=#dae8fc;strokeColor=#6c8ebf;size=20;movable=1;resizable=1;rotatable=1;deletable=1;editable=1;locked=0;connectable=1;container=0;" vertex="1" parent="0jLQMamWFt96zplDpg2h-327">
          <mxGeometry x="169.25838030258092" width="9.13082171462474" height="100" as="geometry" />
        </mxCell>
        <mxCell id="0jLQMamWFt96zplDpg2h-157" value="" style="shape=cube;whiteSpace=wrap;html=1;boundedLbl=1;backgroundOutline=1;darkOpacity=0.05;darkOpacity2=0.1;fillColor=#dae8fc;strokeColor=#6c8ebf;size=20;movable=1;resizable=1;rotatable=1;deletable=1;editable=1;locked=0;connectable=1;container=0;" vertex="1" parent="0jLQMamWFt96zplDpg2h-327">
          <mxGeometry x="165.0311480272917" width="9.13082171462474" height="100" as="geometry" />
        </mxCell>
        <mxCell id="0jLQMamWFt96zplDpg2h-158" value="" style="shape=cube;whiteSpace=wrap;html=1;boundedLbl=1;backgroundOutline=1;darkOpacity=0.05;darkOpacity2=0.1;fillColor=#dae8fc;strokeColor=#6c8ebf;size=20;movable=1;resizable=1;rotatable=1;deletable=1;editable=1;locked=0;connectable=1;container=0;" vertex="1" parent="0jLQMamWFt96zplDpg2h-327">
          <mxGeometry x="160.12755858795606" width="9.13082171462474" height="100" as="geometry" />
        </mxCell>
        <mxCell id="0jLQMamWFt96zplDpg2h-159" value="" style="shape=cube;whiteSpace=wrap;html=1;boundedLbl=1;backgroundOutline=1;darkOpacity=0.05;darkOpacity2=0.1;fillColor=#dae8fc;strokeColor=#6c8ebf;size=20;movable=1;resizable=1;rotatable=1;deletable=1;editable=1;locked=0;connectable=1;container=0;" vertex="1" parent="0jLQMamWFt96zplDpg2h-327">
          <mxGeometry x="155.90032631266683" width="9.13082171462474" height="100" as="geometry" />
        </mxCell>
        <mxCell id="0jLQMamWFt96zplDpg2h-160" value="" style="shape=cube;whiteSpace=wrap;html=1;boundedLbl=1;backgroundOutline=1;darkOpacity=0.05;darkOpacity2=0.1;fillColor=#dae8fc;strokeColor=#6c8ebf;size=20;movable=1;resizable=1;rotatable=1;deletable=1;editable=1;locked=0;connectable=1;container=0;" vertex="1" parent="0jLQMamWFt96zplDpg2h-327">
          <mxGeometry x="150.99673687333132" width="9.13082171462474" height="100" as="geometry" />
        </mxCell>
        <mxCell id="0jLQMamWFt96zplDpg2h-161" value="" style="shape=cube;whiteSpace=wrap;html=1;boundedLbl=1;backgroundOutline=1;darkOpacity=0.05;darkOpacity2=0.1;fillColor=#dae8fc;strokeColor=#6c8ebf;size=20;movable=1;resizable=1;rotatable=1;deletable=1;editable=1;locked=0;connectable=1;container=0;" vertex="1" parent="0jLQMamWFt96zplDpg2h-327">
          <mxGeometry x="146.7695045980421" width="9.13082171462474" height="100" as="geometry" />
        </mxCell>
        <mxCell id="0jLQMamWFt96zplDpg2h-162" value="" style="shape=cube;whiteSpace=wrap;html=1;boundedLbl=1;backgroundOutline=1;darkOpacity=0.05;darkOpacity2=0.1;fillColor=#dae8fc;strokeColor=#6c8ebf;size=20;movable=1;resizable=1;rotatable=1;deletable=1;editable=1;locked=0;connectable=1;container=0;" vertex="1" parent="0jLQMamWFt96zplDpg2h-327">
          <mxGeometry x="141.86591515870668" width="9.13082171462474" height="100" as="geometry" />
        </mxCell>
        <mxCell id="0jLQMamWFt96zplDpg2h-163" value="" style="shape=cube;whiteSpace=wrap;html=1;boundedLbl=1;backgroundOutline=1;darkOpacity=0.05;darkOpacity2=0.1;fillColor=#dae8fc;strokeColor=#6c8ebf;size=20;movable=1;resizable=1;rotatable=1;deletable=1;editable=1;locked=0;connectable=1;container=0;" vertex="1" parent="0jLQMamWFt96zplDpg2h-327">
          <mxGeometry x="136.45505784633633" width="9.13082171462474" height="100" as="geometry" />
        </mxCell>
        <mxCell id="0jLQMamWFt96zplDpg2h-164" value="" style="shape=cube;whiteSpace=wrap;html=1;boundedLbl=1;backgroundOutline=1;darkOpacity=0.05;darkOpacity2=0.1;fillColor=#dae8fc;strokeColor=#6c8ebf;size=20;movable=1;resizable=1;rotatable=1;deletable=1;editable=1;locked=0;connectable=1;container=0;" vertex="1" parent="0jLQMamWFt96zplDpg2h-327">
          <mxGeometry x="132.9041827350935" width="9.13082171462474" height="100" as="geometry" />
        </mxCell>
        <mxCell id="0jLQMamWFt96zplDpg2h-165" value="" style="shape=cube;whiteSpace=wrap;html=1;boundedLbl=1;backgroundOutline=1;darkOpacity=0.05;darkOpacity2=0.1;fillColor=#dae8fc;strokeColor=#6c8ebf;size=20;movable=1;resizable=1;rotatable=1;deletable=1;editable=1;locked=0;connectable=1;container=0;" vertex="1" parent="0jLQMamWFt96zplDpg2h-327">
          <mxGeometry x="128.67695045980417" width="9.13082171462474" height="100" as="geometry" />
        </mxCell>
        <mxCell id="0jLQMamWFt96zplDpg2h-166" value="" style="shape=cube;whiteSpace=wrap;html=1;boundedLbl=1;backgroundOutline=1;darkOpacity=0.05;darkOpacity2=0.1;fillColor=#dae8fc;strokeColor=#6c8ebf;size=20;movable=1;resizable=1;rotatable=1;deletable=1;editable=1;locked=0;connectable=1;container=0;" vertex="1" parent="0jLQMamWFt96zplDpg2h-327">
          <mxGeometry x="123.77336102046866" width="9.13082171462474" height="100" as="geometry" />
        </mxCell>
        <mxCell id="0jLQMamWFt96zplDpg2h-167" value="" style="shape=cube;whiteSpace=wrap;html=1;boundedLbl=1;backgroundOutline=1;darkOpacity=0.05;darkOpacity2=0.1;fillColor=#dae8fc;strokeColor=#6c8ebf;size=20;movable=1;resizable=1;rotatable=1;deletable=1;editable=1;locked=0;connectable=1;container=0;" vertex="1" parent="0jLQMamWFt96zplDpg2h-327">
          <mxGeometry x="119.54612874517943" width="9.13082171462474" height="100" as="geometry" />
        </mxCell>
        <mxCell id="0jLQMamWFt96zplDpg2h-168" value="" style="shape=cube;whiteSpace=wrap;html=1;boundedLbl=1;backgroundOutline=1;darkOpacity=0.05;darkOpacity2=0.1;fillColor=#dae8fc;strokeColor=#6c8ebf;size=20;movable=1;resizable=1;rotatable=1;deletable=1;editable=1;locked=0;connectable=1;container=0;" vertex="1" parent="0jLQMamWFt96zplDpg2h-327">
          <mxGeometry x="114.64253930584402" width="9.13082171462474" height="100" as="geometry" />
        </mxCell>
        <mxCell id="0jLQMamWFt96zplDpg2h-169" value="" style="shape=cube;whiteSpace=wrap;html=1;boundedLbl=1;backgroundOutline=1;darkOpacity=0.05;darkOpacity2=0.1;fillColor=#dae8fc;strokeColor=#6c8ebf;size=20;movable=1;resizable=1;rotatable=1;deletable=1;editable=1;locked=0;connectable=1;container=0;" vertex="1" parent="0jLQMamWFt96zplDpg2h-327">
          <mxGeometry x="110.4153070305548" width="9.13082171462474" height="100" as="geometry" />
        </mxCell>
        <mxCell id="0jLQMamWFt96zplDpg2h-170" value="" style="shape=cube;whiteSpace=wrap;html=1;boundedLbl=1;backgroundOutline=1;darkOpacity=0.05;darkOpacity2=0.1;fillColor=#dae8fc;strokeColor=#6c8ebf;size=20;movable=1;resizable=1;rotatable=1;deletable=1;editable=1;locked=0;connectable=1;container=0;" vertex="1" parent="0jLQMamWFt96zplDpg2h-327">
          <mxGeometry x="105.51171759121917" width="9.13082171462474" height="100" as="geometry" />
        </mxCell>
        <mxCell id="0jLQMamWFt96zplDpg2h-171" value="" style="shape=cube;whiteSpace=wrap;html=1;boundedLbl=1;backgroundOutline=1;darkOpacity=0.05;darkOpacity2=0.1;fillColor=#dae8fc;strokeColor=#6c8ebf;size=20;movable=1;resizable=1;rotatable=1;deletable=1;editable=1;locked=0;connectable=1;container=0;" vertex="1" parent="0jLQMamWFt96zplDpg2h-327">
          <mxGeometry x="101.28448531592994" width="9.13082171462474" height="100" as="geometry" />
        </mxCell>
        <mxCell id="0jLQMamWFt96zplDpg2h-172" value="" style="shape=cube;whiteSpace=wrap;html=1;boundedLbl=1;backgroundOutline=1;darkOpacity=0.05;darkOpacity2=0.1;fillColor=#dae8fc;strokeColor=#6c8ebf;size=20;movable=1;resizable=1;rotatable=1;deletable=1;editable=1;locked=0;connectable=1;container=0;" vertex="1" parent="0jLQMamWFt96zplDpg2h-327">
          <mxGeometry x="97.73361020468701" width="9.13082171462474" height="100" as="geometry" />
        </mxCell>
        <mxCell id="0jLQMamWFt96zplDpg2h-173" value="" style="shape=cube;whiteSpace=wrap;html=1;boundedLbl=1;backgroundOutline=1;darkOpacity=0.05;darkOpacity2=0.1;fillColor=#dae8fc;strokeColor=#6c8ebf;size=20;movable=1;resizable=1;rotatable=1;deletable=1;editable=1;locked=0;connectable=1;container=0;" vertex="1" parent="0jLQMamWFt96zplDpg2h-327">
          <mxGeometry x="93.5063779293979" width="9.13082171462474" height="100" as="geometry" />
        </mxCell>
        <mxCell id="0jLQMamWFt96zplDpg2h-174" value="" style="shape=cube;whiteSpace=wrap;html=1;boundedLbl=1;backgroundOutline=1;darkOpacity=0.05;darkOpacity2=0.1;fillColor=#dae8fc;strokeColor=#6c8ebf;size=20;movable=1;resizable=1;rotatable=1;deletable=1;editable=1;locked=0;connectable=1;container=0;" vertex="1" parent="0jLQMamWFt96zplDpg2h-327">
          <mxGeometry x="88.60278849006227" width="9.13082171462474" height="100" as="geometry" />
        </mxCell>
        <mxCell id="0jLQMamWFt96zplDpg2h-175" value="" style="shape=cube;whiteSpace=wrap;html=1;boundedLbl=1;backgroundOutline=1;darkOpacity=0.05;darkOpacity2=0.1;fillColor=#dae8fc;strokeColor=#6c8ebf;size=20;movable=1;resizable=1;rotatable=1;deletable=1;editable=1;locked=0;connectable=1;container=0;" vertex="1" parent="0jLQMamWFt96zplDpg2h-327">
          <mxGeometry x="84.37555621477304" width="9.13082171462474" height="100" as="geometry" />
        </mxCell>
        <mxCell id="0jLQMamWFt96zplDpg2h-176" value="" style="shape=cube;whiteSpace=wrap;html=1;boundedLbl=1;backgroundOutline=1;darkOpacity=0.05;darkOpacity2=0.1;fillColor=#dae8fc;strokeColor=#6c8ebf;size=20;movable=1;resizable=1;rotatable=1;deletable=1;editable=1;locked=0;connectable=1;container=0;" vertex="1" parent="0jLQMamWFt96zplDpg2h-327">
          <mxGeometry x="79.47196677543764" width="9.13082171462474" height="100" as="geometry" />
        </mxCell>
        <mxCell id="0jLQMamWFt96zplDpg2h-177" value="" style="shape=cube;whiteSpace=wrap;html=1;boundedLbl=1;backgroundOutline=1;darkOpacity=0.05;darkOpacity2=0.1;fillColor=#dae8fc;strokeColor=#6c8ebf;size=20;movable=1;resizable=1;rotatable=1;deletable=1;editable=1;locked=0;connectable=1;container=0;" vertex="1" parent="0jLQMamWFt96zplDpg2h-327">
          <mxGeometry x="75.24473450014841" width="9.13082171462474" height="100" as="geometry" />
        </mxCell>
        <mxCell id="0jLQMamWFt96zplDpg2h-178" value="" style="shape=cube;whiteSpace=wrap;html=1;boundedLbl=1;backgroundOutline=1;darkOpacity=0.05;darkOpacity2=0.1;fillColor=#dae8fc;strokeColor=#6c8ebf;size=20;movable=1;resizable=1;rotatable=1;deletable=1;editable=1;locked=0;connectable=1;container=0;" vertex="1" parent="0jLQMamWFt96zplDpg2h-327">
          <mxGeometry x="70.34114506081278" width="9.13082171462474" height="100" as="geometry" />
        </mxCell>
        <mxCell id="0jLQMamWFt96zplDpg2h-179" value="" style="shape=cube;whiteSpace=wrap;html=1;boundedLbl=1;backgroundOutline=1;darkOpacity=0.05;darkOpacity2=0.1;fillColor=#dae8fc;strokeColor=#6c8ebf;size=20;movable=1;resizable=1;rotatable=1;deletable=1;editable=1;locked=0;connectable=1;container=0;" vertex="1" parent="0jLQMamWFt96zplDpg2h-327">
          <mxGeometry x="66.11391278552355" width="9.13082171462474" height="100" as="geometry" />
        </mxCell>
        <mxCell id="0jLQMamWFt96zplDpg2h-180" value="" style="shape=cube;whiteSpace=wrap;html=1;boundedLbl=1;backgroundOutline=1;darkOpacity=0.05;darkOpacity2=0.1;fillColor=#dae8fc;strokeColor=#6c8ebf;size=20;movable=1;resizable=1;rotatable=1;deletable=1;editable=1;locked=0;connectable=1;container=0;" vertex="1" parent="0jLQMamWFt96zplDpg2h-327">
          <mxGeometry x="62.56303767428062" width="9.13082171462474" height="100" as="geometry" />
        </mxCell>
        <mxCell id="0jLQMamWFt96zplDpg2h-181" value="" style="shape=cube;whiteSpace=wrap;html=1;boundedLbl=1;backgroundOutline=1;darkOpacity=0.05;darkOpacity2=0.1;fillColor=#dae8fc;strokeColor=#6c8ebf;size=20;movable=1;resizable=1;rotatable=1;deletable=1;editable=1;locked=0;connectable=1;container=0;" vertex="1" parent="0jLQMamWFt96zplDpg2h-327">
          <mxGeometry x="58.3358053989914" width="9.13082171462474" height="100" as="geometry" />
        </mxCell>
        <mxCell id="0jLQMamWFt96zplDpg2h-182" value="" style="shape=cube;whiteSpace=wrap;html=1;boundedLbl=1;backgroundOutline=1;darkOpacity=0.05;darkOpacity2=0.1;fillColor=#dae8fc;strokeColor=#6c8ebf;size=20;movable=1;resizable=1;rotatable=1;deletable=1;editable=1;locked=0;connectable=1;container=0;" vertex="1" parent="0jLQMamWFt96zplDpg2h-327">
          <mxGeometry x="53.43221595965588" width="9.13082171462474" height="100" as="geometry" />
        </mxCell>
        <mxCell id="0jLQMamWFt96zplDpg2h-183" value="" style="shape=cube;whiteSpace=wrap;html=1;boundedLbl=1;backgroundOutline=1;darkOpacity=0.05;darkOpacity2=0.1;fillColor=#dae8fc;strokeColor=#6c8ebf;size=20;movable=1;resizable=1;rotatable=1;deletable=1;editable=1;locked=0;connectable=1;container=0;" vertex="1" parent="0jLQMamWFt96zplDpg2h-327">
          <mxGeometry x="49.20498368436665" width="9.13082171462474" height="100" as="geometry" />
        </mxCell>
        <mxCell id="0jLQMamWFt96zplDpg2h-184" value="" style="shape=cube;whiteSpace=wrap;html=1;boundedLbl=1;backgroundOutline=1;darkOpacity=0.05;darkOpacity2=0.1;fillColor=#dae8fc;strokeColor=#6c8ebf;size=20;movable=1;resizable=1;rotatable=1;deletable=1;editable=1;locked=0;connectable=1;container=0;" vertex="1" parent="0jLQMamWFt96zplDpg2h-327">
          <mxGeometry x="44.30139424503102" width="9.13082171462474" height="100" as="geometry" />
        </mxCell>
        <mxCell id="0jLQMamWFt96zplDpg2h-185" value="" style="shape=cube;whiteSpace=wrap;html=1;boundedLbl=1;backgroundOutline=1;darkOpacity=0.05;darkOpacity2=0.1;fillColor=#dae8fc;strokeColor=#6c8ebf;size=20;movable=1;resizable=1;rotatable=1;deletable=1;editable=1;locked=0;connectable=1;container=0;" vertex="1" parent="0jLQMamWFt96zplDpg2h-327">
          <mxGeometry x="40.07416196974191" width="9.13082171462474" height="100" as="geometry" />
        </mxCell>
        <mxCell id="0jLQMamWFt96zplDpg2h-186" value="" style="shape=cube;whiteSpace=wrap;html=1;boundedLbl=1;backgroundOutline=1;darkOpacity=0.05;darkOpacity2=0.1;fillColor=#dae8fc;strokeColor=#6c8ebf;size=20;movable=1;resizable=1;rotatable=1;deletable=1;editable=1;locked=0;connectable=1;container=0;" vertex="1" parent="0jLQMamWFt96zplDpg2h-327">
          <mxGeometry x="35.17057253040639" width="9.13082171462474" height="100" as="geometry" />
        </mxCell>
        <mxCell id="0jLQMamWFt96zplDpg2h-187" value="" style="shape=cube;whiteSpace=wrap;html=1;boundedLbl=1;backgroundOutline=1;darkOpacity=0.05;darkOpacity2=0.1;fillColor=#dae8fc;strokeColor=#6c8ebf;size=20;movable=1;resizable=1;rotatable=1;deletable=1;editable=1;locked=0;connectable=1;container=0;" vertex="1" parent="0jLQMamWFt96zplDpg2h-327">
          <mxGeometry x="30.943340255117164" width="9.13082171462474" height="100" as="geometry" />
        </mxCell>
        <mxCell id="0jLQMamWFt96zplDpg2h-188" value="" style="shape=cube;whiteSpace=wrap;html=1;boundedLbl=1;backgroundOutline=1;darkOpacity=0.05;darkOpacity2=0.1;fillColor=#dae8fc;strokeColor=#6c8ebf;size=20;movable=1;resizable=1;rotatable=1;deletable=1;editable=1;locked=0;connectable=1;container=0;" vertex="1" parent="0jLQMamWFt96zplDpg2h-327">
          <mxGeometry x="27.392465143874233" width="9.13082171462474" height="100" as="geometry" />
        </mxCell>
        <mxCell id="0jLQMamWFt96zplDpg2h-189" value="" style="shape=cube;whiteSpace=wrap;html=1;boundedLbl=1;backgroundOutline=1;darkOpacity=0.05;darkOpacity2=0.1;fillColor=#dae8fc;strokeColor=#6c8ebf;size=20;movable=1;resizable=1;rotatable=1;deletable=1;editable=1;locked=0;connectable=1;container=0;" vertex="1" parent="0jLQMamWFt96zplDpg2h-327">
          <mxGeometry x="23.165232868585008" width="9.13082171462474" height="100" as="geometry" />
        </mxCell>
        <mxCell id="0jLQMamWFt96zplDpg2h-190" value="" style="shape=cube;whiteSpace=wrap;html=1;boundedLbl=1;backgroundOutline=1;darkOpacity=0.05;darkOpacity2=0.1;fillColor=#dae8fc;strokeColor=#6c8ebf;size=20;movable=1;resizable=1;rotatable=1;deletable=1;editable=1;locked=0;connectable=1;container=0;" vertex="1" parent="0jLQMamWFt96zplDpg2h-327">
          <mxGeometry x="18.26164342924949" width="9.13082171462474" height="100" as="geometry" />
        </mxCell>
        <mxCell id="0jLQMamWFt96zplDpg2h-191" value="" style="shape=cube;whiteSpace=wrap;html=1;boundedLbl=1;backgroundOutline=1;darkOpacity=0.05;darkOpacity2=0.1;fillColor=#dae8fc;strokeColor=#6c8ebf;size=20;movable=1;resizable=1;rotatable=1;deletable=1;editable=1;locked=0;connectable=1;container=0;" vertex="1" parent="0jLQMamWFt96zplDpg2h-327">
          <mxGeometry x="14.034411153960264" width="9.13082171462474" height="100" as="geometry" />
        </mxCell>
        <mxCell id="0jLQMamWFt96zplDpg2h-192" value="" style="shape=cube;whiteSpace=wrap;html=1;boundedLbl=1;backgroundOutline=1;darkOpacity=0.05;darkOpacity2=0.1;fillColor=#dae8fc;strokeColor=#6c8ebf;size=20;movable=1;resizable=1;rotatable=1;deletable=1;editable=1;locked=0;connectable=1;container=0;" vertex="1" parent="0jLQMamWFt96zplDpg2h-327">
          <mxGeometry x="9.13082171462463" width="9.13082171462474" height="100" as="geometry" />
        </mxCell>
        <mxCell id="0jLQMamWFt96zplDpg2h-193" value="" style="shape=cube;whiteSpace=wrap;html=1;boundedLbl=1;backgroundOutline=1;darkOpacity=0.05;darkOpacity2=0.1;fillColor=#dae8fc;strokeColor=#6c8ebf;size=20;movable=1;resizable=1;rotatable=1;deletable=1;editable=1;locked=0;connectable=1;container=0;" vertex="1" parent="0jLQMamWFt96zplDpg2h-327">
          <mxGeometry x="4.903589439335406" width="9.13082171462474" height="100" as="geometry" />
        </mxCell>
        <mxCell id="0jLQMamWFt96zplDpg2h-194" value="" style="shape=cube;whiteSpace=wrap;html=1;boundedLbl=1;backgroundOutline=1;darkOpacity=0.05;darkOpacity2=0.1;fillColor=#dae8fc;strokeColor=#6c8ebf;size=20;movable=1;resizable=1;rotatable=1;deletable=1;editable=1;locked=0;connectable=1;container=0;" vertex="1" parent="0jLQMamWFt96zplDpg2h-327">
          <mxGeometry width="9.13082171462474" height="100" as="geometry" />
        </mxCell>
        <mxCell id="0jLQMamWFt96zplDpg2h-330" value="" style="group" vertex="1" connectable="0" parent="1">
          <mxGeometry x="-90" y="1170" width="1685.5" height="100" as="geometry" />
        </mxCell>
        <mxCell id="0jLQMamWFt96zplDpg2h-195" value="" style="shape=cube;whiteSpace=wrap;html=1;boundedLbl=1;backgroundOutline=1;darkOpacity=0.05;darkOpacity2=0.1;fillColor=#dae8fc;strokeColor=#6c8ebf;size=20;movable=1;resizable=1;rotatable=1;deletable=1;editable=1;locked=0;connectable=1;container=0;" vertex="1" parent="0jLQMamWFt96zplDpg2h-330">
          <mxGeometry x="1658.5" width="27" height="100" as="geometry" />
        </mxCell>
        <mxCell id="0jLQMamWFt96zplDpg2h-332" value="" style="group" vertex="1" connectable="0" parent="0jLQMamWFt96zplDpg2h-330">
          <mxGeometry width="1675" height="100" as="geometry" />
        </mxCell>
        <mxCell id="0jLQMamWFt96zplDpg2h-196" value="" style="shape=cube;whiteSpace=wrap;html=1;boundedLbl=1;backgroundOutline=1;darkOpacity=0.05;darkOpacity2=0.1;fillColor=#dae8fc;strokeColor=#6c8ebf;size=20;movable=1;resizable=1;rotatable=1;deletable=1;editable=1;locked=0;connectable=1;container=0;" vertex="1" parent="0jLQMamWFt96zplDpg2h-332">
          <mxGeometry x="1648" width="27" height="100" as="geometry" />
        </mxCell>
        <mxCell id="0jLQMamWFt96zplDpg2h-197" value="" style="shape=cube;whiteSpace=wrap;html=1;boundedLbl=1;backgroundOutline=1;darkOpacity=0.05;darkOpacity2=0.1;fillColor=#dae8fc;strokeColor=#6c8ebf;size=20;movable=1;resizable=1;rotatable=1;deletable=1;editable=1;locked=0;connectable=1;container=0;" vertex="1" parent="0jLQMamWFt96zplDpg2h-332">
          <mxGeometry x="1635.5" width="27" height="100" as="geometry" />
        </mxCell>
        <mxCell id="0jLQMamWFt96zplDpg2h-198" value="" style="shape=cube;whiteSpace=wrap;html=1;boundedLbl=1;backgroundOutline=1;darkOpacity=0.05;darkOpacity2=0.1;fillColor=#dae8fc;strokeColor=#6c8ebf;size=20;movable=1;resizable=1;rotatable=1;deletable=1;editable=1;locked=0;connectable=1;container=0;" vertex="1" parent="0jLQMamWFt96zplDpg2h-332">
          <mxGeometry x="1621" width="27" height="100" as="geometry" />
        </mxCell>
        <mxCell id="0jLQMamWFt96zplDpg2h-199" value="" style="shape=cube;whiteSpace=wrap;html=1;boundedLbl=1;backgroundOutline=1;darkOpacity=0.05;darkOpacity2=0.1;fillColor=#dae8fc;strokeColor=#6c8ebf;size=20;movable=1;resizable=1;rotatable=1;deletable=1;editable=1;locked=0;connectable=1;container=0;" vertex="1" parent="0jLQMamWFt96zplDpg2h-332">
          <mxGeometry x="1608.5" width="27" height="100" as="geometry" />
        </mxCell>
        <mxCell id="0jLQMamWFt96zplDpg2h-200" value="" style="shape=cube;whiteSpace=wrap;html=1;boundedLbl=1;backgroundOutline=1;darkOpacity=0.05;darkOpacity2=0.1;fillColor=#dae8fc;strokeColor=#6c8ebf;size=20;movable=1;resizable=1;rotatable=1;deletable=1;editable=1;locked=0;connectable=1;container=0;" vertex="1" parent="0jLQMamWFt96zplDpg2h-332">
          <mxGeometry x="1594" width="27" height="100" as="geometry" />
        </mxCell>
        <mxCell id="0jLQMamWFt96zplDpg2h-201" value="" style="shape=cube;whiteSpace=wrap;html=1;boundedLbl=1;backgroundOutline=1;darkOpacity=0.05;darkOpacity2=0.1;fillColor=#dae8fc;strokeColor=#6c8ebf;size=20;movable=1;resizable=1;rotatable=1;deletable=1;editable=1;locked=0;connectable=1;container=0;" vertex="1" parent="0jLQMamWFt96zplDpg2h-332">
          <mxGeometry x="1581.5" width="27" height="100" as="geometry" />
        </mxCell>
        <mxCell id="0jLQMamWFt96zplDpg2h-202" value="" style="shape=cube;whiteSpace=wrap;html=1;boundedLbl=1;backgroundOutline=1;darkOpacity=0.05;darkOpacity2=0.1;fillColor=#dae8fc;strokeColor=#6c8ebf;size=20;movable=1;resizable=1;rotatable=1;deletable=1;editable=1;locked=0;connectable=1;container=0;" vertex="1" parent="0jLQMamWFt96zplDpg2h-332">
          <mxGeometry x="1567" width="27" height="100" as="geometry" />
        </mxCell>
        <mxCell id="0jLQMamWFt96zplDpg2h-203" value="" style="shape=cube;whiteSpace=wrap;html=1;boundedLbl=1;backgroundOutline=1;darkOpacity=0.05;darkOpacity2=0.1;fillColor=#dae8fc;strokeColor=#6c8ebf;size=20;movable=1;resizable=1;rotatable=1;deletable=1;editable=1;locked=0;connectable=1;container=0;" vertex="1" parent="0jLQMamWFt96zplDpg2h-332">
          <mxGeometry x="1554.5" width="27" height="100" as="geometry" />
        </mxCell>
        <mxCell id="0jLQMamWFt96zplDpg2h-204" value="" style="shape=cube;whiteSpace=wrap;html=1;boundedLbl=1;backgroundOutline=1;darkOpacity=0.05;darkOpacity2=0.1;fillColor=#dae8fc;strokeColor=#6c8ebf;size=20;movable=1;resizable=1;rotatable=1;deletable=1;editable=1;locked=0;connectable=1;container=0;" vertex="1" parent="0jLQMamWFt96zplDpg2h-332">
          <mxGeometry x="1544" width="27" height="100" as="geometry" />
        </mxCell>
        <mxCell id="0jLQMamWFt96zplDpg2h-205" value="" style="shape=cube;whiteSpace=wrap;html=1;boundedLbl=1;backgroundOutline=1;darkOpacity=0.05;darkOpacity2=0.1;fillColor=#dae8fc;strokeColor=#6c8ebf;size=20;movable=1;resizable=1;rotatable=1;deletable=1;editable=1;locked=0;connectable=1;container=0;" vertex="1" parent="0jLQMamWFt96zplDpg2h-332">
          <mxGeometry x="1531.5" width="27" height="100" as="geometry" />
        </mxCell>
        <mxCell id="0jLQMamWFt96zplDpg2h-206" value="" style="shape=cube;whiteSpace=wrap;html=1;boundedLbl=1;backgroundOutline=1;darkOpacity=0.05;darkOpacity2=0.1;fillColor=#dae8fc;strokeColor=#6c8ebf;size=20;movable=1;resizable=1;rotatable=1;deletable=1;editable=1;locked=0;connectable=1;container=0;" vertex="1" parent="0jLQMamWFt96zplDpg2h-332">
          <mxGeometry x="1517" width="27" height="100" as="geometry" />
        </mxCell>
        <mxCell id="0jLQMamWFt96zplDpg2h-207" value="" style="shape=cube;whiteSpace=wrap;html=1;boundedLbl=1;backgroundOutline=1;darkOpacity=0.05;darkOpacity2=0.1;fillColor=#dae8fc;strokeColor=#6c8ebf;size=20;movable=1;resizable=1;rotatable=1;deletable=1;editable=1;locked=0;connectable=1;container=0;" vertex="1" parent="0jLQMamWFt96zplDpg2h-332">
          <mxGeometry x="1504.5" width="27" height="100" as="geometry" />
        </mxCell>
        <mxCell id="0jLQMamWFt96zplDpg2h-208" value="" style="shape=cube;whiteSpace=wrap;html=1;boundedLbl=1;backgroundOutline=1;darkOpacity=0.05;darkOpacity2=0.1;fillColor=#dae8fc;strokeColor=#6c8ebf;size=20;movable=1;resizable=1;rotatable=1;deletable=1;editable=1;locked=0;connectable=1;container=0;" vertex="1" parent="0jLQMamWFt96zplDpg2h-332">
          <mxGeometry x="1490" width="27" height="100" as="geometry" />
        </mxCell>
        <mxCell id="0jLQMamWFt96zplDpg2h-209" value="" style="shape=cube;whiteSpace=wrap;html=1;boundedLbl=1;backgroundOutline=1;darkOpacity=0.05;darkOpacity2=0.1;fillColor=#dae8fc;strokeColor=#6c8ebf;size=20;movable=1;resizable=1;rotatable=1;deletable=1;editable=1;locked=0;connectable=1;container=0;" vertex="1" parent="0jLQMamWFt96zplDpg2h-332">
          <mxGeometry x="1477.5" width="27" height="100" as="geometry" />
        </mxCell>
        <mxCell id="0jLQMamWFt96zplDpg2h-210" value="" style="shape=cube;whiteSpace=wrap;html=1;boundedLbl=1;backgroundOutline=1;darkOpacity=0.05;darkOpacity2=0.1;fillColor=#dae8fc;strokeColor=#6c8ebf;size=20;movable=1;resizable=1;rotatable=1;deletable=1;editable=1;locked=0;connectable=1;container=0;" vertex="1" parent="0jLQMamWFt96zplDpg2h-332">
          <mxGeometry x="1463" width="27" height="100" as="geometry" />
        </mxCell>
        <mxCell id="0jLQMamWFt96zplDpg2h-211" value="" style="shape=cube;whiteSpace=wrap;html=1;boundedLbl=1;backgroundOutline=1;darkOpacity=0.05;darkOpacity2=0.1;fillColor=#dae8fc;strokeColor=#6c8ebf;size=20;movable=1;resizable=1;rotatable=1;deletable=1;editable=1;locked=0;connectable=1;container=0;" vertex="1" parent="0jLQMamWFt96zplDpg2h-332">
          <mxGeometry x="1450.5" width="27" height="100" as="geometry" />
        </mxCell>
        <mxCell id="0jLQMamWFt96zplDpg2h-212" value="" style="shape=cube;whiteSpace=wrap;html=1;boundedLbl=1;backgroundOutline=1;darkOpacity=0.05;darkOpacity2=0.1;fillColor=#dae8fc;strokeColor=#6c8ebf;size=20;movable=1;resizable=1;rotatable=1;deletable=1;editable=1;locked=0;connectable=1;container=0;" vertex="1" parent="0jLQMamWFt96zplDpg2h-332">
          <mxGeometry x="1440" width="27" height="100" as="geometry" />
        </mxCell>
        <mxCell id="0jLQMamWFt96zplDpg2h-213" value="" style="shape=cube;whiteSpace=wrap;html=1;boundedLbl=1;backgroundOutline=1;darkOpacity=0.05;darkOpacity2=0.1;fillColor=#dae8fc;strokeColor=#6c8ebf;size=20;movable=1;resizable=1;rotatable=1;deletable=1;editable=1;locked=0;connectable=1;container=0;" vertex="1" parent="0jLQMamWFt96zplDpg2h-332">
          <mxGeometry x="1427.5" width="27" height="100" as="geometry" />
        </mxCell>
        <mxCell id="0jLQMamWFt96zplDpg2h-214" value="" style="shape=cube;whiteSpace=wrap;html=1;boundedLbl=1;backgroundOutline=1;darkOpacity=0.05;darkOpacity2=0.1;fillColor=#dae8fc;strokeColor=#6c8ebf;size=20;movable=1;resizable=1;rotatable=1;deletable=1;editable=1;locked=0;connectable=1;container=0;" vertex="1" parent="0jLQMamWFt96zplDpg2h-332">
          <mxGeometry x="1413" width="27" height="100" as="geometry" />
        </mxCell>
        <mxCell id="0jLQMamWFt96zplDpg2h-215" value="" style="shape=cube;whiteSpace=wrap;html=1;boundedLbl=1;backgroundOutline=1;darkOpacity=0.05;darkOpacity2=0.1;fillColor=#dae8fc;strokeColor=#6c8ebf;size=20;movable=1;resizable=1;rotatable=1;deletable=1;editable=1;locked=0;connectable=1;container=0;" vertex="1" parent="0jLQMamWFt96zplDpg2h-332">
          <mxGeometry x="1400.5" width="27" height="100" as="geometry" />
        </mxCell>
        <mxCell id="0jLQMamWFt96zplDpg2h-216" value="" style="shape=cube;whiteSpace=wrap;html=1;boundedLbl=1;backgroundOutline=1;darkOpacity=0.05;darkOpacity2=0.1;fillColor=#dae8fc;strokeColor=#6c8ebf;size=20;movable=1;resizable=1;rotatable=1;deletable=1;editable=1;locked=0;connectable=1;container=0;" vertex="1" parent="0jLQMamWFt96zplDpg2h-332">
          <mxGeometry x="1386" width="27" height="100" as="geometry" />
        </mxCell>
        <mxCell id="0jLQMamWFt96zplDpg2h-217" value="" style="shape=cube;whiteSpace=wrap;html=1;boundedLbl=1;backgroundOutline=1;darkOpacity=0.05;darkOpacity2=0.1;fillColor=#dae8fc;strokeColor=#6c8ebf;size=20;movable=1;resizable=1;rotatable=1;deletable=1;editable=1;locked=0;connectable=1;container=0;" vertex="1" parent="0jLQMamWFt96zplDpg2h-332">
          <mxGeometry x="1373.5" width="27" height="100" as="geometry" />
        </mxCell>
        <mxCell id="0jLQMamWFt96zplDpg2h-218" value="" style="shape=cube;whiteSpace=wrap;html=1;boundedLbl=1;backgroundOutline=1;darkOpacity=0.05;darkOpacity2=0.1;fillColor=#dae8fc;strokeColor=#6c8ebf;size=20;movable=1;resizable=1;rotatable=1;deletable=1;editable=1;locked=0;connectable=1;container=0;" vertex="1" parent="0jLQMamWFt96zplDpg2h-332">
          <mxGeometry x="1359" width="27" height="100" as="geometry" />
        </mxCell>
        <mxCell id="0jLQMamWFt96zplDpg2h-219" value="" style="shape=cube;whiteSpace=wrap;html=1;boundedLbl=1;backgroundOutline=1;darkOpacity=0.05;darkOpacity2=0.1;fillColor=#dae8fc;strokeColor=#6c8ebf;size=20;movable=1;resizable=1;rotatable=1;deletable=1;editable=1;locked=0;connectable=1;container=0;" vertex="1" parent="0jLQMamWFt96zplDpg2h-332">
          <mxGeometry x="1346.5" width="27" height="100" as="geometry" />
        </mxCell>
        <mxCell id="0jLQMamWFt96zplDpg2h-220" value="" style="shape=cube;whiteSpace=wrap;html=1;boundedLbl=1;backgroundOutline=1;darkOpacity=0.05;darkOpacity2=0.1;fillColor=#dae8fc;strokeColor=#6c8ebf;size=20;movable=1;resizable=1;rotatable=1;deletable=1;editable=1;locked=0;connectable=1;container=0;" vertex="1" parent="0jLQMamWFt96zplDpg2h-332">
          <mxGeometry x="1336" width="27" height="100" as="geometry" />
        </mxCell>
        <mxCell id="0jLQMamWFt96zplDpg2h-221" value="" style="shape=cube;whiteSpace=wrap;html=1;boundedLbl=1;backgroundOutline=1;darkOpacity=0.05;darkOpacity2=0.1;fillColor=#dae8fc;strokeColor=#6c8ebf;size=20;movable=1;resizable=1;rotatable=1;deletable=1;editable=1;locked=0;connectable=1;container=0;" vertex="1" parent="0jLQMamWFt96zplDpg2h-332">
          <mxGeometry x="1323.5" width="27" height="100" as="geometry" />
        </mxCell>
        <mxCell id="0jLQMamWFt96zplDpg2h-222" value="" style="shape=cube;whiteSpace=wrap;html=1;boundedLbl=1;backgroundOutline=1;darkOpacity=0.05;darkOpacity2=0.1;fillColor=#dae8fc;strokeColor=#6c8ebf;size=20;movable=1;resizable=1;rotatable=1;deletable=1;editable=1;locked=0;connectable=1;container=0;" vertex="1" parent="0jLQMamWFt96zplDpg2h-332">
          <mxGeometry x="1309" width="27" height="100" as="geometry" />
        </mxCell>
        <mxCell id="0jLQMamWFt96zplDpg2h-223" value="" style="shape=cube;whiteSpace=wrap;html=1;boundedLbl=1;backgroundOutline=1;darkOpacity=0.05;darkOpacity2=0.1;fillColor=#dae8fc;strokeColor=#6c8ebf;size=20;movable=1;resizable=1;rotatable=1;deletable=1;editable=1;locked=0;connectable=1;container=0;" vertex="1" parent="0jLQMamWFt96zplDpg2h-332">
          <mxGeometry x="1296.5" width="27" height="100" as="geometry" />
        </mxCell>
        <mxCell id="0jLQMamWFt96zplDpg2h-224" value="" style="shape=cube;whiteSpace=wrap;html=1;boundedLbl=1;backgroundOutline=1;darkOpacity=0.05;darkOpacity2=0.1;fillColor=#dae8fc;strokeColor=#6c8ebf;size=20;movable=1;resizable=1;rotatable=1;deletable=1;editable=1;locked=0;connectable=1;container=0;" vertex="1" parent="0jLQMamWFt96zplDpg2h-332">
          <mxGeometry x="1282" width="27" height="100" as="geometry" />
        </mxCell>
        <mxCell id="0jLQMamWFt96zplDpg2h-225" value="" style="shape=cube;whiteSpace=wrap;html=1;boundedLbl=1;backgroundOutline=1;darkOpacity=0.05;darkOpacity2=0.1;fillColor=#dae8fc;strokeColor=#6c8ebf;size=20;movable=1;resizable=1;rotatable=1;deletable=1;editable=1;locked=0;connectable=1;container=0;" vertex="1" parent="0jLQMamWFt96zplDpg2h-332">
          <mxGeometry x="1269.5" width="27" height="100" as="geometry" />
        </mxCell>
        <mxCell id="0jLQMamWFt96zplDpg2h-226" value="" style="shape=cube;whiteSpace=wrap;html=1;boundedLbl=1;backgroundOutline=1;darkOpacity=0.05;darkOpacity2=0.1;fillColor=#dae8fc;strokeColor=#6c8ebf;size=20;movable=1;resizable=1;rotatable=1;deletable=1;editable=1;locked=0;connectable=1;container=0;" vertex="1" parent="0jLQMamWFt96zplDpg2h-332">
          <mxGeometry x="1255" width="27" height="100" as="geometry" />
        </mxCell>
        <mxCell id="0jLQMamWFt96zplDpg2h-227" value="" style="shape=cube;whiteSpace=wrap;html=1;boundedLbl=1;backgroundOutline=1;darkOpacity=0.05;darkOpacity2=0.1;fillColor=#dae8fc;strokeColor=#6c8ebf;size=20;movable=1;resizable=1;rotatable=1;deletable=1;editable=1;locked=0;connectable=1;container=0;" vertex="1" parent="0jLQMamWFt96zplDpg2h-332">
          <mxGeometry x="1239" width="27" height="100" as="geometry" />
        </mxCell>
        <mxCell id="0jLQMamWFt96zplDpg2h-228" value="" style="shape=cube;whiteSpace=wrap;html=1;boundedLbl=1;backgroundOutline=1;darkOpacity=0.05;darkOpacity2=0.1;fillColor=#dae8fc;strokeColor=#6c8ebf;size=20;movable=1;resizable=1;rotatable=1;deletable=1;editable=1;locked=0;connectable=1;container=0;" vertex="1" parent="0jLQMamWFt96zplDpg2h-332">
          <mxGeometry x="1228.5" width="27" height="100" as="geometry" />
        </mxCell>
        <mxCell id="0jLQMamWFt96zplDpg2h-229" value="" style="shape=cube;whiteSpace=wrap;html=1;boundedLbl=1;backgroundOutline=1;darkOpacity=0.05;darkOpacity2=0.1;fillColor=#dae8fc;strokeColor=#6c8ebf;size=20;movable=1;resizable=1;rotatable=1;deletable=1;editable=1;locked=0;connectable=1;container=0;" vertex="1" parent="0jLQMamWFt96zplDpg2h-332">
          <mxGeometry x="1216" width="27" height="100" as="geometry" />
        </mxCell>
        <mxCell id="0jLQMamWFt96zplDpg2h-230" value="" style="shape=cube;whiteSpace=wrap;html=1;boundedLbl=1;backgroundOutline=1;darkOpacity=0.05;darkOpacity2=0.1;fillColor=#dae8fc;strokeColor=#6c8ebf;size=20;movable=1;resizable=1;rotatable=1;deletable=1;editable=1;locked=0;connectable=1;container=0;" vertex="1" parent="0jLQMamWFt96zplDpg2h-332">
          <mxGeometry x="1201.5" width="27" height="100" as="geometry" />
        </mxCell>
        <mxCell id="0jLQMamWFt96zplDpg2h-231" value="" style="shape=cube;whiteSpace=wrap;html=1;boundedLbl=1;backgroundOutline=1;darkOpacity=0.05;darkOpacity2=0.1;fillColor=#dae8fc;strokeColor=#6c8ebf;size=20;movable=1;resizable=1;rotatable=1;deletable=1;editable=1;locked=0;connectable=1;container=0;" vertex="1" parent="0jLQMamWFt96zplDpg2h-332">
          <mxGeometry x="1189" width="27" height="100" as="geometry" />
        </mxCell>
        <mxCell id="0jLQMamWFt96zplDpg2h-232" value="" style="shape=cube;whiteSpace=wrap;html=1;boundedLbl=1;backgroundOutline=1;darkOpacity=0.05;darkOpacity2=0.1;fillColor=#dae8fc;strokeColor=#6c8ebf;size=20;movable=1;resizable=1;rotatable=1;deletable=1;editable=1;locked=0;connectable=1;container=0;" vertex="1" parent="0jLQMamWFt96zplDpg2h-332">
          <mxGeometry x="1174.5" width="27" height="100" as="geometry" />
        </mxCell>
        <mxCell id="0jLQMamWFt96zplDpg2h-233" value="" style="shape=cube;whiteSpace=wrap;html=1;boundedLbl=1;backgroundOutline=1;darkOpacity=0.05;darkOpacity2=0.1;fillColor=#dae8fc;strokeColor=#6c8ebf;size=20;movable=1;resizable=1;rotatable=1;deletable=1;editable=1;locked=0;connectable=1;container=0;" vertex="1" parent="0jLQMamWFt96zplDpg2h-332">
          <mxGeometry x="1162" width="27" height="100" as="geometry" />
        </mxCell>
        <mxCell id="0jLQMamWFt96zplDpg2h-234" value="" style="shape=cube;whiteSpace=wrap;html=1;boundedLbl=1;backgroundOutline=1;darkOpacity=0.05;darkOpacity2=0.1;fillColor=#dae8fc;strokeColor=#6c8ebf;size=20;movable=1;resizable=1;rotatable=1;deletable=1;editable=1;locked=0;connectable=1;container=0;" vertex="1" parent="0jLQMamWFt96zplDpg2h-332">
          <mxGeometry x="1147.5" width="27" height="100" as="geometry" />
        </mxCell>
        <mxCell id="0jLQMamWFt96zplDpg2h-235" value="" style="shape=cube;whiteSpace=wrap;html=1;boundedLbl=1;backgroundOutline=1;darkOpacity=0.05;darkOpacity2=0.1;fillColor=#dae8fc;strokeColor=#6c8ebf;size=20;movable=1;resizable=1;rotatable=1;deletable=1;editable=1;locked=0;connectable=1;container=0;" vertex="1" parent="0jLQMamWFt96zplDpg2h-332">
          <mxGeometry x="1135" width="27" height="100" as="geometry" />
        </mxCell>
        <mxCell id="0jLQMamWFt96zplDpg2h-236" value="" style="shape=cube;whiteSpace=wrap;html=1;boundedLbl=1;backgroundOutline=1;darkOpacity=0.05;darkOpacity2=0.1;fillColor=#dae8fc;strokeColor=#6c8ebf;size=20;movable=1;resizable=1;rotatable=1;deletable=1;editable=1;locked=0;connectable=1;container=0;" vertex="1" parent="0jLQMamWFt96zplDpg2h-332">
          <mxGeometry x="1124.5" width="27" height="100" as="geometry" />
        </mxCell>
        <mxCell id="0jLQMamWFt96zplDpg2h-237" value="" style="shape=cube;whiteSpace=wrap;html=1;boundedLbl=1;backgroundOutline=1;darkOpacity=0.05;darkOpacity2=0.1;fillColor=#dae8fc;strokeColor=#6c8ebf;size=20;movable=1;resizable=1;rotatable=1;deletable=1;editable=1;locked=0;connectable=1;container=0;" vertex="1" parent="0jLQMamWFt96zplDpg2h-332">
          <mxGeometry x="1112" width="27" height="100" as="geometry" />
        </mxCell>
        <mxCell id="0jLQMamWFt96zplDpg2h-238" value="" style="shape=cube;whiteSpace=wrap;html=1;boundedLbl=1;backgroundOutline=1;darkOpacity=0.05;darkOpacity2=0.1;fillColor=#dae8fc;strokeColor=#6c8ebf;size=20;movable=1;resizable=1;rotatable=1;deletable=1;editable=1;locked=0;connectable=1;container=0;" vertex="1" parent="0jLQMamWFt96zplDpg2h-332">
          <mxGeometry x="1097.5" width="27" height="100" as="geometry" />
        </mxCell>
        <mxCell id="0jLQMamWFt96zplDpg2h-239" value="" style="shape=cube;whiteSpace=wrap;html=1;boundedLbl=1;backgroundOutline=1;darkOpacity=0.05;darkOpacity2=0.1;fillColor=#dae8fc;strokeColor=#6c8ebf;size=20;movable=1;resizable=1;rotatable=1;deletable=1;editable=1;locked=0;connectable=1;container=0;" vertex="1" parent="0jLQMamWFt96zplDpg2h-332">
          <mxGeometry x="1085" width="27" height="100" as="geometry" />
        </mxCell>
        <mxCell id="0jLQMamWFt96zplDpg2h-240" value="" style="shape=cube;whiteSpace=wrap;html=1;boundedLbl=1;backgroundOutline=1;darkOpacity=0.05;darkOpacity2=0.1;fillColor=#dae8fc;strokeColor=#6c8ebf;size=20;movable=1;resizable=1;rotatable=1;deletable=1;editable=1;locked=0;connectable=1;container=0;" vertex="1" parent="0jLQMamWFt96zplDpg2h-332">
          <mxGeometry x="1070.5" width="27" height="100" as="geometry" />
        </mxCell>
        <mxCell id="0jLQMamWFt96zplDpg2h-241" value="" style="shape=cube;whiteSpace=wrap;html=1;boundedLbl=1;backgroundOutline=1;darkOpacity=0.05;darkOpacity2=0.1;fillColor=#dae8fc;strokeColor=#6c8ebf;size=20;movable=1;resizable=1;rotatable=1;deletable=1;editable=1;locked=0;connectable=1;container=0;" vertex="1" parent="0jLQMamWFt96zplDpg2h-332">
          <mxGeometry x="1058" width="27" height="100" as="geometry" />
        </mxCell>
        <mxCell id="0jLQMamWFt96zplDpg2h-242" value="" style="shape=cube;whiteSpace=wrap;html=1;boundedLbl=1;backgroundOutline=1;darkOpacity=0.05;darkOpacity2=0.1;fillColor=#dae8fc;strokeColor=#6c8ebf;size=20;movable=1;resizable=1;rotatable=1;deletable=1;editable=1;locked=0;connectable=1;container=0;" vertex="1" parent="0jLQMamWFt96zplDpg2h-332">
          <mxGeometry x="1043.5" width="27" height="100" as="geometry" />
        </mxCell>
        <mxCell id="0jLQMamWFt96zplDpg2h-243" value="" style="shape=cube;whiteSpace=wrap;html=1;boundedLbl=1;backgroundOutline=1;darkOpacity=0.05;darkOpacity2=0.1;fillColor=#dae8fc;strokeColor=#6c8ebf;size=20;movable=1;resizable=1;rotatable=1;deletable=1;editable=1;locked=0;connectable=1;container=0;" vertex="1" parent="0jLQMamWFt96zplDpg2h-332">
          <mxGeometry x="1031" width="27" height="100" as="geometry" />
        </mxCell>
        <mxCell id="0jLQMamWFt96zplDpg2h-244" value="" style="shape=cube;whiteSpace=wrap;html=1;boundedLbl=1;backgroundOutline=1;darkOpacity=0.05;darkOpacity2=0.1;fillColor=#dae8fc;strokeColor=#6c8ebf;size=20;movable=1;resizable=1;rotatable=1;deletable=1;editable=1;locked=0;connectable=1;container=0;" vertex="1" parent="0jLQMamWFt96zplDpg2h-332">
          <mxGeometry x="1020.5" width="27" height="100" as="geometry" />
        </mxCell>
        <mxCell id="0jLQMamWFt96zplDpg2h-245" value="" style="shape=cube;whiteSpace=wrap;html=1;boundedLbl=1;backgroundOutline=1;darkOpacity=0.05;darkOpacity2=0.1;fillColor=#dae8fc;strokeColor=#6c8ebf;size=20;movable=1;resizable=1;rotatable=1;deletable=1;editable=1;locked=0;connectable=1;container=0;" vertex="1" parent="0jLQMamWFt96zplDpg2h-332">
          <mxGeometry x="1008" width="27" height="100" as="geometry" />
        </mxCell>
        <mxCell id="0jLQMamWFt96zplDpg2h-246" value="" style="shape=cube;whiteSpace=wrap;html=1;boundedLbl=1;backgroundOutline=1;darkOpacity=0.05;darkOpacity2=0.1;fillColor=#dae8fc;strokeColor=#6c8ebf;size=20;movable=1;resizable=1;rotatable=1;deletable=1;editable=1;locked=0;connectable=1;container=0;" vertex="1" parent="0jLQMamWFt96zplDpg2h-332">
          <mxGeometry x="993.5" width="27" height="100" as="geometry" />
        </mxCell>
        <mxCell id="0jLQMamWFt96zplDpg2h-247" value="" style="shape=cube;whiteSpace=wrap;html=1;boundedLbl=1;backgroundOutline=1;darkOpacity=0.05;darkOpacity2=0.1;fillColor=#dae8fc;strokeColor=#6c8ebf;size=20;movable=1;resizable=1;rotatable=1;deletable=1;editable=1;locked=0;connectable=1;container=0;" vertex="1" parent="0jLQMamWFt96zplDpg2h-332">
          <mxGeometry x="981" width="27" height="100" as="geometry" />
        </mxCell>
        <mxCell id="0jLQMamWFt96zplDpg2h-248" value="" style="shape=cube;whiteSpace=wrap;html=1;boundedLbl=1;backgroundOutline=1;darkOpacity=0.05;darkOpacity2=0.1;fillColor=#dae8fc;strokeColor=#6c8ebf;size=20;movable=1;resizable=1;rotatable=1;deletable=1;editable=1;locked=0;connectable=1;container=0;" vertex="1" parent="0jLQMamWFt96zplDpg2h-332">
          <mxGeometry x="966.5" width="27" height="100" as="geometry" />
        </mxCell>
        <mxCell id="0jLQMamWFt96zplDpg2h-249" value="" style="shape=cube;whiteSpace=wrap;html=1;boundedLbl=1;backgroundOutline=1;darkOpacity=0.05;darkOpacity2=0.1;fillColor=#dae8fc;strokeColor=#6c8ebf;size=20;movable=1;resizable=1;rotatable=1;deletable=1;editable=1;locked=0;connectable=1;container=0;" vertex="1" parent="0jLQMamWFt96zplDpg2h-332">
          <mxGeometry x="954" width="27" height="100" as="geometry" />
        </mxCell>
        <mxCell id="0jLQMamWFt96zplDpg2h-250" value="" style="shape=cube;whiteSpace=wrap;html=1;boundedLbl=1;backgroundOutline=1;darkOpacity=0.05;darkOpacity2=0.1;fillColor=#dae8fc;strokeColor=#6c8ebf;size=20;movable=1;resizable=1;rotatable=1;deletable=1;editable=1;locked=0;connectable=1;container=0;" vertex="1" parent="0jLQMamWFt96zplDpg2h-332">
          <mxGeometry x="939.5" width="27" height="100" as="geometry" />
        </mxCell>
        <mxCell id="0jLQMamWFt96zplDpg2h-251" value="" style="shape=cube;whiteSpace=wrap;html=1;boundedLbl=1;backgroundOutline=1;darkOpacity=0.05;darkOpacity2=0.1;fillColor=#dae8fc;strokeColor=#6c8ebf;size=20;movable=1;resizable=1;rotatable=1;deletable=1;editable=1;locked=0;connectable=1;container=0;" vertex="1" parent="0jLQMamWFt96zplDpg2h-332">
          <mxGeometry x="927" width="27" height="100" as="geometry" />
        </mxCell>
        <mxCell id="0jLQMamWFt96zplDpg2h-252" value="" style="shape=cube;whiteSpace=wrap;html=1;boundedLbl=1;backgroundOutline=1;darkOpacity=0.05;darkOpacity2=0.1;fillColor=#dae8fc;strokeColor=#6c8ebf;size=20;movable=1;resizable=1;rotatable=1;deletable=1;editable=1;locked=0;connectable=1;container=0;" vertex="1" parent="0jLQMamWFt96zplDpg2h-332">
          <mxGeometry x="916.5" width="27" height="100" as="geometry" />
        </mxCell>
        <mxCell id="0jLQMamWFt96zplDpg2h-253" value="" style="shape=cube;whiteSpace=wrap;html=1;boundedLbl=1;backgroundOutline=1;darkOpacity=0.05;darkOpacity2=0.1;fillColor=#dae8fc;strokeColor=#6c8ebf;size=20;movable=1;resizable=1;rotatable=1;deletable=1;editable=1;locked=0;connectable=1;container=0;" vertex="1" parent="0jLQMamWFt96zplDpg2h-332">
          <mxGeometry x="904" width="27" height="100" as="geometry" />
        </mxCell>
        <mxCell id="0jLQMamWFt96zplDpg2h-254" value="" style="shape=cube;whiteSpace=wrap;html=1;boundedLbl=1;backgroundOutline=1;darkOpacity=0.05;darkOpacity2=0.1;fillColor=#dae8fc;strokeColor=#6c8ebf;size=20;movable=1;resizable=1;rotatable=1;deletable=1;editable=1;locked=0;connectable=1;container=0;" vertex="1" parent="0jLQMamWFt96zplDpg2h-332">
          <mxGeometry x="889.5" width="27" height="100" as="geometry" />
        </mxCell>
        <mxCell id="0jLQMamWFt96zplDpg2h-255" value="" style="shape=cube;whiteSpace=wrap;html=1;boundedLbl=1;backgroundOutline=1;darkOpacity=0.05;darkOpacity2=0.1;fillColor=#dae8fc;strokeColor=#6c8ebf;size=20;movable=1;resizable=1;rotatable=1;deletable=1;editable=1;locked=0;connectable=1;container=0;" vertex="1" parent="0jLQMamWFt96zplDpg2h-332">
          <mxGeometry x="877" width="27" height="100" as="geometry" />
        </mxCell>
        <mxCell id="0jLQMamWFt96zplDpg2h-256" value="" style="shape=cube;whiteSpace=wrap;html=1;boundedLbl=1;backgroundOutline=1;darkOpacity=0.05;darkOpacity2=0.1;fillColor=#dae8fc;strokeColor=#6c8ebf;size=20;movable=1;resizable=1;rotatable=1;deletable=1;editable=1;locked=0;connectable=1;container=0;" vertex="1" parent="0jLQMamWFt96zplDpg2h-332">
          <mxGeometry x="862.5" width="27" height="100" as="geometry" />
        </mxCell>
        <mxCell id="0jLQMamWFt96zplDpg2h-257" value="" style="shape=cube;whiteSpace=wrap;html=1;boundedLbl=1;backgroundOutline=1;darkOpacity=0.05;darkOpacity2=0.1;fillColor=#dae8fc;strokeColor=#6c8ebf;size=20;movable=1;resizable=1;rotatable=1;deletable=1;editable=1;locked=0;connectable=1;container=0;" vertex="1" parent="0jLQMamWFt96zplDpg2h-332">
          <mxGeometry x="850" width="27" height="100" as="geometry" />
        </mxCell>
        <mxCell id="0jLQMamWFt96zplDpg2h-258" value="" style="shape=cube;whiteSpace=wrap;html=1;boundedLbl=1;backgroundOutline=1;darkOpacity=0.05;darkOpacity2=0.1;fillColor=#dae8fc;strokeColor=#6c8ebf;size=20;movable=1;resizable=1;rotatable=1;deletable=1;editable=1;locked=0;connectable=1;container=0;" vertex="1" parent="0jLQMamWFt96zplDpg2h-332">
          <mxGeometry x="835.5" width="27" height="100" as="geometry" />
        </mxCell>
        <mxCell id="0jLQMamWFt96zplDpg2h-259" value="" style="shape=cube;whiteSpace=wrap;html=1;boundedLbl=1;backgroundOutline=1;darkOpacity=0.05;darkOpacity2=0.1;fillColor=#dae8fc;strokeColor=#6c8ebf;size=20;movable=1;resizable=1;rotatable=1;deletable=1;editable=1;locked=0;connectable=1;container=0;" vertex="1" parent="0jLQMamWFt96zplDpg2h-332">
          <mxGeometry x="823" width="27" height="100" as="geometry" />
        </mxCell>
        <mxCell id="0jLQMamWFt96zplDpg2h-260" value="" style="shape=cube;whiteSpace=wrap;html=1;boundedLbl=1;backgroundOutline=1;darkOpacity=0.05;darkOpacity2=0.1;fillColor=#dae8fc;strokeColor=#6c8ebf;size=20;movable=1;resizable=1;rotatable=1;deletable=1;editable=1;locked=0;connectable=1;container=0;" vertex="1" parent="0jLQMamWFt96zplDpg2h-332">
          <mxGeometry x="812.5" width="27" height="100" as="geometry" />
        </mxCell>
        <mxCell id="0jLQMamWFt96zplDpg2h-261" value="" style="shape=cube;whiteSpace=wrap;html=1;boundedLbl=1;backgroundOutline=1;darkOpacity=0.05;darkOpacity2=0.1;fillColor=#dae8fc;strokeColor=#6c8ebf;size=20;movable=1;resizable=1;rotatable=1;deletable=1;editable=1;locked=0;connectable=1;container=0;" vertex="1" parent="0jLQMamWFt96zplDpg2h-332">
          <mxGeometry x="800" width="27" height="100" as="geometry" />
        </mxCell>
        <mxCell id="0jLQMamWFt96zplDpg2h-262" value="" style="shape=cube;whiteSpace=wrap;html=1;boundedLbl=1;backgroundOutline=1;darkOpacity=0.05;darkOpacity2=0.1;fillColor=#dae8fc;strokeColor=#6c8ebf;size=20;movable=1;resizable=1;rotatable=1;deletable=1;editable=1;locked=0;connectable=1;container=0;" vertex="1" parent="0jLQMamWFt96zplDpg2h-332">
          <mxGeometry x="785.5" width="27" height="100" as="geometry" />
        </mxCell>
        <mxCell id="0jLQMamWFt96zplDpg2h-263" value="" style="shape=cube;whiteSpace=wrap;html=1;boundedLbl=1;backgroundOutline=1;darkOpacity=0.05;darkOpacity2=0.1;fillColor=#dae8fc;strokeColor=#6c8ebf;size=20;movable=1;resizable=1;rotatable=1;deletable=1;editable=1;locked=0;connectable=1;container=0;" vertex="1" parent="0jLQMamWFt96zplDpg2h-332">
          <mxGeometry x="773" width="27" height="100" as="geometry" />
        </mxCell>
        <mxCell id="0jLQMamWFt96zplDpg2h-264" value="" style="shape=cube;whiteSpace=wrap;html=1;boundedLbl=1;backgroundOutline=1;darkOpacity=0.05;darkOpacity2=0.1;fillColor=#dae8fc;strokeColor=#6c8ebf;size=20;movable=1;resizable=1;rotatable=1;deletable=1;editable=1;locked=0;connectable=1;container=0;" vertex="1" parent="0jLQMamWFt96zplDpg2h-332">
          <mxGeometry x="758.5" width="27" height="100" as="geometry" />
        </mxCell>
        <mxCell id="0jLQMamWFt96zplDpg2h-265" value="" style="shape=cube;whiteSpace=wrap;html=1;boundedLbl=1;backgroundOutline=1;darkOpacity=0.05;darkOpacity2=0.1;fillColor=#dae8fc;strokeColor=#6c8ebf;size=20;movable=1;resizable=1;rotatable=1;deletable=1;editable=1;locked=0;connectable=1;container=0;" vertex="1" parent="0jLQMamWFt96zplDpg2h-332">
          <mxGeometry x="746" width="27" height="100" as="geometry" />
        </mxCell>
        <mxCell id="0jLQMamWFt96zplDpg2h-266" value="" style="shape=cube;whiteSpace=wrap;html=1;boundedLbl=1;backgroundOutline=1;darkOpacity=0.05;darkOpacity2=0.1;fillColor=#dae8fc;strokeColor=#6c8ebf;size=20;movable=1;resizable=1;rotatable=1;deletable=1;editable=1;locked=0;connectable=1;container=0;" vertex="1" parent="0jLQMamWFt96zplDpg2h-332">
          <mxGeometry x="731.5" width="27" height="100" as="geometry" />
        </mxCell>
        <mxCell id="0jLQMamWFt96zplDpg2h-267" value="" style="shape=cube;whiteSpace=wrap;html=1;boundedLbl=1;backgroundOutline=1;darkOpacity=0.05;darkOpacity2=0.1;fillColor=#dae8fc;strokeColor=#6c8ebf;size=20;movable=1;resizable=1;rotatable=1;deletable=1;editable=1;locked=0;connectable=1;container=0;" vertex="1" parent="0jLQMamWFt96zplDpg2h-332">
          <mxGeometry x="719" width="27" height="100" as="geometry" />
        </mxCell>
        <mxCell id="0jLQMamWFt96zplDpg2h-268" value="" style="shape=cube;whiteSpace=wrap;html=1;boundedLbl=1;backgroundOutline=1;darkOpacity=0.05;darkOpacity2=0.1;fillColor=#dae8fc;strokeColor=#6c8ebf;size=20;movable=1;resizable=1;rotatable=1;deletable=1;editable=1;locked=0;connectable=1;container=0;" vertex="1" parent="0jLQMamWFt96zplDpg2h-332">
          <mxGeometry x="708.5" width="27" height="100" as="geometry" />
        </mxCell>
        <mxCell id="0jLQMamWFt96zplDpg2h-269" value="" style="shape=cube;whiteSpace=wrap;html=1;boundedLbl=1;backgroundOutline=1;darkOpacity=0.05;darkOpacity2=0.1;fillColor=#dae8fc;strokeColor=#6c8ebf;size=20;movable=1;resizable=1;rotatable=1;deletable=1;editable=1;locked=0;connectable=1;container=0;" vertex="1" parent="0jLQMamWFt96zplDpg2h-332">
          <mxGeometry x="696" width="27" height="100" as="geometry" />
        </mxCell>
        <mxCell id="0jLQMamWFt96zplDpg2h-270" value="" style="shape=cube;whiteSpace=wrap;html=1;boundedLbl=1;backgroundOutline=1;darkOpacity=0.05;darkOpacity2=0.1;fillColor=#dae8fc;strokeColor=#6c8ebf;size=20;movable=1;resizable=1;rotatable=1;deletable=1;editable=1;locked=0;connectable=1;container=0;" vertex="1" parent="0jLQMamWFt96zplDpg2h-332">
          <mxGeometry x="681.5" width="27" height="100" as="geometry" />
        </mxCell>
        <mxCell id="0jLQMamWFt96zplDpg2h-271" value="" style="shape=cube;whiteSpace=wrap;html=1;boundedLbl=1;backgroundOutline=1;darkOpacity=0.05;darkOpacity2=0.1;fillColor=#dae8fc;strokeColor=#6c8ebf;size=20;movable=1;resizable=1;rotatable=1;deletable=1;editable=1;locked=0;connectable=1;container=0;" vertex="1" parent="0jLQMamWFt96zplDpg2h-332">
          <mxGeometry x="669" width="27" height="100" as="geometry" />
        </mxCell>
        <mxCell id="0jLQMamWFt96zplDpg2h-272" value="" style="shape=cube;whiteSpace=wrap;html=1;boundedLbl=1;backgroundOutline=1;darkOpacity=0.05;darkOpacity2=0.1;fillColor=#dae8fc;strokeColor=#6c8ebf;size=20;movable=1;resizable=1;rotatable=1;deletable=1;editable=1;locked=0;connectable=1;container=0;" vertex="1" parent="0jLQMamWFt96zplDpg2h-332">
          <mxGeometry x="654.5" width="27" height="100" as="geometry" />
        </mxCell>
        <mxCell id="0jLQMamWFt96zplDpg2h-273" value="" style="shape=cube;whiteSpace=wrap;html=1;boundedLbl=1;backgroundOutline=1;darkOpacity=0.05;darkOpacity2=0.1;fillColor=#dae8fc;strokeColor=#6c8ebf;size=20;movable=1;resizable=1;rotatable=1;deletable=1;editable=1;locked=0;connectable=1;container=0;" vertex="1" parent="0jLQMamWFt96zplDpg2h-332">
          <mxGeometry x="642" width="27" height="100" as="geometry" />
        </mxCell>
        <mxCell id="0jLQMamWFt96zplDpg2h-274" value="" style="shape=cube;whiteSpace=wrap;html=1;boundedLbl=1;backgroundOutline=1;darkOpacity=0.05;darkOpacity2=0.1;fillColor=#dae8fc;strokeColor=#6c8ebf;size=20;movable=1;resizable=1;rotatable=1;deletable=1;editable=1;locked=0;connectable=1;container=0;" vertex="1" parent="0jLQMamWFt96zplDpg2h-332">
          <mxGeometry x="627.5" width="27" height="100" as="geometry" />
        </mxCell>
        <mxCell id="0jLQMamWFt96zplDpg2h-275" value="" style="shape=cube;whiteSpace=wrap;html=1;boundedLbl=1;backgroundOutline=1;darkOpacity=0.05;darkOpacity2=0.1;fillColor=#dae8fc;strokeColor=#6c8ebf;size=20;movable=1;resizable=1;rotatable=1;deletable=1;editable=1;locked=0;connectable=1;container=0;" vertex="1" parent="0jLQMamWFt96zplDpg2h-332">
          <mxGeometry x="615" width="27" height="100" as="geometry" />
        </mxCell>
        <mxCell id="0jLQMamWFt96zplDpg2h-276" value="" style="shape=cube;whiteSpace=wrap;html=1;boundedLbl=1;backgroundOutline=1;darkOpacity=0.05;darkOpacity2=0.1;fillColor=#dae8fc;strokeColor=#6c8ebf;size=20;movable=1;resizable=1;rotatable=1;deletable=1;editable=1;locked=0;connectable=1;container=0;" vertex="1" parent="0jLQMamWFt96zplDpg2h-332">
          <mxGeometry x="604.5" width="27" height="100" as="geometry" />
        </mxCell>
        <mxCell id="0jLQMamWFt96zplDpg2h-277" value="" style="shape=cube;whiteSpace=wrap;html=1;boundedLbl=1;backgroundOutline=1;darkOpacity=0.05;darkOpacity2=0.1;fillColor=#dae8fc;strokeColor=#6c8ebf;size=20;movable=1;resizable=1;rotatable=1;deletable=1;editable=1;locked=0;connectable=1;container=0;" vertex="1" parent="0jLQMamWFt96zplDpg2h-332">
          <mxGeometry x="592" width="27" height="100" as="geometry" />
        </mxCell>
        <mxCell id="0jLQMamWFt96zplDpg2h-278" value="" style="shape=cube;whiteSpace=wrap;html=1;boundedLbl=1;backgroundOutline=1;darkOpacity=0.05;darkOpacity2=0.1;fillColor=#dae8fc;strokeColor=#6c8ebf;size=20;movable=1;resizable=1;rotatable=1;deletable=1;editable=1;locked=0;connectable=1;container=0;" vertex="1" parent="0jLQMamWFt96zplDpg2h-332">
          <mxGeometry x="577.5" width="27" height="100" as="geometry" />
        </mxCell>
        <mxCell id="0jLQMamWFt96zplDpg2h-279" value="" style="shape=cube;whiteSpace=wrap;html=1;boundedLbl=1;backgroundOutline=1;darkOpacity=0.05;darkOpacity2=0.1;fillColor=#dae8fc;strokeColor=#6c8ebf;size=20;movable=1;resizable=1;rotatable=1;deletable=1;editable=1;locked=0;connectable=1;container=0;" vertex="1" parent="0jLQMamWFt96zplDpg2h-332">
          <mxGeometry x="565" width="27" height="100" as="geometry" />
        </mxCell>
        <mxCell id="0jLQMamWFt96zplDpg2h-280" value="" style="shape=cube;whiteSpace=wrap;html=1;boundedLbl=1;backgroundOutline=1;darkOpacity=0.05;darkOpacity2=0.1;fillColor=#dae8fc;strokeColor=#6c8ebf;size=20;movable=1;resizable=1;rotatable=1;deletable=1;editable=1;locked=0;connectable=1;container=0;" vertex="1" parent="0jLQMamWFt96zplDpg2h-332">
          <mxGeometry x="550.5" width="27" height="100" as="geometry" />
        </mxCell>
        <mxCell id="0jLQMamWFt96zplDpg2h-281" value="" style="shape=cube;whiteSpace=wrap;html=1;boundedLbl=1;backgroundOutline=1;darkOpacity=0.05;darkOpacity2=0.1;fillColor=#dae8fc;strokeColor=#6c8ebf;size=20;movable=1;resizable=1;rotatable=1;deletable=1;editable=1;locked=0;connectable=1;container=0;" vertex="1" parent="0jLQMamWFt96zplDpg2h-332">
          <mxGeometry x="538" width="27" height="100" as="geometry" />
        </mxCell>
        <mxCell id="0jLQMamWFt96zplDpg2h-282" value="" style="shape=cube;whiteSpace=wrap;html=1;boundedLbl=1;backgroundOutline=1;darkOpacity=0.05;darkOpacity2=0.1;fillColor=#dae8fc;strokeColor=#6c8ebf;size=20;movable=1;resizable=1;rotatable=1;deletable=1;editable=1;locked=0;connectable=1;container=0;" vertex="1" parent="0jLQMamWFt96zplDpg2h-332">
          <mxGeometry x="523.5" width="27" height="100" as="geometry" />
        </mxCell>
        <mxCell id="0jLQMamWFt96zplDpg2h-283" value="" style="shape=cube;whiteSpace=wrap;html=1;boundedLbl=1;backgroundOutline=1;darkOpacity=0.05;darkOpacity2=0.1;fillColor=#dae8fc;strokeColor=#6c8ebf;size=20;movable=1;resizable=1;rotatable=1;deletable=1;editable=1;locked=0;connectable=1;container=0;" vertex="1" parent="0jLQMamWFt96zplDpg2h-332">
          <mxGeometry x="511" width="27" height="100" as="geometry" />
        </mxCell>
        <mxCell id="0jLQMamWFt96zplDpg2h-284" value="" style="shape=cube;whiteSpace=wrap;html=1;boundedLbl=1;backgroundOutline=1;darkOpacity=0.05;darkOpacity2=0.1;fillColor=#dae8fc;strokeColor=#6c8ebf;size=20;movable=1;resizable=1;rotatable=1;deletable=1;editable=1;locked=0;connectable=1;container=0;" vertex="1" parent="0jLQMamWFt96zplDpg2h-332">
          <mxGeometry x="500.5" width="27" height="100" as="geometry" />
        </mxCell>
        <mxCell id="0jLQMamWFt96zplDpg2h-285" value="" style="shape=cube;whiteSpace=wrap;html=1;boundedLbl=1;backgroundOutline=1;darkOpacity=0.05;darkOpacity2=0.1;fillColor=#dae8fc;strokeColor=#6c8ebf;size=20;movable=1;resizable=1;rotatable=1;deletable=1;editable=1;locked=0;connectable=1;container=0;" vertex="1" parent="0jLQMamWFt96zplDpg2h-332">
          <mxGeometry x="488" width="27" height="100" as="geometry" />
        </mxCell>
        <mxCell id="0jLQMamWFt96zplDpg2h-286" value="" style="shape=cube;whiteSpace=wrap;html=1;boundedLbl=1;backgroundOutline=1;darkOpacity=0.05;darkOpacity2=0.1;fillColor=#dae8fc;strokeColor=#6c8ebf;size=20;movable=1;resizable=1;rotatable=1;deletable=1;editable=1;locked=0;connectable=1;container=0;" vertex="1" parent="0jLQMamWFt96zplDpg2h-332">
          <mxGeometry x="473.5" width="27" height="100" as="geometry" />
        </mxCell>
        <mxCell id="0jLQMamWFt96zplDpg2h-287" value="" style="shape=cube;whiteSpace=wrap;html=1;boundedLbl=1;backgroundOutline=1;darkOpacity=0.05;darkOpacity2=0.1;fillColor=#dae8fc;strokeColor=#6c8ebf;size=20;movable=1;resizable=1;rotatable=1;deletable=1;editable=1;locked=0;connectable=1;container=0;" vertex="1" parent="0jLQMamWFt96zplDpg2h-332">
          <mxGeometry x="461" width="27" height="100" as="geometry" />
        </mxCell>
        <mxCell id="0jLQMamWFt96zplDpg2h-288" value="" style="shape=cube;whiteSpace=wrap;html=1;boundedLbl=1;backgroundOutline=1;darkOpacity=0.05;darkOpacity2=0.1;fillColor=#dae8fc;strokeColor=#6c8ebf;size=20;movable=1;resizable=1;rotatable=1;deletable=1;editable=1;locked=0;connectable=1;container=0;" vertex="1" parent="0jLQMamWFt96zplDpg2h-332">
          <mxGeometry x="446.5" width="27" height="100" as="geometry" />
        </mxCell>
        <mxCell id="0jLQMamWFt96zplDpg2h-289" value="" style="shape=cube;whiteSpace=wrap;html=1;boundedLbl=1;backgroundOutline=1;darkOpacity=0.05;darkOpacity2=0.1;fillColor=#dae8fc;strokeColor=#6c8ebf;size=20;movable=1;resizable=1;rotatable=1;deletable=1;editable=1;locked=0;connectable=1;container=0;" vertex="1" parent="0jLQMamWFt96zplDpg2h-332">
          <mxGeometry x="434" width="27" height="100" as="geometry" />
        </mxCell>
        <mxCell id="0jLQMamWFt96zplDpg2h-290" value="" style="shape=cube;whiteSpace=wrap;html=1;boundedLbl=1;backgroundOutline=1;darkOpacity=0.05;darkOpacity2=0.1;fillColor=#dae8fc;strokeColor=#6c8ebf;size=20;movable=1;resizable=1;rotatable=1;deletable=1;editable=1;locked=0;connectable=1;container=0;" vertex="1" parent="0jLQMamWFt96zplDpg2h-332">
          <mxGeometry x="419.5" width="27" height="100" as="geometry" />
        </mxCell>
        <mxCell id="0jLQMamWFt96zplDpg2h-291" value="" style="shape=cube;whiteSpace=wrap;html=1;boundedLbl=1;backgroundOutline=1;darkOpacity=0.05;darkOpacity2=0.1;fillColor=#dae8fc;strokeColor=#6c8ebf;size=20;movable=1;resizable=1;rotatable=1;deletable=1;editable=1;locked=0;connectable=1;container=0;" vertex="1" parent="0jLQMamWFt96zplDpg2h-332">
          <mxGeometry x="403.5" width="27" height="100" as="geometry" />
        </mxCell>
        <mxCell id="0jLQMamWFt96zplDpg2h-292" value="" style="shape=cube;whiteSpace=wrap;html=1;boundedLbl=1;backgroundOutline=1;darkOpacity=0.05;darkOpacity2=0.1;fillColor=#dae8fc;strokeColor=#6c8ebf;size=20;movable=1;resizable=1;rotatable=1;deletable=1;editable=1;locked=0;connectable=1;container=0;" vertex="1" parent="0jLQMamWFt96zplDpg2h-332">
          <mxGeometry x="393" width="27" height="100" as="geometry" />
        </mxCell>
        <mxCell id="0jLQMamWFt96zplDpg2h-293" value="" style="shape=cube;whiteSpace=wrap;html=1;boundedLbl=1;backgroundOutline=1;darkOpacity=0.05;darkOpacity2=0.1;fillColor=#dae8fc;strokeColor=#6c8ebf;size=20;movable=1;resizable=1;rotatable=1;deletable=1;editable=1;locked=0;connectable=1;container=0;" vertex="1" parent="0jLQMamWFt96zplDpg2h-332">
          <mxGeometry x="380.5" width="27" height="100" as="geometry" />
        </mxCell>
        <mxCell id="0jLQMamWFt96zplDpg2h-294" value="" style="shape=cube;whiteSpace=wrap;html=1;boundedLbl=1;backgroundOutline=1;darkOpacity=0.05;darkOpacity2=0.1;fillColor=#dae8fc;strokeColor=#6c8ebf;size=20;movable=1;resizable=1;rotatable=1;deletable=1;editable=1;locked=0;connectable=1;container=0;" vertex="1" parent="0jLQMamWFt96zplDpg2h-332">
          <mxGeometry x="366" width="27" height="100" as="geometry" />
        </mxCell>
        <mxCell id="0jLQMamWFt96zplDpg2h-295" value="" style="shape=cube;whiteSpace=wrap;html=1;boundedLbl=1;backgroundOutline=1;darkOpacity=0.05;darkOpacity2=0.1;fillColor=#dae8fc;strokeColor=#6c8ebf;size=20;movable=1;resizable=1;rotatable=1;deletable=1;editable=1;locked=0;connectable=1;container=0;" vertex="1" parent="0jLQMamWFt96zplDpg2h-332">
          <mxGeometry x="353.5" width="27" height="100" as="geometry" />
        </mxCell>
        <mxCell id="0jLQMamWFt96zplDpg2h-296" value="" style="shape=cube;whiteSpace=wrap;html=1;boundedLbl=1;backgroundOutline=1;darkOpacity=0.05;darkOpacity2=0.1;fillColor=#dae8fc;strokeColor=#6c8ebf;size=20;movable=1;resizable=1;rotatable=1;deletable=1;editable=1;locked=0;connectable=1;container=0;" vertex="1" parent="0jLQMamWFt96zplDpg2h-332">
          <mxGeometry x="339" width="27" height="100" as="geometry" />
        </mxCell>
        <mxCell id="0jLQMamWFt96zplDpg2h-297" value="" style="shape=cube;whiteSpace=wrap;html=1;boundedLbl=1;backgroundOutline=1;darkOpacity=0.05;darkOpacity2=0.1;fillColor=#dae8fc;strokeColor=#6c8ebf;size=20;movable=1;resizable=1;rotatable=1;deletable=1;editable=1;locked=0;connectable=1;container=0;" vertex="1" parent="0jLQMamWFt96zplDpg2h-332">
          <mxGeometry x="326.5" width="27" height="100" as="geometry" />
        </mxCell>
        <mxCell id="0jLQMamWFt96zplDpg2h-298" value="" style="shape=cube;whiteSpace=wrap;html=1;boundedLbl=1;backgroundOutline=1;darkOpacity=0.05;darkOpacity2=0.1;fillColor=#dae8fc;strokeColor=#6c8ebf;size=20;movable=1;resizable=1;rotatable=1;deletable=1;editable=1;locked=0;connectable=1;container=0;" vertex="1" parent="0jLQMamWFt96zplDpg2h-332">
          <mxGeometry x="312" width="27" height="100" as="geometry" />
        </mxCell>
        <mxCell id="0jLQMamWFt96zplDpg2h-299" value="" style="shape=cube;whiteSpace=wrap;html=1;boundedLbl=1;backgroundOutline=1;darkOpacity=0.05;darkOpacity2=0.1;fillColor=#dae8fc;strokeColor=#6c8ebf;size=20;movable=1;resizable=1;rotatable=1;deletable=1;editable=1;locked=0;connectable=1;container=0;" vertex="1" parent="0jLQMamWFt96zplDpg2h-332">
          <mxGeometry x="299.5" width="27" height="100" as="geometry" />
        </mxCell>
        <mxCell id="0jLQMamWFt96zplDpg2h-300" value="" style="shape=cube;whiteSpace=wrap;html=1;boundedLbl=1;backgroundOutline=1;darkOpacity=0.05;darkOpacity2=0.1;fillColor=#dae8fc;strokeColor=#6c8ebf;size=20;movable=1;resizable=1;rotatable=1;deletable=1;editable=1;locked=0;connectable=1;container=0;" vertex="1" parent="0jLQMamWFt96zplDpg2h-332">
          <mxGeometry x="289" width="27" height="100" as="geometry" />
        </mxCell>
        <mxCell id="0jLQMamWFt96zplDpg2h-301" value="" style="shape=cube;whiteSpace=wrap;html=1;boundedLbl=1;backgroundOutline=1;darkOpacity=0.05;darkOpacity2=0.1;fillColor=#dae8fc;strokeColor=#6c8ebf;size=20;movable=1;resizable=1;rotatable=1;deletable=1;editable=1;locked=0;connectable=1;container=0;" vertex="1" parent="0jLQMamWFt96zplDpg2h-332">
          <mxGeometry x="276.5" width="27" height="100" as="geometry" />
        </mxCell>
        <mxCell id="0jLQMamWFt96zplDpg2h-302" value="" style="shape=cube;whiteSpace=wrap;html=1;boundedLbl=1;backgroundOutline=1;darkOpacity=0.05;darkOpacity2=0.1;fillColor=#dae8fc;strokeColor=#6c8ebf;size=20;movable=1;resizable=1;rotatable=1;deletable=1;editable=1;locked=0;connectable=1;container=0;" vertex="1" parent="0jLQMamWFt96zplDpg2h-332">
          <mxGeometry x="262" width="27" height="100" as="geometry" />
        </mxCell>
        <mxCell id="0jLQMamWFt96zplDpg2h-303" value="" style="shape=cube;whiteSpace=wrap;html=1;boundedLbl=1;backgroundOutline=1;darkOpacity=0.05;darkOpacity2=0.1;fillColor=#dae8fc;strokeColor=#6c8ebf;size=20;movable=1;resizable=1;rotatable=1;deletable=1;editable=1;locked=0;connectable=1;container=0;" vertex="1" parent="0jLQMamWFt96zplDpg2h-332">
          <mxGeometry x="249.5" width="27" height="100" as="geometry" />
        </mxCell>
        <mxCell id="0jLQMamWFt96zplDpg2h-304" value="" style="shape=cube;whiteSpace=wrap;html=1;boundedLbl=1;backgroundOutline=1;darkOpacity=0.05;darkOpacity2=0.1;fillColor=#dae8fc;strokeColor=#6c8ebf;size=20;movable=1;resizable=1;rotatable=1;deletable=1;editable=1;locked=0;connectable=1;container=0;" vertex="1" parent="0jLQMamWFt96zplDpg2h-332">
          <mxGeometry x="235" width="27" height="100" as="geometry" />
        </mxCell>
        <mxCell id="0jLQMamWFt96zplDpg2h-305" value="" style="shape=cube;whiteSpace=wrap;html=1;boundedLbl=1;backgroundOutline=1;darkOpacity=0.05;darkOpacity2=0.1;fillColor=#dae8fc;strokeColor=#6c8ebf;size=20;movable=1;resizable=1;rotatable=1;deletable=1;editable=1;locked=0;connectable=1;container=0;" vertex="1" parent="0jLQMamWFt96zplDpg2h-332">
          <mxGeometry x="222.5" width="27" height="100" as="geometry" />
        </mxCell>
        <mxCell id="0jLQMamWFt96zplDpg2h-306" value="" style="shape=cube;whiteSpace=wrap;html=1;boundedLbl=1;backgroundOutline=1;darkOpacity=0.05;darkOpacity2=0.1;fillColor=#dae8fc;strokeColor=#6c8ebf;size=20;movable=1;resizable=1;rotatable=1;deletable=1;editable=1;locked=0;connectable=1;container=0;" vertex="1" parent="0jLQMamWFt96zplDpg2h-332">
          <mxGeometry x="208" width="27" height="100" as="geometry" />
        </mxCell>
        <mxCell id="0jLQMamWFt96zplDpg2h-307" value="" style="shape=cube;whiteSpace=wrap;html=1;boundedLbl=1;backgroundOutline=1;darkOpacity=0.05;darkOpacity2=0.1;fillColor=#dae8fc;strokeColor=#6c8ebf;size=20;movable=1;resizable=1;rotatable=1;deletable=1;editable=1;locked=0;connectable=1;container=0;" vertex="1" parent="0jLQMamWFt96zplDpg2h-332">
          <mxGeometry x="195.5" width="27" height="100" as="geometry" />
        </mxCell>
        <mxCell id="0jLQMamWFt96zplDpg2h-308" value="" style="shape=cube;whiteSpace=wrap;html=1;boundedLbl=1;backgroundOutline=1;darkOpacity=0.05;darkOpacity2=0.1;fillColor=#dae8fc;strokeColor=#6c8ebf;size=20;movable=1;resizable=1;rotatable=1;deletable=1;editable=1;locked=0;connectable=1;container=0;" vertex="1" parent="0jLQMamWFt96zplDpg2h-332">
          <mxGeometry x="185" width="27" height="100" as="geometry" />
        </mxCell>
        <mxCell id="0jLQMamWFt96zplDpg2h-309" value="" style="shape=cube;whiteSpace=wrap;html=1;boundedLbl=1;backgroundOutline=1;darkOpacity=0.05;darkOpacity2=0.1;fillColor=#dae8fc;strokeColor=#6c8ebf;size=20;movable=1;resizable=1;rotatable=1;deletable=1;editable=1;locked=0;connectable=1;container=0;" vertex="1" parent="0jLQMamWFt96zplDpg2h-332">
          <mxGeometry x="172.5" width="27" height="100" as="geometry" />
        </mxCell>
        <mxCell id="0jLQMamWFt96zplDpg2h-310" value="" style="shape=cube;whiteSpace=wrap;html=1;boundedLbl=1;backgroundOutline=1;darkOpacity=0.05;darkOpacity2=0.1;fillColor=#dae8fc;strokeColor=#6c8ebf;size=20;movable=1;resizable=1;rotatable=1;deletable=1;editable=1;locked=0;connectable=1;container=0;" vertex="1" parent="0jLQMamWFt96zplDpg2h-332">
          <mxGeometry x="158" width="27" height="100" as="geometry" />
        </mxCell>
        <mxCell id="0jLQMamWFt96zplDpg2h-311" value="" style="shape=cube;whiteSpace=wrap;html=1;boundedLbl=1;backgroundOutline=1;darkOpacity=0.05;darkOpacity2=0.1;fillColor=#dae8fc;strokeColor=#6c8ebf;size=20;movable=1;resizable=1;rotatable=1;deletable=1;editable=1;locked=0;connectable=1;container=0;" vertex="1" parent="0jLQMamWFt96zplDpg2h-332">
          <mxGeometry x="145.5" width="27" height="100" as="geometry" />
        </mxCell>
        <mxCell id="0jLQMamWFt96zplDpg2h-312" value="" style="shape=cube;whiteSpace=wrap;html=1;boundedLbl=1;backgroundOutline=1;darkOpacity=0.05;darkOpacity2=0.1;fillColor=#dae8fc;strokeColor=#6c8ebf;size=20;movable=1;resizable=1;rotatable=1;deletable=1;editable=1;locked=0;connectable=1;container=0;" vertex="1" parent="0jLQMamWFt96zplDpg2h-332">
          <mxGeometry x="131" width="27" height="100" as="geometry" />
        </mxCell>
        <mxCell id="0jLQMamWFt96zplDpg2h-313" value="" style="shape=cube;whiteSpace=wrap;html=1;boundedLbl=1;backgroundOutline=1;darkOpacity=0.05;darkOpacity2=0.1;fillColor=#dae8fc;strokeColor=#6c8ebf;size=20;movable=1;resizable=1;rotatable=1;deletable=1;editable=1;locked=0;connectable=1;container=0;" vertex="1" parent="0jLQMamWFt96zplDpg2h-332">
          <mxGeometry x="118.5" width="27" height="100" as="geometry" />
        </mxCell>
        <mxCell id="0jLQMamWFt96zplDpg2h-314" value="" style="shape=cube;whiteSpace=wrap;html=1;boundedLbl=1;backgroundOutline=1;darkOpacity=0.05;darkOpacity2=0.1;fillColor=#dae8fc;strokeColor=#6c8ebf;size=20;movable=1;resizable=1;rotatable=1;deletable=1;editable=1;locked=0;connectable=1;container=0;" vertex="1" parent="0jLQMamWFt96zplDpg2h-332">
          <mxGeometry x="104" width="27" height="100" as="geometry" />
        </mxCell>
        <mxCell id="0jLQMamWFt96zplDpg2h-315" value="" style="shape=cube;whiteSpace=wrap;html=1;boundedLbl=1;backgroundOutline=1;darkOpacity=0.05;darkOpacity2=0.1;fillColor=#dae8fc;strokeColor=#6c8ebf;size=20;movable=1;resizable=1;rotatable=1;deletable=1;editable=1;locked=0;connectable=1;container=0;" vertex="1" parent="0jLQMamWFt96zplDpg2h-332">
          <mxGeometry x="91.5" width="27" height="100" as="geometry" />
        </mxCell>
        <mxCell id="0jLQMamWFt96zplDpg2h-316" value="" style="shape=cube;whiteSpace=wrap;html=1;boundedLbl=1;backgroundOutline=1;darkOpacity=0.05;darkOpacity2=0.1;fillColor=#dae8fc;strokeColor=#6c8ebf;size=20;movable=1;resizable=1;rotatable=1;deletable=1;editable=1;locked=0;connectable=1;container=0;" vertex="1" parent="0jLQMamWFt96zplDpg2h-332">
          <mxGeometry x="81" width="27" height="100" as="geometry" />
        </mxCell>
        <mxCell id="0jLQMamWFt96zplDpg2h-317" value="" style="shape=cube;whiteSpace=wrap;html=1;boundedLbl=1;backgroundOutline=1;darkOpacity=0.05;darkOpacity2=0.1;fillColor=#dae8fc;strokeColor=#6c8ebf;size=20;movable=1;resizable=1;rotatable=1;deletable=1;editable=1;locked=0;connectable=1;container=0;" vertex="1" parent="0jLQMamWFt96zplDpg2h-332">
          <mxGeometry x="68.5" width="27" height="100" as="geometry" />
        </mxCell>
        <mxCell id="0jLQMamWFt96zplDpg2h-318" value="" style="shape=cube;whiteSpace=wrap;html=1;boundedLbl=1;backgroundOutline=1;darkOpacity=0.05;darkOpacity2=0.1;fillColor=#dae8fc;strokeColor=#6c8ebf;size=20;movable=1;resizable=1;rotatable=1;deletable=1;editable=1;locked=0;connectable=1;container=0;" vertex="1" parent="0jLQMamWFt96zplDpg2h-332">
          <mxGeometry x="54" width="27" height="100" as="geometry" />
        </mxCell>
        <mxCell id="0jLQMamWFt96zplDpg2h-319" value="" style="shape=cube;whiteSpace=wrap;html=1;boundedLbl=1;backgroundOutline=1;darkOpacity=0.05;darkOpacity2=0.1;fillColor=#dae8fc;strokeColor=#6c8ebf;size=20;movable=1;resizable=1;rotatable=1;deletable=1;editable=1;locked=0;connectable=1;container=0;" vertex="1" parent="0jLQMamWFt96zplDpg2h-332">
          <mxGeometry x="41.5" width="27" height="100" as="geometry" />
        </mxCell>
        <mxCell id="0jLQMamWFt96zplDpg2h-320" value="" style="shape=cube;whiteSpace=wrap;html=1;boundedLbl=1;backgroundOutline=1;darkOpacity=0.05;darkOpacity2=0.1;fillColor=#dae8fc;strokeColor=#6c8ebf;size=20;movable=1;resizable=1;rotatable=1;deletable=1;editable=1;locked=0;connectable=1;container=0;" vertex="1" parent="0jLQMamWFt96zplDpg2h-332">
          <mxGeometry x="27" width="27" height="100" as="geometry" />
        </mxCell>
        <mxCell id="0jLQMamWFt96zplDpg2h-321" value="" style="shape=cube;whiteSpace=wrap;html=1;boundedLbl=1;backgroundOutline=1;darkOpacity=0.05;darkOpacity2=0.1;fillColor=#dae8fc;strokeColor=#6c8ebf;size=20;movable=1;resizable=1;rotatable=1;deletable=1;editable=1;locked=0;connectable=1;container=0;" vertex="1" parent="0jLQMamWFt96zplDpg2h-332">
          <mxGeometry x="14.5" width="27" height="100" as="geometry" />
        </mxCell>
        <mxCell id="0jLQMamWFt96zplDpg2h-322" value="" style="shape=cube;whiteSpace=wrap;html=1;boundedLbl=1;backgroundOutline=1;darkOpacity=0.05;darkOpacity2=0.1;fillColor=#dae8fc;strokeColor=#6c8ebf;size=20;movable=1;resizable=1;rotatable=1;deletable=1;editable=1;locked=0;connectable=1;container=0;" vertex="1" parent="0jLQMamWFt96zplDpg2h-332">
          <mxGeometry width="27" height="100" as="geometry" />
        </mxCell>
        <mxCell id="0jLQMamWFt96zplDpg2h-333" value="" style="endArrow=none;dashed=1;html=1;dashPattern=1 3;strokeWidth=2;rounded=0;entryX=0;entryY=0;entryDx=0;entryDy=90.86917828537526;entryPerimeter=0;" edge="1" parent="1" target="0jLQMamWFt96zplDpg2h-194">
          <mxGeometry width="50" height="50" relative="1" as="geometry">
            <mxPoint x="-90" y="1160" as="sourcePoint" />
            <mxPoint x="640" y="670" as="targetPoint" />
            <Array as="points" />
          </mxGeometry>
        </mxCell>
        <mxCell id="0jLQMamWFt96zplDpg2h-334" value="" style="endArrow=none;dashed=1;html=1;dashPattern=1 3;strokeWidth=2;rounded=0;entryX=1;entryY=1;entryDx=0;entryDy=0;entryPerimeter=0;" edge="1" parent="1" target="0jLQMamWFt96zplDpg2h-28">
          <mxGeometry width="50" height="50" relative="1" as="geometry">
            <mxPoint x="1582" y="1160" as="sourcePoint" />
            <mxPoint x="510" y="971" as="targetPoint" />
            <Array as="points" />
          </mxGeometry>
        </mxCell>
      </root>
    </mxGraphModel>
  </diagram>
</mxfile>
